SplineFontDB: 3.0
FontName: Figurato
FullName: Figurato
FamilyName: Figurato
Weight: Standard
Copyright: Copyright 2018 Florian Kretlow
Version: 0.6.0.93
ItalicAngle: 0
UnderlinePosition: -200
UnderlineWidth: 100
Ascent: 700
Descent: 300
InvalidEm: 0
LayerCount: 4
Layer: 0 0 "Back" 1
Layer: 1 0 "Zeichenebene" 0
Layer: 2 0 "Struktur" 0
Layer: 3 0 "Struktur 2" 0
XUID: [1021 864 31587 12318]
FSType: 0
OS2Version: 0
OS2_WeightWidthSlopeOnly: 0
OS2_UseTypoMetrics: 1
CreationTime: 1324930714
ModificationTime: 1546625760
PfmFamily: 17
TTFWeight: 400
TTFWidth: 5
LineGap: 180
VLineGap: 0
OS2TypoAscent: 0
OS2TypoAOffset: 1
OS2TypoDescent: 0
OS2TypoDOffset: 1
OS2TypoLinegap: 180
OS2WinAscent: 0
OS2WinAOffset: 1
OS2WinDescent: 0
OS2WinDOffset: 1
HheadAscent: 0
HheadAOffset: 1
HheadDescent: 0
HheadDOffset: 1
OS2Vendor: 'PfEd'
MarkAttachClasses: 1
DEI: 91125
LangName: 1033
Encoding: UnicodeFull
UnicodeInterp: none
NameList: Adobe Glyph List
DisplaySize: -72
AntiAlias: 1
FitToEm: 0
WinInfo: 57440 10 8
BeginPrivate: 0
EndPrivate
Grid
-1000 562.799804688 m 0
 2000 562.799804688 l 1024
  Named: "562"
500 1200 m 0
 500 -800 l 1024
  Named: "500"
EndSplineSet
TeXData: 1 0 0 262144 131072 87381 190841 1048576 87381 783286 444596 497025 792723 393216 433062 380633 303038 157286 324010 404750 52429 2506097 1059062 262144
AnchorClass2: "chainleft"""  "chain"""  "acc""" 
BeginChars: 1114258 295

StartChar: zero
Encoding: 48 48 0
Width: 0
VWidth: 0
Flags: HMW
LayerCount: 4
Fore
SplineSet
44 280 m 0
 44 442 129 570 250 570 c 0
 371 570 456 442 456 280 c 0
 456 118 371 -8 250 -8 c 0
 129 -8 44 118 44 280 c 0
250 526 m 3
 178 526 150 432 150 300 c 2
 150 256 l 2
 150 124 178 36 250 36 c 3
 322 36 348 124 348 256 c 2
 348 300 l 2
 348 432 322 526 250 526 c 3
EndSplineSet
Validated: 1
EndChar

StartChar: one
Encoding: 49 49 1
Width: 0
VWidth: 0
Flags: HMW
LayerCount: 4
Back
SplineSet
315 112 m 6
 315 60 352 42 388 42 c 6
 414 42 l 21
 414 0 l 13
 118 0 l 21
 118 42 l 13
 154 42 l 6
 190 42 223 64 223 114 c 6
 223 438 l 6
 223 452 217 460 203 460 c 4
 197 460 189 458 177 454 c 6
 117 430 l 5
 97 464 l 13
 245 562 l 21
 315 562 l 13
 315 112 l 6
EndSplineSet
Fore
SplineSet
315 112 m 2
 315 60 352 42 388 42 c 2
 414 42 l 17
 414 0 l 9
 118 0 l 17
 118 42 l 9
 154 42 l 2
 190 42 223 64 223 114 c 2
 223 441 l 2
 223 455 217 463 203 463 c 0
 197 463 189 461 177 457 c 2
 114 431 l 1
 97 464 l 9
 245 562 l 17
 315 562 l 9
 315 112 l 2
EndSplineSet
Validated: 1
EndChar

StartChar: two
Encoding: 50 50 2
Width: 0
VWidth: 0
Flags: HMW
LayerCount: 4
Fore
SplineSet
452 158 m 1
 452 72 416 -8 336 -8 c 0
 264 -8 208 56 148 56 c 0
 110 56 94 36 80 0 c 1
 40 0 l 1
 48 84 134 182 204 230 c 0
 305 306 333 358 333 418 c 0
 333 492 295 526 239 526 c 0
 183 526 148 497 148 470 c 0
 148 447 177 439 177 396 c 0
 177 367 156 344 121 344 c 0
 82 344 57 370 57 413 c 0
 57 477 127 570 251 570 c 0
 359 570 447 506 447 414 c 0
 447 318 370 280 296 235 c 0
 276 222 192 180 146 110 c 1
 236 110 254 90 328 90 c 0
 378 90 402 114 416 164 c 1
 452 158 l 1
EndSplineSet
Validated: 1
EndChar

StartChar: three
Encoding: 51 51 3
Width: 0
VWidth: 0
Flags: HMW
LayerCount: 4
Fore
SplineSet
170 151 m 0
 170 120 149 110 149 84 c 0
 149 54 185 34 232 34 c 0
 296 34 344 79 344 152 c 0
 344 219 301 276 187 276 c 1
 187 312 l 1
 291 314 334 363 334 427 c 0
 334 495 289 528 238 528 c 0
 189 528 167 503 167 486 c 0
 167 463 199 461 199 417 c 0
 199 390 180 365 144 365 c 0
 115 365 84 390 84 434 c 0
 84 496 153 570 259 570 c 0
 364 570 435 505 435 428 c 0
 435 350 381 319 331 300 c 1
 331 289 l 1
 398 267 452 221 452 146 c 0
 452 53 371 -8 239 -8 c 0
 121 -8 49 67 49 133 c 0
 49 175 77 206 116 206 c 0
 145 206 170 185 170 151 c 0
EndSplineSet
Validated: 1
EndChar

StartChar: four
Encoding: 52 52 4
Width: 0
VWidth: 0
Flags: HMW
LayerCount: 4
Fore
SplineSet
378 166 m 1
 378 96 l 2
 378 52 414 40 453 40 c 1
 453 0 l 1
 201 0 l 1
 201 40 l 1
 221 40 l 2
 249 40 286 54 286 96 c 2
 286 166 l 1
 24 166 l 1
 24 206 l 1
 94 322 135 430 169 562 c 1
 302 562 l 1
 238 432 186 364 84 212 c 1
 286 212 l 1
 286 324 l 1
 378 422 l 1
 378 212 l 1
 470 212 l 1
 470 166 l 1
 378 166 l 1
EndSplineSet
Validated: 1
EndChar

StartChar: five
Encoding: 53 53 5
Width: 0
VWidth: 0
Flags: HMW
LayerCount: 4
Fore
SplineSet
253 358 m 0
 355 358 452 292 452 184 c 0
 452 71 360 -8 242 -8 c 4
 124 -8 51 67 51 131 c 4
 51 173 79 204 118 204 c 4
 147 204 172 183 172 149 c 4
 172 118 151 108 151 82 c 4
 151 55 178 34 227 34 c 4
 299 34 346 94 346 186 c 0
 346 276 289 312 230 312 c 3
 189 312 154 298 126 272 c 1
 100 286 l 9
 104 562 l 1
 162 556 208 552 256 552 c 0
 302 552 348 554 404 562 c 1
 414 548 l 1
 380 492 334 454 242 454 c 3
 210 454 182 458 146 462 c 9
 144 336 l 17
 150 333 l 17
 177 346 209 358 253 358 c 0
EndSplineSet
EndChar

StartChar: six
Encoding: 54 54 6
Width: 0
VWidth: 0
Flags: HMW
LayerCount: 4
Back
SplineSet
364 398 m 4
 329 398 307 422 307 455 c 4
 307 470 313 484 313 499 c 4
 313 515 296 528 269 528 c 7
 159 528 143 396 143 276 c 5
 171 310 215 336 271 336 c 4
 381 336 453 260 453 172 c 4
 453 68 369 -8 259 -8 c 4
 109 -8 47 132 47 276 c 4
 47 466 157 570 267 570 c 7
 365 570 421 513 421 461 c 4
 421 426 401 398 364 398 c 4
259 290 m 4
 195 290 153 236 153 160 c 7
 153 82 187 36 247 36 c 4
 315 36 351 94 351 170 c 4
 351 242 321 290 259 290 c 4
EndSplineSet
Fore
SplineSet
369 395 m 4
 333 395 312 419 312 452 c 4
 312 468 319 482 319 498 c 4
 319 515 300 527 272 527 c 4
 165 527 146 397 143 279 c 5
 171 311 214 335 268 335 c 4
 379 335 450 258 450 171 c 4
 450 66 365 -8 258 -8 c 4
 107 -8 47 127 47 268 c 4
 47 462 158 570 270 570 c 4
 369 570 426 510 426 458 c 4
 426 423 405 395 369 395 c 4
348 174 m 4
 348 243 319 290 256 290 c 4
 192 290 150 234 150 156 c 4
 150 81 183 36 244 36 c 4
 312 36 348 96 348 174 c 4
EndSplineSet
EndChar

StartChar: seven
Encoding: 55 55 7
Width: 0
VWidth: 0
Flags: HMW
LayerCount: 4
Fore
SplineSet
106 562 m 5
 106 538 106 526 120 526 c 7
 138 526 160 570 218 570 c 4
 288 570 298 516 346 516 c 4
 374 516 394 536 402 562 c 5
 446 562 l 5
 406 376 294 250 280 70 c 4
 276 16 246 -6 216 -6 c 4
 186 -6 156 18 156 60 c 4
 156 170 274 284 364 438 c 5
 320 444 220 476 178 476 c 7
 148 476 106 468 92 348 c 5
 54 348 l 5
 66 562 l 5
 106 562 l 5
EndSplineSet
Validated: 1
EndChar

StartChar: eight
Encoding: 56 56 8
Width: 0
VWidth: 3220
Flags: HMW
LayerCount: 4
Fore
SplineSet
80 420 m 0
 80 502 152 570 257 570 c 0
 357 570 425 506 425 428 c 0
 425 379 391 333 341 304 c 1
 398 274 449 234 449 159 c 0
 449 59 364 -8 256 -8 c 0
 136 -8 51 58 51 142 c 0
 51 212 97 259 160 287 c 1
 115 315 80 353 80 420 c 0
208 261 m 1
 154 241 111 204 111 146 c 0
 111 92 166 42 256 42 c 0
 326 42 375 86 375 126 c 0
 375 196 272 231 208 261 c 1
291 327 m 1
 337 349 363 390 363 432 c 0
 363 486 321 522 257 522 c 0
 196 522 154 489 154 445 c 0
 154 388 225 357 291 327 c 1
EndSplineSet
Validated: 1
Layer: 2
SplineSet
449 159 m 4
 449 59 364 -8 256 -8 c 4
 136 -8 51 58 51 142 c 4
 51 241 143 294 245 312 c 4
 318 325 363 377 363 432 c 4
 363 486 321 522 257 522 c 4
 196 522 154 489 154 445 c 4xd8
 154 392 209 366 274 335 c 4
 350 300 449 263 449 159 c 4
80 420 m 4
 80 502 152 570 257 570 c 4
 357 570 425 506 425 428 c 4xd8
 425 355 349 289 258 274 c 4
 182 261 111 221 111 146 c 4
 111 92 166 42 256 42 c 4
 326 42 375 86 375 126 c 4xe4
 375 189 290 224 228 252 c 4
 156 285 80 322 80 420 c 4
EndSplineSet
EndChar

StartChar: nine
Encoding: 57 57 9
Width: 0
VWidth: 0
Flags: HMW
LayerCount: 4
Fore
SplineSet
169 70 m 0
 169 53 186 34 224 34 c 3
 344 34 358 188 358 289 c 1
 326 257 286 231 230 231 c 0
 120 231 51 297 51 389 c 0
 51 483 134 570 247 570 c 0
 382 570 454 452 454 296 c 0
 454 96 343 -8 224 -8 c 3
 119 -8 59 58 59 106 c 0
 59 138 78 166 117 166 c 0
 150 166 173 143 173 106 c 0
 173 93 169 82 169 70 c 0
242 277 m 0
 306 277 350 330 350 397 c 3
 350 475 313 526 254 526 c 0
 184 526 150 466 150 395 c 0
 150 321 180 277 242 277 c 0
EndSplineSet
Validated: 1
EndChar

StartChar: bracketleft
Encoding: 91 91 10
Width: 0
VWidth: 2290
Flags: HMW
LayerCount: 4
Back
SplineSet
218 -112 m 5xe4
 170 -112 l 5
 170 696 l 5
 218 696 l 5
 218 -112 l 5xe4
170 -112 m 1xe4
 170 -64 l 1
 390 -64 l 1
 390 -112 l 1
 170 -112 l 1xe4
170 648 m 1xe4
 170 696 l 1
 390 696 l 1
 390 648 l 1
 170 648 l 1xe4
EndSplineSet
Fore
SplineSet
298 -4 m 5
 410 -4 l 5
 410 -52 l 5
 250 -52 l 5
 250 596 l 5
 410 596 l 5
 410 548 l 5
 298 548 l 5
 298 -4 l 5
EndSplineSet
Validated: 1
EndChar

StartChar: b
Encoding: 98 98 12
Width: 0
VWidth: 0
Flags: HMW
LayerCount: 4
Back
SplineSet
156 756 m 5
 156 306 l 5
 184 334 218 368 278 368 c 4
 342 368 408 330 408 246 c 4
 408 82 240 84 132 -46 c 5
 112 -46 l 5
 112 756 l 5
 156 756 l 5
156 26 m 5
 230 96 308 130 308 220 c 4
 308 278 274 300 238 300 c 4
 192 300 158 262 158 262 c 5
 156 26 l 5
EndSplineSet
Fore
SplineSet
156 756 m 1
 156 306 l 1
 184 334 218 368 278 368 c 0
 342 368 408 330 408 246 c 0
 408 82 240 84 132 -46 c 1
 112 -46 l 1
 112 756 l 1
 156 756 l 1
156 26 m 1
 230 96 303 130 303 220 c 0
 303 278 271 300 236 300 c 0
 191 300 158 262 158 262 c 1
 156 26 l 1
EndSplineSet
EndChar

StartChar: n
Encoding: 110 110 13
Width: 0
VWidth: 0
Flags: HMW
LayerCount: 4
Back
SplineSet
134 727 m 5
 174 727 l 5
 174 455 l 5
 366 501 l 5
 366 -219 l 5
 322 -219 l 5
 326 47 l 5
 134 5 l 5
 134 727 l 5
174 327 m 5
 174 145 l 5
 326 181 l 5
 326 361 l 5
 174 327 l 5
EndSplineSet
Fore
SplineSet
134 727 m 1
 174 727 l 1
 174 455 l 1
 366 501 l 1
 366 -219 l 1
 322 -219 l 1
 326 47 l 1
 134 5 l 1
 134 727 l 1
174 337 m 1
 174 135 l 1
 326 171 l 1
 326 371 l 1
 174 337 l 1
EndSplineSet
EndChar

StartChar: x
Encoding: 120 120 14
Width: 0
VWidth: 0
Flags: HMW
LayerCount: 4
Fore
SplineSet
250 148 m 0
 207 148 180 88 180 18 c 1
 74 12 l 1
 80 118 l 1
 150 118 206 147 206 190 c 0
 206 233 150 260 80 260 c 1
 74 366 l 1
 180 362 l 1
 180 292 207 236 250 236 c 0
 293 236 320 292 320 362 c 1
 426 366 l 1
 420 260 l 1
 350 260 294 233 294 190 c 0
 294 147 350 118 420 118 c 1
 426 12 l 1
 320 18 l 1
 320 88 293 148 250 148 c 0
EndSplineSet
Layer: 2
SplineSet
250 148 m 4
 212 148 176 88 176 18 c 5
 74 12 l 5
 80 114 l 5
 150 114 206 152 206 190 c 4
 206 228 150 264 80 264 c 5
 74 366 l 5
 176 362 l 5
 176 292 212 236 250 236 c 4
 288 236 324 292 324 362 c 5
 426 366 l 5
 420 264 l 5
 350 264 294 228 294 190 c 4
 294 152 350 114 420 114 c 5
 426 12 l 5
 324 18 l 5
 324 88 288 148 250 148 c 4
EndSplineSet
EndChar

StartChar: quotedbl
Encoding: 34 34 15
Width: 1000
VWidth: 0
LayerCount: 4
Back
SplineSet
88 198 m 0x78
 88 180 77 168 60 168 c 0
 42 168 26 183 26 207 c 0
 26 244 64 285 124 285 c 0
 174 285 217 255 217 209 c 0
 217 161 176 143 141 121 c 0
 119 107 99 91 82 71 c 0
 75 64 79 52 88 52 c 0x78
 109 51 133 43 158 43 c 0
 180 43 194 59 196 84 c 1
 214 84 l 1
 221 52 213 -4 155 -4 c 0xb4
 115 -4 100 21 72 21 c 0
 58 21 47 12 43 0 c 1
 25 0 l 1
 28 42 66 95 98 119 c 0
 146 156 165 181 165 211 c 0
 165 248 139 266 109 266 c 0
 92 266 76 258 64 247 c 0
 60 242 59 239 59 236 c 0
 59 226 88 230 88 198 c 0x78
EndSplineSet
Fore
Validated: 1
EndChar

StartChar: percent
Encoding: 37 37 16
Width: 1000
VWidth: 0
LayerCount: 4
Back
SplineSet
94 15 m 7xf4
 124 15 149 33 149 86 c 4
 149 125 129 146 103 146 c 4
 83 146 64 136 52 117 c 5
 40 122 l 13
 40 281 l 5
 206 281 l 5
 193 237 114 225 60 234 c 13
 60 151 l 21xec
 75 159 90 166 117 166 c 4
 160 166 204 141 204 86 c 4
 204 31 157 -4 106 -4 c 7
 58 -4 25 17 25 50 c 4
 25 67 38 81 55 81 c 4
 72 81 84 67 84 50 c 4
 84 39 73 32 73 23 c 4
 73 19 78 15 94 15 c 7xf4
EndSplineSet
Fore
Validated: 1
EndChar

StartChar: numbersign
Encoding: 35 35 17
Width: 0
VWidth: 0
Flags: HMW
LayerCount: 4
Back
SplineSet
148 666 m 1
 188 666 l 1
 188 462 l 1
 312 498 l 1
 312 708 l 1
 352 708 l 1
 352 516 l 1
 414 536 l 1
 414 418 l 5
 352 396 l 5
 352 210 l 1
 414 230 l 1
 414 112 l 1
 352 90 l 1
 352 -124 l 1
 312 -124 l 1
 312 74 l 1
 188 36 l 1
 188 -170 l 1
 148 -170 l 1
 148 22 l 1
 86 2 l 1
 86 118 l 1
 148 140 l 1
 148 326 l 5
 86 306 l 5
 86 426 l 1
 148 444 l 1
 148 666 l 1
312 382 m 5
 188 344 l 5
 188 154 l 1
 312 192 l 1
 312 382 l 5
EndSplineSet
Fore
SplineSet
148 666 m 1
 188 666 l 1
 188 462 l 1
 312 498 l 1
 312 708 l 1
 352 708 l 1
 352 516 l 1
 414 536 l 1
 414 423 l 1
 352 401 l 1
 352 205 l 1
 414 225 l 1
 414 112 l 1
 352 90 l 1
 352 -124 l 1
 312 -124 l 1
 312 74 l 1
 188 36 l 1
 188 -170 l 1
 148 -170 l 1
 148 22 l 1
 86 2 l 1
 86 113 l 1
 148 135 l 1
 148 331 l 1
 86 311 l 1
 86 426 l 1
 148 444 l 1
 148 666 l 1
312 387 m 1
 188 349 l 1
 188 149 l 1
 312 187 l 1
 312 387 l 1
EndSplineSet
EndChar

StartChar: hyphen
Encoding: 45 45 18
Width: 0
VWidth: 2000
Flags: HMW
AnchorPoint: "chain" 0 730 basemark 0
AnchorPoint: "chain" 0 730 mark 0
LayerCount: 4
Fore
SplineSet
80 231 m 1
 80 277 l 1
 420 277 l 1
 420 231 l 1
 80 231 l 1
EndSplineSet
EndChar

StartChar: uni001A
Encoding: 26 26 19
Width: 0
LayerCount: 4
Back
SplineSet
0 208 m 4
 0 216 1 216 16 216 c 4
 29 216 30 216 30 208 c 4
 30 121 l 4
 30 92 36 91 58 97 c 4
 117 114 l 4
 136 119 141 118 141 103 c 4
 141 -207 l 4
 141 -215 139 -216 125 -216 c 4
 110 -216 111 -215 111 -206 c 4
 111 -120 l 4
 111 -92 107 -91 83 -97 c 4
 25 -114 l 4
 3 -120 0 -119 0 -103 c 4
 0 208 l 4
113 29 m 4
 113 54 105 54 86 48 c 4
 51 37 l 4
 29 31 28 27 28 -2 c 4
 28 -29 l 4
 28 -53 35 -53 54 -47 c 4
 90 -37 l 4
 111 -31 113 -25 113 3 c 4
 113 29 l 4
EndSplineSet
Fore
Validated: 1
EndChar

StartChar: parenleft
Encoding: 40 40 20
Width: 0
VWidth: 2280
Flags: HMW
LayerCount: 4
Back
SplineSet
223 260 m 4
 223 100 289 -30 371 -114 c 5
 345 -140 l 5
 231 -48 161 106 161 260 c 4
 161 414 231 568 345 660 c 5
 371 634 l 5
 297 558 223 420 223 260 c 4
EndSplineSet
Fore
SplineSet
298 260 m 0
 298 124 350 16 420 -56 c 1
 398 -80 l 1
 302 -2 242 130 242 260 c 0
 242 390 302 522 398 600 c 1
 420 576 l 1
 358 512 298 396 298 260 c 0
EndSplineSet
EndChar

StartChar: asciicircum
Encoding: 94 94 22
Width: 1000
VWidth: 0
LayerCount: 4
Back
SplineSet
92 150 m 0xf8
 101 157 118 165 137 165 c 0xf8
 187 165 212 132 212 88 c 0xf4
 212 36 176 -4 120 -4 c 0
 51 -4 25 61 25 131 c 0
 25 228 76 285 137 285 c 0
 167 285 199 267 199 238 c 0
 199 220 184 205 167 205 c 0
 150 205 137 218 137 235 c 0
 137 250 142 252 142 259 c 0
 142 265 138 267 134 267 c 0
 104 267 77 217 75 156 c 0
 75 149 83 142 92 150 c 0xf8
129 146 m 0
 99 146 78 115 78 78 c 3
 78 46 93 14 120 14 c 0
 152 14 163 39 163 87 c 0xf4
 163 119 161 146 129 146 c 0
EndSplineSet
Fore
Validated: 1
EndChar

StartChar: uni001D
Encoding: 29 29 23
Width: 0
VWidth: 0
LayerCount: 4
Back
SplineSet
46 339 m 5
 46 297 43 195 43 148 c 4
 43 145 43 142 46 142 c 4
 50 142 73 169 101 169 c 4
 127 169 154 153 154 115 c 4
 154 99 148 79 144 73 c 4
 141 68 136 61 126 51 c 4
 115 40 83 24 64 10 c 4
 50 -1 31 -19 23 -19 c 4
 21 -19 20 -18 20 -14 c 4
 20 104 20 230 19 340 c 5
 19 340 24 342 32 342 c 4
 48 342 46 339 46 339 c 5
41 15 m 5
 69 41 103 56 103 105 c 4
 103 125 91 139 76 139 c 4
 57 139 43 109 43 109 c 5
 43 109 41 89 41 72 c 6
 41 15 l 5
EndSplineSet
Fore
Validated: 1
EndChar

StartChar: uni001E
Encoding: 30 30 24
Width: 0
VWidth: 0
LayerCount: 4
Back
SplineSet
55 271 m 5
 55 271 60 271 65 271 c 4
 71 271 76 270 76 270 c 5
 76 259 76 207 76 196 c 4
 76 186 75 180 82 180 c 4
 86 180 100 184 105 186 c 4
 113 189 128 190 128 204 c 4
 128 226 126 267 126 289 c 5
 126 289 130 291 135 291 c 4
 142 291 148 289 148 289 c 5
 148 286 147 267 147 256 c 4
 147 207 148 203 156 203 c 4
 164 203 168 207 169 207 c 4
 170 207 175 206 175 204 c 6
 175 156 l 6
 175 152 173 151 161 147 c 4
 152 145 147 142 147 138 c 6
 147 60 l 6
 147 56 150 51 155 51 c 4
 163 51 168 55 172 55 c 4
 174 55 175 55 175 52 c 6
 175 1 l 6
 175 -1 153 -6 147 -11 c 5
 148 -107 l 5
 148 -107 146 -109 138 -109 c 4
 130 -109 127 -107 127 -107 c 5
 127 -107 128 -53 128 -27 c 6
 128 -21 l 5
 128 -21 126 -18 120 -18 c 4
 113 -18 75 -32 75 -32 c 5
 75 -75 l 6
 75 -103 76 -126 76 -126 c 5
 76 -126 76 -128 68 -128 c 4
 62 -128 55 -127 55 -127 c 5
 55 -127 56 -95 56 -75 c 4
 56 -43 55 -42 49 -42 c 4
 42 -42 36 -45 34 -45 c 4
 32 -45 29 -41 29 -39 c 6
 29 9 l 6
 29 13 56 15 56 24 c 6
 56 94 l 6
 56 108 50 110 47 110 c 4
 43 110 36 107 35 107 c 4
 33 107 29 110 29 112 c 6
 29 157 l 6
 29 161 36 164 45 167 c 4
 53 169 56 171 56 201 c 4
 56 220 55 257 55 271 c 5
75 46 m 4
 75 38 77 30 85 30 c 4
 106 30 128 43 128 48 c 6
 128 127 l 6
 128 130 119 131 115 131 c 4
 103 131 77 120 76 113 c 4
 75 107 75 65 75 46 c 4
EndSplineSet
Fore
Validated: 1
EndChar

StartChar: plus
Encoding: 43 43 26
Width: 0
VWidth: 0
Flags: HMW
AnchorPoint: "chain" 0 730 basemark 0
AnchorPoint: "chain" 0 730 mark 0
LayerCount: 4
Fore
SplineSet
227 474 m 1
 273 474 l 1
 273 277 l 1
 470 277 l 5
 470 231 l 1
 273 231 l 1
 273 34 l 1
 227 34 l 1
 227 231 l 1
 30 231 l 1
 30 277 l 1
 227 277 l 1
 227 474 l 1
EndSplineSet
Validated: 1
EndChar

StartChar: two_plus
Encoding: 57396 57396 27
Width: 0
VWidth: 0
Flags: HMW
LayerCount: 4
Fore
SplineSet
613 361 m 1
 659 361 l 1
 659 164 l 1
 856 164 l 1
 856 118 l 1
 659 118 l 1
 659 -79 l 1
 613 -79 l 1
 613 118 l 1
 449 118 l 1
 440 49 403 -8 336 -8 c 0
 264 -8 208 56 148 56 c 0
 110 56 94 36 80 0 c 1
 40 0 l 1
 48 84 134 182 204 230 c 0
 305 306 333 358 333 418 c 0
 333 492 295 526 239 526 c 0
 183 526 148 497 148 470 c 0
 148 447 177 439 177 396 c 0
 177 367 156 344 121 344 c 0
 82 344 57 370 57 413 c 0
 57 477 127 570 251 570 c 0
 359 570 447 506 447 414 c 0
 447 318 370 280 296 235 c 0
 276 222 192 180 146 110 c 1
 236 110 254 90 328 90 c 0
 378 90 402 114 416 164 c 1
 613 164 l 1
 613 361 l 1
EndSplineSet
Layer: 2
SplineSet
452 158 m 1
 452 72 416 -8 336 -8 c 0
 264 -8 208 56 148 56 c 0
 110 56 94 36 80 0 c 1
 40 0 l 1
 48 84 134 182 204 230 c 0
 305 306 333 358 333 418 c 0
 333 492 295 526 239 526 c 0
 183 526 148 497 148 470 c 0
 148 447 177 439 177 396 c 0
 177 367 156 344 121 344 c 0
 82 344 57 370 57 413 c 0
 57 477 127 570 251 570 c 0
 359 570 447 506 447 414 c 0
 447 318 370 280 296 235 c 0
 276 222 192 180 146 110 c 1
 236 110 254 90 328 90 c 0
 378 90 402 114 416 164 c 1
 452 158 l 1
613 361 m 5
 659 361 l 5
 659 164 l 5
 856 164 l 5
 856 118 l 5
 659 118 l 5
 659 -79 l 5
 613 -79 l 5
 613 118 l 5
 416 118 l 5
 416 164 l 5
 613 164 l 5
 613 361 l 5
EndSplineSet
EndChar

StartChar: four_plus
Encoding: 57411 57411 28
Width: 0
VWidth: 0
Flags: HMW
LayerCount: 4
Fore
SplineSet
592 409 m 1
 638 409 l 1
 638 212 l 1
 835 212 l 1
 835 166 l 1
 638 166 l 1
 638 -31 l 1
 592 -31 l 1
 592 166 l 1
 378 166 l 1
 378 96 l 2
 378 52 414 40 453 40 c 1
 453 0 l 1
 201 0 l 1
 201 40 l 1
 221 40 l 2
 249 40 286 54 286 96 c 2
 286 166 l 1
 24 166 l 1
 24 206 l 1
 94 322 135 430 169 562 c 1
 302 562 l 1
 238 432 186 364 84 212 c 1
 286 212 l 1
 286 324 l 1
 378 422 l 1
 378 212 l 1
 592 212 l 1
 592 409 l 1
EndSplineSet
Layer: 2
SplineSet
378 166 m 1
 378 96 l 2
 378 52 414 40 453 40 c 1
 453 0 l 1
 201 0 l 1
 201 40 l 1
 221 40 l 2
 249 40 286 54 286 96 c 2
 286 166 l 1
 24 166 l 1
 24 206 l 1
 94 322 135 430 169 562 c 1
 302 562 l 1
 238 432 186 364 84 212 c 1
 286 212 l 1
 286 324 l 1
 378 422 l 1
 378 212 l 1
 470 212 l 1
 470 166 l 1
 378 166 l 1
592 409 m 5
 638 409 l 5
 638 212 l 5
 835 212 l 5
 835 166 l 5
 638 166 l 5
 638 -31 l 5
 592 -31 l 5
 592 166 l 5
 395 166 l 5
 395 212 l 5
 592 212 l 5
 592 409 l 5
EndSplineSet
LCarets2: 3 0 0 0
EndChar

StartChar: five_plus
Encoding: 57420 57420 29
Width: 0
VWidth: 0
Flags: HMW
LayerCount: 4
Fore
SplineSet
576 324 m 1
 530 324 l 1
 530 512 l 1
 380 512 l 1
 348 476 305 454 242 454 c 0
 210 454 182 458 146 462 c 1
 144 336 l 1
 150 333 l 1
 177 346 209 358 253 358 c 0
 355 358 452 292 452 184 c 0
 452 71 360 -8 242 -8 c 0
 124 -8 51 67 51 131 c 0
 51 173 79 204 118 204 c 0
 147 204 172 183 172 149 c 0
 172 118 151 108 151 82 c 0
 151 55 178 34 227 34 c 0
 299 34 346 94 346 186 c 0
 346 276 289 312 230 312 c 0
 189 312 154 298 126 272 c 1
 100 286 l 1
 104 562 l 1
 162 556 208 552 256 552 c 0
 302 552 320 554 376 558 c 1
 530 558 l 1
 530 744 l 1
 576 744 l 1
 576 558 l 1
 756 558 l 1
 756 512 l 1
 576 512 l 1
 576 324 l 1
EndSplineSet
Validated: 1
Layer: 2
SplineSet
242 454 m 7
 210 454 182 458 146 462 c 13
 144 336 l 21
 150 333 l 21
 177 346 209 358 253 358 c 4
 355 358 452 292 452 184 c 4
 452 71 360 -8 242 -8 c 4
 124 -8 51 67 51 131 c 4
 51 173 79 204 118 204 c 4
 147 204 172 183 172 149 c 4
 172 118 151 108 151 82 c 4
 151 55 178 34 227 34 c 4
 299 34 346 94 346 186 c 4
 346 276 289 312 230 312 c 7
 189 312 154 298 126 272 c 5
 100 286 l 13
 104 562 l 5
 162 556 208 552 256 552 c 4
 302 552 320 554 376 558 c 5
 406 548 l 5
 372 492 324 454 242 454 c 7
756 558 m 5xe4
 756 512 l 5
 336 512 l 5
 376 558 l 5
 756 558 l 5xe4
576 324 m 5xe4
 530 324 l 5
 530 744 l 5
 576 744 l 5
 576 324 l 5xe4
EndSplineSet
EndChar

StartChar: six_tick
Encoding: 57426 57426 30
Width: 0
VWidth: 0
Flags: HMW
LayerCount: 4
Fore
SplineSet
348 164 m 0
 348 225 322 270 260 270 c 0
 192 270 148 212 148 144 c 0
 148 82 182 36 245 36 c 0
 316 36 348 97 348 164 c 0
257 -8 m 0
 106 -8 46 129 46 252 c 0
 46 365 93 447 165 499 c 1
 3 620 l 1
 29 658 l 1
 207 525 l 1
 264 553 331 567 401 567 c 1
 403 525 l 1
 346 523 295 513 253 490 c 1
 385 392 l 1
 359 354 l 1
 214 463 l 1
 170 422 142 358 140 259 c 1
 168 291 224 315 279 315 c 0
 389 315 450 239 450 161 c 0
 450 68 365 -8 257 -8 c 0
EndSplineSet
Layer: 2
SplineSet
3 620 m 1
 29 658 l 1
 385 392 l 1
 359 354 l 1
 3 620 l 1
257 -8 m 0
 106 -8 46 129 46 252 c 0
 46 465 211 567 401 567 c 1
 403 525 l 1
 255 519 145 463 140 259 c 1
 168 291 224 315 279 315 c 0
 389 315 450 239 450 161 c 0
 450 68 365 -8 257 -8 c 0
348 164 m 0
 348 225 322 270 260 270 c 0
 192 270 148 212 148 144 c 0
 148 82 182 36 245 36 c 0
 316 36 348 97 348 164 c 0
EndSplineSet
EndChar

StartChar: seven_tick
Encoding: 57434 57434 31
Width: 0
VWidth: 0
Flags: HMW
LayerCount: 4
Fore
SplineSet
106 562 m 1
 106 538 106 526 120 526 c 0
 138 526 160 570 218 570 c 0
 245 570 264 562 278 552 c 1
 371 712 l 1
 414 691 l 1
 316 524 l 1
 325 519 334 516 346 516 c 0
 374 516 394 536 402 562 c 1
 446 562 l 1
 406 376 294 250 280 70 c 0
 276 16 246 -6 216 -6 c 0
 186 -6 160 18 160 60 c 0
 160 170 265 275 368 446 c 1
 348 449 315 457 282 465 c 1
 159 254 l 1
 118 275 l 1
 235 476 l 1
 214 481 195 484 182 484 c 0
 152 484 104 468 94 378 c 1
 56 378 l 1
 66 562 l 1
 106 562 l 1
EndSplineSet
Layer: 2
SplineSet
158.922851562 254.124023438 m 1
 118.178710938 274.713867188 l 1
 371.079101562 711.806640625 l 1
 413.821289062 691.286132812 l 1
 158.922851562 254.124023438 l 1
106 562 m 1
 106 538 106 526 120 526 c 3
 138 526 160 570 218 570 c 0
 288 570 298 516 346 516 c 0
 374 516 394 536 402 562 c 1
 446 562 l 1
 406 376 294 250 280 70 c 0
 276 16 246 -6 216 -6 c 0
 186 -6 160 18 160 60 c 0
 160 170 265.282172703 275.223409605 368 446 c 1
 324 452 224 484 182 484 c 3
 152 484 104.499040833 467.991778569 94 378 c 1
 56 378 l 1
 66 562 l 1
 106 562 l 1
EndSplineSet
EndChar

StartChar: nine_tick
Encoding: 57442 57442 32
Width: 0
VWidth: 0
Flags: HMW
LayerCount: 4
Fore
SplineSet
235 292 m 0
 299 292 349 348 349 418 c 0
 349 476 315 526 253 526 c 0
 183 526 149 468 149 412 c 0
 149 340 173 292 235 292 c 0
357 300 m 1
 329 272 279 246 223 246 c 0
 107 246 47 322 47 410 c 0
 47 490 131 570 241 570 c 0
 383 570 453 462 453 342 c 0
 453 232 405 136 323 72 c 1
 477 -16 l 1
 455 -54 l 1
 283 46 l 1
 225 12 153 -8 73 -8 c 1
 71 34 l 1
 137 36 189 52 231 74 c 1
 67 170 l 1
 89 208 l 1
 271 102 l 1
 331 152 357 224 357 300 c 1
EndSplineSet
Validated: 1
Layer: 2
SplineSet
67 170 m 1
 89 208 l 1
 477 -16 l 1
 455 -54 l 1
 67 170 l 1
357 300 m 1
 329 272 279 246 223 246 c 0
 107 246 47 322 47 410 c 0
 47 490 131 570 241 570 c 0
 383 570 453 462 453 342 c 0
 453 142 295 -8 73 -8 c 1
 71 34 l 1
 271 42 357 164 357 300 c 1
235 292 m 0
 299 292 349 348 349 418 c 3
 349 476 315 526 253 526 c 0
 183 526 149 468 149 412 c 0
 149 340 173 292 235 292 c 0
EndSplineSet
EndChar

StartChar: b_b
Encoding: 57352 57352 33
Width: 0
VWidth: 0
Flags: HMW
LayerCount: 4
Back
SplineSet
275 716 m 5
 275 286 l 5
 299 312 337 354 393 354 c 4
 447 354 499 320 499 240 c 4
 499 84 359 70 251 -46 c 5
 231 -46 l 5
 231 716 l 5
 275 716 l 5
275 26 m 5
 341 88 411 128 411 208 c 4
 411 264 387 290 355 290 c 4
 309 290 277 230 277 230 c 5
 275 26 l 5
45 716 m 5
 45 286 l 5
 69 312 103 354 157 354 c 4
 209 354 257 320 257 240 c 4
 257 84 129 70 21 -46 c 5
 1 -46 l 5
 1 716 l 5
 45 716 l 5
45 26 m 5
 111 88 181 128 181 208 c 4
 181 264 157 290 125 290 c 4
 79 290 47 230 47 230 c 5
 45 26 l 5
EndSplineSet
Fore
SplineSet
45 26 m 1
 111 88 181 128 181 208 c 0
 181 264 157 290 125 290 c 0
 79 290 47 230 47 230 c 1
 45 26 l 1
45 756 m 1
 45 286 l 1
 69 312 103 354 157 354 c 0
 185 354 213 344 231 322 c 1
 231 756 l 1
 275 756 l 1
 275 286 l 1
 299 312 337 354 393 354 c 0
 447 354 499 320 499 240 c 0
 499 84 359 70 251 -46 c 1
 231 -46 l 1
 231 138 l 1
 189 68 99 38 21 -46 c 1
 1 -46 l 1
 1 756 l 1
 45 756 l 1
275 26 m 1
 341 88 411 128 411 208 c 0
 411 264 387 290 355 290 c 0
 309 290 277 230 277 230 c 1
 275 26 l 1
EndSplineSet
Validated: 1
Layer: 2
SplineSet
275 656 m 5
 275 286 l 5
 299 312 337 354 393 354 c 4
 447 354 499 320 499 240 c 4
 499 84 359 70 251 -46 c 5
 231 -46 l 5
 231 656 l 5
 275 656 l 5
275 26 m 5
 341 88 417 132 417 212 c 4
 417 268 393 294 361 294 c 4
 315 294 277 230 277 230 c 5
 275 26 l 5
45 656 m 5
 45 286 l 5
 69 312 103 354 157 354 c 4
 209 354 257 320 257 240 c 4
 257 84 129 70 21 -46 c 5
 1 -46 l 5
 1 656 l 5
 45 656 l 5
45 26 m 5
 111 88 187 132 187 212 c 4
 187 268 163 294 131 294 c 4
 85 294 47 230 47 230 c 5
 45 26 l 5
EndSplineSet
EndChar

StartChar: parenleft_s_parenright
Encoding: 57362 57362 37
Width: 0
VWidth: 2280
Flags: W
VStem: -142 54<151.717 387.011> 588 54<152.989 388.283>
LayerCount: 4
Fore
SplineSet
588 270 m 0
 588 386 542 476 478 538 c 1
 498 558 l 1
 586 492 642 380 642 270 c 0
 642 160 586 48 498 -18 c 1
 478 2 l 1
 536 56 588 154 588 270 c 0
-88 270 m 0
 -88 154 -42 64 22 2 c 1
 2 -18 l 1
 -86 48 -142 160 -142 270 c 0
 -142 380 -86 492 2 558 c 1
 22 538 l 1
 -36 484 -88 386 -88 270 c 0
EndSplineSet
Refer: 17 35 N 1 0 0 1 0 0 2
EndChar

StartChar: parenleft_b_parenright
Encoding: 57361 57361 38
Width: 0
VWidth: 2280
Flags: W
VStem: -102 54<141.717 377.011> 568 54<142.989 378.283>
LayerCount: 4
Fore
SplineSet
568 260 m 4
 568 376 522 466 458 528 c 5
 478 548 l 5
 566 482 622 370 622 260 c 4
 622 150 566 38 478 -28 c 5
 458 -8 l 5
 516 46 568 144 568 260 c 4
-48 260 m 4
 -48 144 -2 54 62 -8 c 5
 42 -28 l 5
 -46 38 -102 150 -102 260 c 4
 -102 370 -46 482 42 548 c 5
 62 528 l 5
 4 474 -48 376 -48 260 c 4
EndSplineSet
Refer: 12 98 S 1 0 0 1 32 0 2
EndChar

StartChar: parenleft_n_parenright
Encoding: 57360 57360 39
Width: 0
VWidth: 2280
Flags: W
VStem: -119 54<121.717 357.011> 565 54<122.989 358.283>
LayerCount: 4
Fore
SplineSet
565 240 m 0
 565 356 519 446 455 508 c 1
 475 528 l 1
 563 462 619 350 619 240 c 0
 619 130 563 18 475 -48 c 1
 455 -28 l 1
 513 26 565 124 565 240 c 0
-65 240 m 0
 -65 124 -19 34 45 -28 c 1
 25 -48 l 1
 -63 18 -119 130 -119 240 c 0
 -119 350 -63 462 25 528 c 1
 45 508 l 1
 -13 454 -65 356 -65 240 c 0
EndSplineSet
Refer: 13 110 N 1 0 0 1 0 0 2
EndChar

StartChar: parenleft_x_parenright
Encoding: 57364 57364 40
Width: 0
VWidth: 2280
Flags: W
VStem: -122 50<112.217 336.678> 572 50<113.322 337.783>
LayerCount: 4
Fore
SplineSet
572 225 m 4
 572 327 528 405 468 459 c 5
 490 481 l 5
 572 423 622 323 622 225 c 4
 622 127 572 27 490 -31 c 5
 468 -9 l 5
 520 39 572 123 572 225 c 4
-72 225 m 4
 -72 123 -28 45 32 -9 c 5
 10 -31 l 5
 -72 27 -122 127 -122 225 c 4
 -122 323 -72 423 10 481 c 5
 32 459 l 5
 -20 411 -72 327 -72 225 c 4
EndSplineSet
Refer: 14 120 N 1 0 0 1 0 40 2
EndChar

StartChar: parenleft_b_b_parenright
Encoding: 57363 57363 41
Width: 0
VWidth: 2280
Flags: W
VStem: -212 54<141.717 377.011> 658 54<142.989 378.283>
LayerCount: 4
Fore
SplineSet
658 260 m 0
 658 376 612 466 548 528 c 1
 568 548 l 1
 656 482 712 370 712 260 c 0
 712 150 656 38 568 -28 c 1
 548 -8 l 1
 606 46 658 144 658 260 c 0
-158 260 m 0
 -158 144 -112 54 -48 -8 c 1
 -68 -28 l 1
 -156 38 -212 150 -212 260 c 0
 -212 370 -156 482 -68 548 c 1
 -48 528 l 1
 -106 474 -158 376 -158 260 c 0
EndSplineSet
Refer: 33 57352 N 1 0 0 1 28 0 2
Validated: 1
EndChar

StartChar: bracketleft_s_bracketright
Encoding: 57378 57378 42
Width: 0
VWidth: 2280
Flags: W
HStem: -42 48<-87 5 495 587> 518 48<-87 5 495 587>
VStem: -135 140<-42 6 518 566> -135 48<6 518> 495 140<-42 6 518 566> 587 48<6 518>
LayerCount: 4
Fore
SplineSet
587 518 m 1xc4
 495 518 l 1
 495 566 l 1
 635 566 l 1
 635 -42 l 1
 495 -42 l 1
 495 6 l 1xc8
 587 6 l 1
 587 518 l 1xc4
-87 6 m 1xd0
 5 6 l 1
 5 -42 l 1
 -135 -42 l 1
 -135 566 l 1
 5 566 l 1
 5 518 l 1xe0
 -87 518 l 1
 -87 6 l 1xd0
EndSplineSet
Refer: 17 35 N 1 0 0 1 0 0 2
EndChar

StartChar: bracketleft_b_bracketright
Encoding: 57377 57377 43
Width: 0
VWidth: 2280
Flags: W
HStem: -32 48<-62 30 470 562> 528 48<-62 30 470 562>
VStem: -110 140<-32 16 528 576> -110 48<16 528> 470 140<-32 16 528 576> 562 48<16 528>
LayerCount: 4
Fore
SplineSet
562 528 m 1xc4
 470 528 l 1
 470 576 l 1
 610 576 l 1
 610 -32 l 1
 470 -32 l 1
 470 16 l 1xc8
 562 16 l 1
 562 528 l 1xc4
-62 16 m 1xd0
 30 16 l 1
 30 -32 l 1
 -110 -32 l 1
 -110 576 l 1
 30 576 l 1
 30 528 l 1xe0
 -62 528 l 1
 -62 16 l 1xd0
EndSplineSet
Refer: 12 98 N 1 0 0 1 28 0 2
EndChar

StartChar: bracketleft_n_bracketright
Encoding: 57376 57376 44
Width: 0
VWidth: 2280
Flags: W
HStem: -52 48<-63 29 471 563> 508 48<-63 29 471 563>
VStem: -111 140<-52 -4 508 556> -111 48<-4 508> 471 140<-52 -4 508 556> 563 48<-4 508>
LayerCount: 4
Fore
SplineSet
563 508 m 1xc4
 471 508 l 1
 471 556 l 1
 611 556 l 1
 611 -52 l 1
 471 -52 l 1
 471 -4 l 1xc8
 563 -4 l 1
 563 508 l 1xc4
-63 -4 m 1xd0
 29 -4 l 1
 29 -52 l 1
 -111 -52 l 1
 -111 556 l 1
 29 556 l 1
 29 508 l 1xe0
 -63 508 l 1
 -63 -4 l 1xd0
EndSplineSet
Refer: 13 110 N 1 0 0 1 0 0 2
LCarets2: 2 0 0
EndChar

StartChar: bracketleft_x_bracketright
Encoding: 57380 57380 45
Width: 0
VWidth: 2280
Flags: HMW
LayerCount: 4
Fore
SplineSet
573 383 m 1
 501 383 l 1
 501 431 l 1
 621 431 l 1
 621 -17 l 1
 501 -17 l 1
 501 31 l 1
 573 31 l 1
 573 383 l 1
-73 31 m 1
 -1 31 l 1
 -1 -17 l 1
 -121 -17 l 1
 -121 431 l 1
 -1 431 l 1
 -1 383 l 1
 -73 383 l 1
 -73 31 l 1
EndSplineSet
Refer: 14 120 N 1 0 0 1 1 20 2
EndChar

StartChar: bracketleft_b_b_bracketright
Encoding: 57379 57379 46
Width: 0
VWidth: 2280
Flags: W
HStem: -32 48<-157 -65 565 657> 528 48<-157 -65 565 657>
VStem: -205 140<-32 16 528 576> -205 48<16 528> 565 140<-32 16 528 576> 657 48<16 528>
LayerCount: 4
Fore
SplineSet
657 528 m 1xc4
 565 528 l 1
 565 576 l 1
 705 576 l 1
 705 -32 l 1
 565 -32 l 1
 565 16 l 1xc8
 657 16 l 1
 657 528 l 1xc4
-157 16 m 1xd0
 -65 16 l 1
 -65 -32 l 1
 -205 -32 l 1
 -205 576 l 1
 -65 576 l 1
 -65 528 l 1xe0
 -157 528 l 1
 -157 16 l 1xd0
EndSplineSet
Refer: 33 57352 N 1 0 0 1 25 0 2
Validated: 1
EndChar

StartChar: comma
Encoding: 44 44 47
Width: 0
VWidth: 0
Flags: W
LayerCount: 4
Back
SplineSet
226 848 m 1
 274 848 l 1
 274 736 l 1
 226 736 l 1
 226 848 l 1
226 448 m 1
 274 448 l 1
 274 336 l 1
 226 336 l 1
 226 448 l 1
226 248 m 1
 274 248 l 1
 274 136 l 1
 226 136 l 1
 226 248 l 1
226 48 m 1
 274 48 l 1
 274 -64 l 1
 226 -64 l 1
 226 48 l 1
226 648 m 1
 274 648 l 1
 274 536 l 1
 226 536 l 1
 226 648 l 1
226 -152 m 1
 274 -152 l 1
 274 -264 l 1
 226 -264 l 1
 226 -152 l 1
EndSplineSet
Fore
Validated: 1
EndChar

StartChar: d
Encoding: 100 100 48
Width: 0
VWidth: 2000
Flags: W
HStem: 246 56<20 480>
LayerCount: 4
Fore
SplineSet
20 246 m 1
 20 302 l 1
 480 302 l 1
 480 246 l 1
 20 246 l 1
EndSplineSet
EndChar

StartChar: i_zero
Encoding: 57600 57600 50
Width: 0
VWidth: 0
Flags: HMW
LayerCount: 4
Fore
SplineSet
296 568 m 0
 406 568 464 470 464 353 c 0
 464 161 338 -8 204 -8 c 0
 95 -8 35 89 35 207 c 0
 35 398 164 568 296 568 c 0
300 522 m 0
 237 522 190 437 158 316 c 0
 145 263 126 186 126 139 c 0
 126 79 146 38 200 38 c 0
 263 38 307 117 339 238 c 0
 353 293 372 373 372 422 c 0
 372 480 352 522 300 522 c 0
EndSplineSet
Validated: 1
EndChar

StartChar: i_one
Encoding: 57601 57601 51
Width: 0
VWidth: 0
Flags: HMW
LayerCount: 4
Back
SplineSet
277 112 m 6
 263 60 295 42 331 42 c 6
 361 42 l 21
 355 0 l 13
 59 0 l 21
 65 42 l 13
 97 42 l 6
 133 42 173 64 186 114 c 6
 270 428 l 6
 274 442 270 450 256 450 c 4
 250 450 241 448 228 444 c 6
 162 420 l 5
 151 454 l 13
 325 552 l 21
 395 552 l 13
 277 112 l 6
EndSplineSet
Fore
SplineSet
267 112 m 2
 265 103 264 96 264 89 c 0
 264 55 291 42 321 42 c 2
 351 42 l 17
 345 0 l 9
 49 0 l 17
 55 42 l 9
 87 42 l 2
 123 42 163 64 176 114 c 2
 258 419 l 2
 259 425 260 430 260 434 c 0
 260 445 254 450 244 450 c 0
 237 450 228 448 218 444 c 2
 155 421 l 1
 141 454 l 9
 315 552 l 17
 385 552 l 9
 267 112 l 2
EndSplineSet
Validated: 1
EndChar

StartChar: i_two
Encoding: 57602 57602 52
Width: 0
VWidth: 0
Flags: HMW
LayerCount: 4
Fore
SplineSet
122 114 m 1
 203 110 221 87 292 87 c 0
 339 87 362 110 378 158 c 1
 413 151 l 1
 410 66 373 -11 296 -11 c 0
 219 -11 167 60 102 60 c 0
 67 60 51 41 36 6 c 1
 -4 7 l 1
 17 92 118 182 194 224 c 0
 314 297 356 347 356 432 c 0
 356 493 323 524 267 524 c 0
 221 524 187 500 187 471 c 0
 187 453 205 441 205 411 c 0
 205 375 182 350 147 350 c 0
 109 350 87 375 87 411 c 0
 87 485 166 568 277 568 c 0
 386 568 468 497 468 409 c 0
 468 302 368 259 286 219 c 0
 264 208 185 182 122 114 c 1
EndSplineSet
Validated: 1
LCarets2: 1 0
EndChar

StartChar: i_three
Encoding: 57603 57603 53
Width: 0
VWidth: 0
Flags: HMW
LayerCount: 4
Back
SplineSet
90 210 m 0
 126 210 144 186 144 156 c 0
 144 114 108 98 108 74 c 0
 108 50 152 36 198 36 c 0
 268 36 318 88 318 174 c 0
 318 226 288 264 194 268 c 1
 186 268 l 1
 190 310 l 1
 198 310 l 2
 314 310 378 346 378 446 c 0
 378 496 350 528 290 528 c 0
 242 528 208 508 208 488 c 0
 208 474 238 464 238 430 c 0
 238 400 222 372 182 372 c 0
 152 372 122 392 122 434 c 0
 122 502 200 568 304 568 c 0
 400 568 480 508 480 434 c 0
 480 356 418 316 356 298 c 0
 348 296 338 296 338 286 c 0
 338 282 342 282 348 278 c 0
 398 256 426 212 426 162 c 0
 426 62 330 -6 208 -6 c 0
 92 -6 20 60 20 124 c 0
 20 176 58 210 90 210 c 0
EndSplineSet
Fore
SplineSet
89 231 m 0
 119 231 141 211 141 182 c 0
 141 137 100 132 100 94 c 0
 100 64 142 38 190 38 c 0
 251 38 313 90 313 172 c 0
 313 224 279 268 188 279 c 1
 195 314 l 1
 195 314 225 314 238 315 c 0
 321 319 375 367 375 444 c 0
 375 497 336 529 282 529 c 0
 246 529 223 512 223 493 c 0
 223 477 239 468 239 443 c 0
 239 409 216 382 182 382 c 0
 150 382 127 404 127 440 c 0
 127 511 208 568 298 568 c 0
 403 568 473 498 473 426 c 0
 473 329 391 295 333 285 c 1
 331 274 l 1
 380 246 416 204 416 149 c 0
 416 46 331 -8 227 -8 c 0
 93 -8 13 64 13 144 c 0
 13 194 49 231 89 231 c 0
EndSplineSet
Validated: 1
EndChar

StartChar: i_four
Encoding: 57604 57604 54
Width: 0
VWidth: 0
Flags: HMW
LayerCount: 4
Back
SplineSet
360 166 m 5
 342 96 l 6
 340 90 340 85 340 80 c 4
 340 49 372 40 406 40 c 5
 400 0 l 5
 148 0 l 5
 154 40 l 5
 170 40 l 6
 198 40 238 54 250 96 c 5
 268 166 l 5
 21 166 l 5
 27 206 l 5
 128 322 194 420 263 552 c 5
 397 552 l 5
 298 422 232 364 89 212 c 5
 281 212 l 5
 310 320 l 5
 428 418 l 5
 373 212 l 5
 465 212 l 5
 457 166 l 5
 360 166 l 5
EndSplineSet
Fore
SplineSet
363 166 m 1
 345 96 l 2
 343 90 343 85 343 80 c 0
 343 49 375 40 409 40 c 1
 403 0 l 1
 151 0 l 1
 157 40 l 1
 173 40 l 2
 201 40 241 54 253 96 c 1
 271 166 l 1
 14 166 l 1
 20 206 l 1
 121 322 187 420 256 552 c 1
 390 552 l 1
 291 422 225 364 82 212 c 1
 284 212 l 1
 313 320 l 1
 431 418 l 1
 376 212 l 1
 468 212 l 1
 460 166 l 1
 363 166 l 1
EndSplineSet
Validated: 1
EndChar

StartChar: i_five
Encoding: 57605 57605 55
Width: 0
VWidth: 0
Flags: HMW
LayerCount: 4
Back
SplineSet
193 -6 m 4
 79 -6 13 66 13 128 c 4
 13 180 45 210 85 210 c 4
 125 210 145 188 145 154 c 4
 145 104 113 100 113 72 c 4
 113 56 135 38 181 38 c 4
 257 38 331 118 331 222 c 4
 331 280 295 312 235 312 c 4
 193 312 157 298 125 276 c 5
 103 292 l 13
 181 564 l 5
 255 554 309 548 383 548 c 4
 413 548 445 550 481 554 c 5
 487 540 l 5
 441 488 387 452 303 452 c 4
 263 452 235 458 195 464 c 13
 161 340 l 21
 191 350 211 360 261 360 c 4
 357 360 435 302 435 206 c 4
 435 76 307 -6 193 -6 c 4
EndSplineSet
Fore
SplineSet
188 -6 m 4
 77 -6 16 65 16 126 c 4
 16 176 45 205 81 205 c 4
 116 205 137 184 137 151 c 4
 137 102 106 99 106 72 c 4
 106 57 133 38 176 38 c 4
 251 38 322 114 322 218 c 4
 322 276 288 308 229 308 c 4
 190 308 156 294 124 272 c 5
 102 288 l 13
 180 556 l 5
 254 546 303 540 377 540 c 4
 407 540 435 542 471 546 c 5
 480 531 l 5
 437 481 381 444 297 444 c 4
 257 444 234 450 194 456 c 13
 160 336 l 21
 190 346 208 356 255 356 c 4
 350 356 426 298 426 202 c 4
 426 72 301 -6 188 -6 c 4
EndSplineSet
Validated: 1
EndChar

StartChar: i_six
Encoding: 57606 57606 56
Width: 0
VWidth: 0
Flags: HMW
LayerCount: 4
Back
SplineSet
402 377 m 4
 368 377 348 399 348 426 c 4
 348 454 370 469 370 494 c 4
 370 513 344 527 313 527 c 4
 221 527 175 406 145 295 c 5
 174 319 213 336 256 336 c 4
 361 336 425 258 425 182 c 4
 425 65 319 -8 221 -8 c 4
 90 -8 34 87 34 195 c 4
 34 233 40 273 51 312 c 4
 96 483 213 568 313 568 c 4
 409 568 466 503 466 452 c 4
 466 409 437 377 402 377 c 4
326 207 m 4
 326 255 299 292 243 292 c 4
 175 292 116 216 116 125 c 4
 116 73 145 37 201 37 c 4
 268 37 326 118 326 207 c 4
EndSplineSet
Fore
SplineSet
402 377 m 0
 368 377 348 399 348 426 c 0
 348 454 370 469 370 494 c 0
 370 513 359 527 328 527 c 0
 236 527 173 412 142 293 c 1
 172 319 213 336 254 336 c 0
 359 336 420 260 420 177 c 0
 420 65 321 -8 226 -8 c 0
 92 -8 34 92 34 205 c 0
 34 420 199 568 328 568 c 0
 424 568 466 503 466 452 c 0
 466 409 437 377 402 377 c 0
321 202 m 0
 321 253 297 292 241 292 c 0
 175 292 116 222 116 131 c 0
 116 79 147 37 206 37 c 0
 270 37 321 116 321 202 c 0
EndSplineSet
Layer: 2
SplineSet
402 377 m 4
 368 377 348 399 348 426 c 4
 348 454 370 469 370 494 c 4
 370 513 359 527 328 527 c 4
 236 527 175 406 145 295 c 5
 174 319 213 336 256 336 c 4
 361 336 425 258 425 182 c 4
 425 65 319 -8 221 -8 c 4
 90 -8 34 87 34 195 c 4
 34 415.071761054 198.505553051 568 328 568 c 4
 424 568 466 503 466 452 c 4
 466 409 437 377 402 377 c 4
326 207 m 4
 326 255 299 292 243 292 c 4
 175 292 116 216 116 125 c 4
 116 73 145 37 201 37 c 4
 268 37 326 118 326 207 c 4
EndSplineSet
LCarets2: 1 0
EndChar

StartChar: i_seven
Encoding: 57607 57607 57
Width: 0
VWidth: 0
Flags: HMW
LayerCount: 4
Back
SplineSet
376 420 m 5
 331 429 249 468 203 468 c 4
 173 468 134 455 99 344 c 5
 61 346 l 5
 115 559 l 5
 154 557 l 5
 152 547 151 539 151 533 c 4
 151 525 154 520 162 520 c 4
 179 520 204 559 257 559 c 4
 327 559 324 499 376 499 c 4
 403 499 425 517 438 542 c 5
 481 539 l 5
 406 356 269 234 224 67 c 4
 210 15 178 -6 149 -6 c 4
 121 -6 97 14 97 48 c 4
 97 53 98 58 99 63 c 4
 119 168 257 271 376 420 c 5
EndSplineSet
Fore
SplineSet
376 420 m 1
 331 429 249 468 203 468 c 0
 173 468 134 455 99 344 c 1
 61 346 l 1
 115 559 l 1
 154 557 l 1
 152 547 151 539 151 533 c 0
 151 525 154 520 162 520 c 0
 179 520 204 559 257 559 c 0
 327 559 324 499 376 499 c 0
 403 499 425 517 438 542 c 1
 481 539 l 1
 406 356 269 234 224 67 c 0
 210 15 178 -6 149 -6 c 0
 121 -6 97 14 97 48 c 0
 97 144 259 274 376 420 c 1
EndSplineSet
Validated: 1
EndChar

StartChar: i_eight
Encoding: 57608 57608 58
Width: 0
VWidth: 3220
Flags: HMW
LayerCount: 4
Fore
SplineSet
227 -8 m 4
 109 -8 26 68 26 146 c 4
 26 237 100 284 171 302 c 5
 144 329 124 361 124 405 c 4
 124 503 204 568 299 568 c 4
 399 568 464 504 464 431 c 4
 464 357 411 312 347 288 c 5
 385 256 418 218 418 165 c 4
 418 57 320 -8 227 -8 c 4
85 150 m 4
 85 100 139 42 225 42 c 4
 285 42 336 76 336 125 c 4
 336 185 258 232 210 268 c 5
 152 258 85 223 85 150 c 4
299 519 m 4
 248 519 204 491 204 440 c 4
 204 394 259 355 306 319 c 5
 360 335 405 376 405 435 c 4
 405 483 362 519 299 519 c 4
EndSplineSet
Validated: 1
Layer: 2
SplineSet
221.600895947 -8.30921481734 m 4
 103.634109233 -8.30921481734 20.5356064733 67.7046427662 20.5356064733 145.702278643 c 4
 20.5356064733 156.320148734 21.9280034566 167.120267632 24.7919921875 177.9765625 c 4
 42.9836665029 246.930736803 98.9250708398 285.393993042 166.062094335 302.134902004 c 5
 138.811514922 329.309199046 118.743689196 361.454445718 118.743689196 404.602886754 c 4
 118.743689196 417.61835291 120.569642037 431.634989511 124.575195312 446.818359375 c 4
 143.144934158 517.205636814 210.92893062 567.809425199 294.096572657 567.809425199 c 4
 394.196108658 567.809425199 459.065359991 503.85465403 459.065359991 430.677765823 c 4
 459.065359991 419.294923711 457.561926698 407.666229786 454.48046875 395.986328125 c 4
 441.73896864 347.688556972 397.224274024 308.339888877 341.977955333 287.930931719 c 5
 380.023378999 256.102557566 412.575868439 218.042808001 412.575868439 164.939550111 c 4
 412.575868439 153.073092078 410.950379232 140.4554454 407.397460938 126.98828125 c 4
 384.909737173 41.7472642867 308.333377209 -8.30921481734 221.600895947 -8.30921481734 c 4
80.0589512106 150.350264397 m 4
 80.0589512106 99.9551529931 133.853644108 42.24555851 220.037508263 42.24555851 c 4
 274.942351663 42.24555851 319.521146747 73.0194743451 328.5078125 107.083007812 c 4
 330.127705839 113.223158376 330.885271361 119.234902371 330.885271361 125.120472792 c 4
 330.885271361 184.973138036 252.80780917 231.872052572 205.306378628 268.484386035 c 5
 148.226305918 258.299031614 97.9637750894 229.014705612 82.8447265625 171.705078125 c 4
 80.982041423 164.644352665 80.0589512106 157.488083932 80.0589512106 150.350264397 c 4
293.765126339 519.466908546 m 4
 242.989113149 519.466908546 198.901077107 490.608425156 198.901077107 440.377684147 c 4
 198.901077107 394.497481808 253.561665244 354.670635798 301.332011352 319.319946447 c 5
 350.080407661 333.721167757 385.659970973 368.984988713 396.606445312 410.4765625 c 4
 398.872471184 419.066198089 399.975293236 427.379809713 399.975293236 435.328365844 c 4
 399.975293236 483.031342776 357.307964406 519.466908546 293.765126339 519.466908546 c 4
EndSplineSet
EndChar

StartChar: i_nine
Encoding: 57609 57609 59
Width: 0
VWidth: 0
Flags: HMW
LayerCount: 4
Fore
SplineSet
82 188 m 0
 114 188 134 167 134 138 c 0
 134 112 117 97 117 75 c 0
 117 54 143 35 181 35 c 0
 281 35 330 174 355 268 c 1
 323 246 287 230 246 230 c 0
 143 230 81 301 81 376 c 0
 81 489 183 568 288 568 c 0
 409 568 465 481 465 368 c 0
 465 334 460 298 450 259 c 0
 402 79 288 -8 183 -8 c 0
 80 -8 20 66 20 119 c 0
 20 157 47 188 82 188 c 0
177 356 m 0
 177 308 205 274 260 274 c 0
 329 274 383 344 383 429 c 0
 383 484 355 521 300 521 c 0
 231 521 177 442 177 356 c 0
EndSplineSet
Validated: 1
Layer: 2
SplineSet
81 188 m 4
 113 188 135 168 135 138 c 4
 135 112 116 98 116 74 c 4
 116 53 143 34 180 34 c 4
 280 34 330 175 355 270 c 5
 323 248 287 231 247 231 c 4
 144 231 82 303 82 378 c 4
 82 492 185 574 290 574 c 4
 409 574 466 487 466 375 c 4
 466 340 460 301 449 261 c 4
 401 79 286 -8 182 -8 c 4
 79 -8 20 66 20 118 c 4
 20 157 46 188 81 188 c 4
177 359 m 4
 177 310 204 275 259 275 c 4
 329 275 384 348 384 434 c 4
 384 490 356 529 301 529 c 4
 231 529 177 445 177 359 c 4
EndSplineSet
EndChar

StartChar: parenleft.1
Encoding: 57472 57472 63
Width: 0
VWidth: 2280
Flags: HW
VStem: 200 62<-348.604 160.604>
LayerCount: 4
Back
SplineSet
200 -64 m 6
 200 274 356 520 454 630 c 5
 480 606 l 5
 368 466 262 244 262 -64 c 6
 262 -124 l 6
 262 -432 368 -654 480 -794 c 5
 454 -818 l 5
 356 -708 200 -462 200 -124 c 6
 200 -64 l 6
EndSplineSet
Fore
SplineSet
200 -64 m 2
 200 274 356 520 454 630 c 1
 480 606 l 1
 368 466 272 244 272 -64 c 2
 272 -124 l 2
 272 -432 368 -654 480 -794 c 1
 454 -818 l 1
 356 -708 200 -462 200 -124 c 2
 200 -64 l 2
EndSplineSet
EndChar

StartChar: parenleft.2
Encoding: 57474 57474 65
Width: 0
VWidth: 2280
Flags: HW
VStem: 200 62<-348.604 160.604>
LayerCount: 4
Back
SplineSet
106 -411 m 6
 106 176 305 474 455 631 c 5
 479 605 l 5
 306 404 176 131 176 -411 c 6
 176 -501 l 6
 176 -1043 306 -1316 479 -1517 c 5
 455 -1543 l 5
 305 -1386 106 -1088 106 -501 c 6
 106 -411 l 6
EndSplineSet
Fore
SplineSet
101 -411 m 2
 101 96 318 460 454 630 c 1
 480 606 l 1
 325 390 163 51 163 -411 c 2
 163 -501 l 2
 163 -963 325 -1302 480 -1518 c 1
 454 -1542 l 1
 318 -1372 101 -1008 101 -501 c 2
 101 -411 l 2
EndSplineSet
Layer: 2
SplineSet
86 -411 m 2
 86 96 312 465 454 630 c 1
 480 606 l 1
 318 396 148 51 148 -411 c 2
 148 -501 l 2
 148 -963 318 -1308 480 -1518 c 1
 454 -1542 l 1
 312 -1377 86 -1008 86 -501 c 2
 86 -411 l 2
EndSplineSet
EndChar

StartChar: parenleft.3
Encoding: 57476 57476 67
Width: 0
VWidth: 2280
Flags: HW
VStem: 200 62<-348.604 160.604>
LayerCount: 4
Back
SplineSet
200 -104 m 2
 200 274 341 541 456 632 c 1
 478 604 l 1
 343 486 262 214 262 -84 c 2
 262 -1564 l 2
 262 -1862 343 -2134 478 -2252 c 1
 456 -2280 l 1
 341 -2189 200 -1922 200 -1544 c 2
 200 -104 l 2
EndSplineSet
Fore
SplineSet
106 -411 m 2
 106 176 305 474 455 631 c 1
 479 605 l 1
 306 404 173 131 173 -411 c 6
 173 -1231 l 6
 173 -1793 306 -2046 479 -2247 c 1
 455 -2273 l 1
 305 -2116 106 -1838 106 -1231 c 2
 106 -411 l 2
EndSplineSet
Layer: 2
SplineSet
86 -411 m 6
 86 96 312 465 454 630 c 5
 480 606 l 5
 318 396 148 51 148 -411 c 6
 148 -1231 l 6
 148 -1693 318 -2038 480 -2248 c 5
 454 -2272 l 5
 312 -2107 86 -1738 86 -1231 c 6
 86 -411 l 6
EndSplineSet
EndChar

StartChar: parenleft.4
Encoding: 57478 57478 69
Width: 0
VWidth: 2280
Flags: HW
VStem: 200 62<-348.604 160.604>
LayerCount: 4
Back
SplineSet
200 -134 m 6
 200 274 341 541 456 632 c 5
 478 604 l 5
 343 486 262 214 262 -114 c 6
 262 -2264 l 6
 262 -2592 343 -2864 478 -2982 c 5
 456 -3010 l 5
 341 -2919 200 -2652 200 -2244 c 6
 200 -134 l 6
EndSplineSet
Fore
SplineSet
106 -411 m 2
 106 176 305 474 455 631 c 1
 479 605 l 1
 306 404 173 131 173 -411 c 2
 173 -1961 l 2
 173 -2523 306 -2776 479 -2977 c 1
 455 -3003 l 1
 305 -2846 106 -2568 106 -1961 c 2
 106 -411 l 2
EndSplineSet
EndChar

StartChar: bracketleft.1
Encoding: 57480 57480 71
Width: 0
VWidth: 2290
Flags: W
HStem: -822 48<298 440> 588 48<298 440>
VStem: 250 48<-774 588>
LayerCount: 4
Fore
SplineSet
298 -774 m 1
 440 -774 l 1
 440 -822 l 1
 250 -822 l 1
 250 636 l 1
 440 636 l 1
 440 588 l 1
 298 588 l 1
 298 -774 l 1
EndSplineSet
EndChar

StartChar: bracketleft.2
Encoding: 57482 57482 73
Width: 0
VWidth: 2290
Flags: W
HStem: -1552 48<288 450> 588 48<288 450>
VStem: 240 48<-1504 588>
LayerCount: 4
Fore
SplineSet
288 -1504 m 1
 450 -1504 l 1
 450 -1552 l 1
 240 -1552 l 1
 240 636 l 1
 450 636 l 1
 450 588 l 1
 288 588 l 1
 288 -1504 l 1
EndSplineSet
EndChar

StartChar: bracketleft.3
Encoding: 57484 57484 75
Width: 0
VWidth: 2290
Flags: W
HStem: -2282 48<278 450> 588 48<278 450>
VStem: 230 48<-2234 588>
LayerCount: 4
Fore
SplineSet
278 -2234 m 1
 450 -2234 l 1
 450 -2282 l 1
 230 -2282 l 1
 230 636 l 1
 450 636 l 1
 450 588 l 1
 278 588 l 1
 278 -2234 l 1
EndSplineSet
EndChar

StartChar: bracketleft.4
Encoding: 57486 57486 77
Width: 0
VWidth: 2290
Flags: W
HStem: -3012 48<268 450> 588 48<268 450>
VStem: 220 48<-2964 588>
LayerCount: 4
Fore
SplineSet
268 -2964 m 5
 450 -2964 l 5
 450 -3012 l 5
 220 -3012 l 5
 220 636 l 5
 450 636 l 5
 450 588 l 5
 268 588 l 5
 268 -2964 l 5
EndSplineSet
EndChar

StartChar: two_slash.alt
Encoding: 57393 57393 234
Width: 0
VWidth: 0
Flags: W
HStem: -8 98<258.087 388.598> 0 21G<40 87> 56 54<146.235 215.643> 526 44<170.587 301.039>
VStem: 58 96<388.673 484.456> 333 114<340.566 487.179> 416 36<126.176 158>
LayerCount: 4
Fore
SplineSet
-80 200 m 1x7a
 -90 245 l 1
 296 316 l 1
 324 351 333 383 333 418 c 0
 333 492 295 526 239 526 c 0
 192 526 154 506 154 471 c 0
 154 453 176 438 176 409 c 0
 176 376 155 353 123 353 c 0
 82 353 58 380 58 416 c 0
 58 504 154 570 251 570 c 0
 359 570 447 506 447 414 c 0
 447 384 440 360 427 340 c 1
 602 372 l 1
 612 327 l 1
 373 283 l 1
 349 266 322 251 296 235 c 0
 276 222 192 180 146 110 c 1x7c
 236 110 253 90 328 90 c 0
 378 90 402 114 416 164 c 1
 452 158 l 1
 452 72 416 -8 336 -8 c 0x9a
 263 -8 208 56 148 56 c 0
 110 56 94 36 80 0 c 1
 40 0 l 1
 48 84 134 182 204 230 c 0
 217 240 230 250 240 259 c 1
 -80 200 l 1x7a
EndSplineSet
Layer: 2
SplineSet
123 353 m 0x7c
 82 353 58 380 58 416 c 0
 58 503.697256996 153.834600475 570 251 570 c 0
 359 570 447 506 447 414 c 0
 447 318 370 280 296 235 c 0
 276 222 192 180 146 110 c 1x7c
 236 110 253 90 328 90 c 0
 378 90 402 114 416 164 c 1
 452 158 l 1
 452 72 416 -8 336 -8 c 0x9a
 263 -8 208 56 148 56 c 0
 110 56 94 36 80 0 c 1
 40 0 l 1
 48 84 134 182 204 230 c 0
 305 306 333 358 333 418 c 0
 333 492 295 526 239 526 c 0
 192 526 154 506 154 471 c 0
 154 453 176 438 176 409 c 0
 176 376 155 353 123 353 c 0x7c
-79.8427734375 200.211914062 m 1
 -89.5234375 244.779296875 l 1
 602.131835938 371.918945312 l 1
 611.8125 327.3515625 l 1
 -79.8427734375 200.211914062 l 1
EndSplineSet
LCarets2: 3 0 0 0
EndChar

StartChar: five_slash.alt
Encoding: 57417 57417 235
Width: 0
VWidth: 0
Flags: W
HStem: -8 42<170.065 300.716> 265 48<163.32 311.74> 460 93<146.976 312.125>
VStem: 55 107<55.4176 149.251> 101 44<282 338 392 460> 350 102<80.4733 226.166>
LayerCount: 4
Fore
SplineSet
162 79 m 0xf4
 162 45 197 34 227 34 c 0
 304 34 350 80 350 158 c 0
 350 234 297 265 238 265 c 0
 197 265 158 253 123 232 c 1
 100 250 l 1
 101 338 l 1
 -90 303 l 1
 -100 348 l 1
 102 384 l 1
 104 562 l 1
 157 556 202 553 246 553 c 0
 296 553 344 557 403 567 c 1
 413 553 l 1
 365 484 281 460 146 460 c 1
 145 392 l 1
 562 468 l 1
 572 423 l 1
 145 346 l 1xec
 144 282 l 1
 169 295 210 313 265 313 c 0
 367 313 452 253 452 156 c 0
 452 57 359 -8 241 -8 c 0
 151 -8 55 34 55 116 c 0
 55 153 79 186 119 186 c 0
 146 186 173 165 173 130 c 0
 173 109 162 97 162 79 c 0xf4
EndSplineSet
Layer: 2
SplineSet
-89.8427734375 303.211914062 m 1
 -99.5234375 347.779296875 l 1
 562.131835938 467.918945312 l 1
 571.8125 423.3515625 l 1
 -89.8427734375 303.211914062 l 1
55 116 m 4xf4
 55 151 76 179 109 185 c 4
 138 190 166 173 172 140 c 4xf4
 177 109 158 96 163 70 c 4
 168 44 200 34 227 34 c 4
 304 34 350 80 350 158 c 4
 350 234 297 265 238 265 c 7
 197 265 158 253 123 232 c 5
 100 250 l 5
 104 562 l 5
 218 550 293 549 403 567 c 5
 413 553 l 5
 365 484 281 460 146 460 c 13
 144 282 l 21xec
 169 295 210 313 265 313 c 4
 367 313 452 253 452 156 c 4
 452 57 359 -8 241 -8 c 4
 151 -8 55 34 55 116 c 4xf4
EndSplineSet
EndChar

StartChar: six_slash.alt
Encoding: 57425 57425 236
Width: 0
VWidth: 0
Flags: HW
HStem: -8 44<182.085 305.695> 310 45<190.253 316.367> 527 43<212.1 307.552>
VStem: 47 91<299 397.031> 313 110<435.691 523.07> 353 97<89.8418 182>
LayerCount: 4
Fore
SplineSet
423 480 m 0
 423 452 402 423 363 423 c 0
 337 423 315 442 313 474 c 0
 311 507 308 527 272 527 c 0
 180 527 141 417 138 299 c 1
 163 328 212 355 270 355 c 0
 352 355 410 314 436 253 c 1
 612 285 l 1
 622 240 l 1
 448 209 l 1
 448 209 450 197 450 181 c 0
 450 65 365 -8 258 -8 c 0
 155 -8 94 55 66 140 c 1
 -130 105 l 1
 -140 150 l 1
 55 185 l 1
 49 212 47 240 47 268 c 0
 47 462 165 570 288 570 c 0
 355 570 423 539 423 480 c 0
353 192 m 2
 145 155 l 1
 148 77 182 36 244 36 c 0
 316 36 353 100 353 184 c 0
 353 187 353 192 353 192 c 2
347 237 m 1
 335 282 306 310 256 310 c 0
 199 310 157 275 147 201 c 1
 347 237 l 1
EndSplineSet
Layer: 2
SplineSet
-129.842773438 95.2119140625 m 5
 -139.5234375 139.779296875 l 5
 612.131835938 274.918945312 l 5
 621.8125 230.3515625 l 5
 -129.842773438 95.2119140625 l 5
422.864234529 480.101674864 m 4xf8
 422.864234529 451.635394151 402.470794907 423.208153346 363.485465028 423.208153346 c 4
 336.631509888 423.208153346 314.918144307 442.155769631 312.893554688 473.76171875 c 4xf8
 310.785679848 506.667836751 308 527 272 527 c 4
 180 527 141 417 138 299 c 5
 163 328 212 355 270 355 c 4
 381 355 450 279 450 181 c 4xf4
 450 65 365 -8 258 -8 c 4
 107 -8 47 127 47 268 c 4
 47 462 165 570 288 570 c 4
 355.404296875 570 422.864234529 539 422.864234529 480.101674864 c 4xf8
353 184 m 4xf4
 353 259 323 310 256 310 c 4
 191 310 145 264 145 166 c 4
 145 81 179 36 244 36 c 4
 316 36 353 100 353 184 c 4xf4
EndSplineSet
Layer: 3
SplineSet
-129.842773438 105.211914062 m 5
 -139.5234375 149.779296875 l 5
 612.131835938 284.918945312 l 5
 621.8125 240.3515625 l 5
 -129.842773438 105.211914062 l 5
422.864234529 480.101674864 m 4xf8
 422.864234529 451.635394151 402.470794907 423.208153346 363.485465028 423.208153346 c 4
 336.631509888 423.208153346 314.918144307 442.155769631 312.893554688 473.76171875 c 4xf8
 310.785679848 506.667836751 308 527 272 527 c 4
 180 527 141 417 138 299 c 5
 163 328 212 355 270 355 c 4
 381 355 450 279 450 181 c 4xf4
 450 65 365 -8 258 -8 c 4
 107 -8 47 127 47 268 c 4
 47 462 165 570 288 570 c 4
 355.404296875 570 422.864234529 539 422.864234529 480.101674864 c 4xf8
353 184 m 4xf4
 353 259 323 310 256 310 c 4
 191 310 145 264 145 166 c 4
 145 81 179 36 244 36 c 4
 316 36 353 100 353 184 c 4xf4
EndSplineSet
LCarets2: 3 0 0 0
EndChar

StartChar: seven_slash.alt
Encoding: 57433 57433 237
Width: 0
VWidth: 0
Flags: W
HStem: 476 94<155.319 283.634>
VStem: 56 38<378 440.61> 66 40<526.009 562> 156 124<12.9183 147.869> 402 44<531.043 562>
LayerCount: 4
Fore
SplineSet
106 562 m 1xb8
 106 538 106 526 120 526 c 0
 138 526 160 570 218 570 c 0
 288 570 298 516 346 516 c 0
 374 516 394 536 402 562 c 1
 446 562 l 1
 428 478 395 406 363 336 c 1
 594 378 l 1
 604 333 l 1
 341 286 l 1
 311 218 286 149 280 70 c 0
 276 16 246 -6 216 -6 c 0
 186 -6 156 18 156 60 c 0
 156 126 198 193 251 269 c 1
 -58 213 l 1
 -68 258 l 1
 289 322 l 1
 314 359 340 397 364 438 c 1
 320 444 220 476 178 476 c 0
 148 476 104 468 94 378 c 1
 56 378 l 1xd8
 66 562 l 1
 106 562 l 1xb8
EndSplineSet
Layer: 2
SplineSet
-57.8427734375 213.211914062 m 1
 -67.5234375 257.779296875 l 1
 594.131835938 377.918945312 l 1
 603.8125 333.3515625 l 1
 -57.8427734375 213.211914062 l 1
106 562 m 1
 106 538 106 526 120 526 c 3
 138 526 160 570 218 570 c 0
 288 570 298 516 346 516 c 0
 374 516 394 536 402 562 c 1
 446 562 l 1
 406 376 294 250 280 70 c 0
 276 16 246 -6 216 -6 c 0
 186 -6 156 18 156 60 c 0
 156 170 274 284 364 438 c 1
 320 444 220 476 178 476 c 3
 148 476 104.499040833 467.991778569 94 378 c 1
 56 378 l 1
 66 562 l 1
 106 562 l 1
EndSplineSet
LCarets2: 2 0 0
EndChar

StartChar: three_slash.alt
Encoding: 57401 57401 238
Width: 0
VWidth: 0
Flags: W
HStem: -8 42<171.055 297.397> 365 21G<129.5 162> 528 42<178.212 298.356>
VStem: 54.3678 107.786<61.4366 153.093> 84 83<407.431 496.471> 334 101<359.968 494.79> 344 108<78.621 219.53>
LayerCount: 4
Fore
SplineSet
162.153661689 82.7202168362 m 0xf2
 162.153661689 51.1342455348 182.358679727 34 232 34 c 0
 296 34 344 79 344 152 c 0xf2
 344 217.964189664 297.230104317 271.073111213 224.252952901 271.073111213 c 0
 206.264628865 271.073111213 187.733241632 267.837019206 168 264 c 2
 -81 219 l 1
 -91 264 l 1
 250 325 l 2
 307 336 334 377 334 427 c 0
 334 495 289 528 238 528 c 0
 189 528 167 503 167 486 c 0
 167 463 199 461 199 417 c 0
 199 390 180 365 144 365 c 0
 115 365 84 390 84 434 c 0
 84 496 153 570 259 570 c 0
 364 570 435 505 435 428 c 0xec
 435 397 426 373 413 355 c 1
 621 393 l 1
 631 348 l 1
 331 294 l 1
 331 285 l 1
 400 266 452 221 452 146 c 0
 452 53 371 -8 239 -8 c 0
 137.999386533 -8 54.367767105 49.1813053661 54.367767105 121.557729441 c 0
 54.367767105 156.715883595 78.6000510065 189.861288428 118.701193322 189.861288428 c 0
 145.534048119 189.861288428 172.846338311 169.228124637 172.846338311 133.717283164 c 0
 172.846338311 112.95803206 162.153661689 100.562801274 162.153661689 82.7202168362 c 0xf2
EndSplineSet
Layer: 2
SplineSet
55.5390625 104.987304688 m 4
 48.24609375 146.348632812 70.4375 181.740234375 108.844726562 188.512695312 c 4
 137.404296875 193.547851562 165.670898438 177.208007812 171.575195312 143.724609375 c 4
 176.958007812 113.196289062 158.012695312 99.701171875 162.528320312 74.095703125 c 4
 166.75390625 50.1328125 185 34 232 34 c 4
 296 34 344 79 344 152 c 4
 344 219 301 276 187 276 c 5
 187 312 l 5
 291 314 334 363 334 427 c 4
 334 495 289 528 238 528 c 4
 189 528 167 503 167 486 c 4
 167 463 199 461 199 417 c 4
 199 390 180 365 144 365 c 4
 115 365 84 390 84 434 c 4
 84 496 153 570 259 570 c 4
 364 570 435 505 435 428 c 4
 435 350 381 319 331 300 c 5
 331 289 l 5
 398 267 452 221 452 146 c 4
 452 53 371 -8 239 -8 c 4
 142 -8 65.7109375 47.3017578125 55.5390625 104.987304688 c 4
-80.8427734375 219.211914062 m 5
 -90.5234375 263.779296875 l 5
 621.319335938 392.567382812 l 5
 631 348 l 5
 -80.8427734375 219.211914062 l 5
EndSplineSet
EndChar

StartChar: four_slash.alt
Encoding: 57409 57409 239
Width: 0
VWidth: 0
Flags: W
HStem: 0 40<201 272.816 391.447 453> 146 46<84 286 378 470>
VStem: 286 92<53.0857 146 192 293>
LayerCount: 4
Fore
SplineSet
378 146 m 1
 378 96 l 2
 378 52 414 40 453 40 c 1
 453 0 l 1
 201 0 l 1
 201 40 l 1
 221 40 l 2
 249 40 286 54 286 96 c 2
 286 146 l 1
 24 146 l 1
 24 186 l 1
 37 207 59 245 59 245 c 1
 56 251 l 1
 -141 215 l 1
 -151 260 l 1
 81 302 l 1
 118 385 149 473 169 562 c 1
 302 562 l 1
 261 472 215 409 161 324 c 1
 166 318 l 1
 287 340 l 1
 378 436 l 1
 378 356 l 1
 581 393 l 1
 591 348 l 1
 378 310 l 1
 378 192 l 1
 470 192 l 1
 470 146 l 1
 378 146 l 1
129 264 m 1
 115 242 100 218 84 192 c 1
 286 192 l 1
 286 293 l 1
 129 264 l 1
EndSplineSet
Layer: 2
SplineSet
-140.842773438 215.211914062 m 1
 -150.5234375 259.779296875 l 1
 581.131835938 392.918945312 l 1
 590.8125 348.3515625 l 1
 -140.842773438 215.211914062 l 1
378 146 m 1
 378 96 l 2
 378 52 414 40 453 40 c 1
 453 0 l 1
 201 0 l 1
 201 40 l 1
 221 40 l 2
 249 40 286 54 286 96 c 2
 286 146 l 1
 24 146 l 1
 24 186 l 1
 86 302 140 430 169 562 c 1
 302 562 l 1
 243 432 178 344 84 192 c 1
 286 192 l 1
 286 338 l 1
 378 436 l 1
 378 192 l 1
 470 192 l 1
 470 146 l 1
 378 146 l 1
EndSplineSet
EndChar

StartChar: nine_slash.alt
Encoding: 57441 57441 240
Width: 0
VWidth: 0
Flags: HMW
LayerCount: 4
Fore
SplineSet
63 83 m 0
 63 110 81 139 118 139 c 0
 143 139 165 123 175 95 c 0
 179 83 179 71 183 60 c 0
 189 44 202 34 224 34 c 0
 344 34 363 189 363 269 c 1
 331 237 291 211 230 211 c 0
 148 211 89 248 64 309 c 1
 -130 274 l 1
 -140 319 l 1
 53 353 l 1
 53 353 51 362 51 379 c 0
 51 483 134 570 247 570 c 0
 342 570 406 511 435 422 c 1
 612 454 l 1
 622 409 l 1
 447 378 l 1
 452 352 454 325 454 296 c 0
 454 96 343 -8 224 -8 c 0
 147 -8 63 17 63 83 c 0
353 361 m 1
 152 325 l 1
 164 280 193 257 242 257 c 0
 303 257 344 300 353 361 c 1
354 408 m 1
 349 487 313 526 254 526 c 0
 179 526 145 466 145 385 c 0
 145 377 145 370 145 370 c 1
 354 408 l 1
EndSplineSet
Layer: 2
SplineSet
-129.842773438 287.211914062 m 5
 -139.5234375 331.779296875 l 5
 612.131835938 466.918945312 l 5
 621.8125 422.3515625 l 5
 -129.842773438 287.211914062 l 5
67.2724609375 58.1025390625 m 4
 56.8546925951 88.3584674429 62.703125 123.018554688 99.578125 135.715820312 c 4
 130.780273438 146.459960938 163.015625 130.201171875 175.061523438 95.2158203125 c 4
 179.293945312 82.92578125 179.092773438 71.22265625 183 59.8759765625 c 4
 188.534179688 43.802734375 202 34 224 34 c 7
 344 34 363 189 363 269 c 5
 331 237 291 211 230 211 c 4
 120 211 51 277 51 379 c 4xf4
 51 483 134 570 247 570 c 4
 382 570 454 452 454 296 c 4
 454 96 343 -8 224 -8 c 7
 148 -8 81.7937277884 15.9289760311 67.2724609375 58.1025390625 c 4
242 257 m 4
 311 257 355 313 355 387 c 7
 355 480 318 526 254 526 c 4
 179 526 145 466 145 385 c 4
 145 301 175 257 242 257 c 4
EndSplineSet
Layer: 3
SplineSet
-129.842773438 274.211914062 m 5
 -139.5234375 318.779296875 l 5
 612.131835938 453.918945312 l 5
 621.8125 409.3515625 l 5
 -129.842773438 274.211914062 l 5
67.2724609375 58.1025390625 m 4
 56.8546925951 88.3584674429 62.703125 123.018554688 99.578125 135.715820312 c 4
 130.780273438 146.459960938 163.015625 130.201171875 175.061523438 95.2158203125 c 4
 179.293945312 82.92578125 179.092773438 71.22265625 183 59.8759765625 c 4
 188.534179688 43.802734375 202 34 224 34 c 7
 344 34 363 189 363 269 c 5
 331 237 291 211 230 211 c 4
 120 211 51 277 51 379 c 4
 51 483 134 570 247 570 c 4
 382 570 454 452 454 296 c 4
 454 96 343 -8 224 -8 c 7
 148 -8 81.7937277884 15.9289760311 67.2724609375 58.1025390625 c 4
242 257 m 4
 311 257 355 313 355 387 c 7
 355 480 318 526 254 526 c 4
 179 526 145 466 145 385 c 4
 145 301 175 257 242 257 c 4
EndSplineSet
EndChar

StartChar: X
Encoding: 88 88 241
Width: 0
VWidth: -30
Flags: W
HStem: 268.55 86.7002<105.5 182.494 317.506 394.5> 380.2 83.5996<211.781 288.219> 482.75 86.7002<105.5 184.093 315.907 394.5>
VStem: 100.4 86.6992<273.65 354.438 487.713 566.05> 208.2 83.5996<381.177 459.414> 312.9 86.6992<273.65 354.438 487.713 566.05>
CounterMasks: 1 1c
LayerCount: 4
Back
SplineSet
74.03125 622.442382812 m 5
 106.557617188 654.96875 l 5
 250 511.52734375 l 5
 393.442382812 654.96875 l 5
 425.96875 622.442382812 l 5
 282.52734375 479 l 5
 425.96875 335.557617188 l 5
 393.442382812 303.03125 l 5
 250 446.47265625 l 5
 106.557617188 303.03125 l 5
 74.03125 335.557617188 l 5
 217.47265625 479 l 5
 74.03125 622.442382812 l 5
EndSplineSet
Fore
SplineSet
250 380.200195312 m 0
 213.900390625 380.200195312 187.099609375 333.150390625 187.099609375 273.650390625 c 1
 100.400390625 268.549804688 l 1
 105.5 355.25 l 1
 165 355.25 208.200195312 384 208.200195312 420.099609375 c 0
 208.200195312 456.200195312 165 482.75 105.5 482.75 c 1
 100.400390625 569.450195312 l 1
 187.099609375 566.049804688 l 1
 187.099609375 506.549804688 213.900390625 463.799804688 250 463.799804688 c 0
 286.099609375 463.799804688 312.900390625 506.549804688 312.900390625 566.049804688 c 1
 399.599609375 569.450195312 l 1
 394.5 482.75 l 1
 335 482.75 291.799804688 456.200195312 291.799804688 420.099609375 c 0
 291.799804688 384 335 355.25 394.5 355.25 c 1
 399.599609375 268.549804688 l 1
 312.900390625 273.650390625 l 1
 312.900390625 333.150390625 286.099609375 380.200195312 250 380.200195312 c 0
EndSplineSet
EndChar

StartChar: five_tick
Encoding: 57418 57418 242
Width: 0
VWidth: 0
Flags: W
HStem: -8 42<176.893 295.765> 285 48<163.32 307.445> 462 91<147.811 246>
VStem: 56 107<60.4231 155.251> 100 44<302 468> 350 102<89.8659 243.195>
LayerCount: 4
Fore
SplineSet
163 85 m 0xf4
 163 52 198 34 227 34 c 0
 304 34 350 92 350 168 c 0
 350 250 297 285 238 285 c 0
 197 285 158 273 123 252 c 1
 100 270 l 1
 104 562 l 1
 149 557 201 554 246 553 c 1
 161 682 l 1
 198 709 l 1
 302 552 l 1
 349 553 407 555 462 562 c 1
 470 548 l 1
 444 516 403 489 353 474 c 1
 432 354 l 1
 395 327 l 1
 304 464 l 1
 293 463 281 462 268 462 c 0
 233 462 182 465 146 468 c 1
 144 302 l 1xec
 169 315 210 333 265 333 c 0
 367 333 452 269 452 166 c 0
 452 69 359 -8 241 -8 c 0
 151 -8 56 40 56 122 c 0
 56 159 80 192 120 192 c 0
 147 192 174 171 174 136 c 0
 174 115 163 103 163 85 c 0xf4
EndSplineSet
Layer: 2
SplineSet
146 468 m 9
 144 302 l 17xec
 169 315 210 333 265 333 c 0
 367 333 452 269 452 166 c 0
 452 69 359 -8 241 -8 c 0
 151 -8 56 40 56 122 c 0xf4
 56 157 77 185 110 191 c 0
 139 196 167 179 173 146 c 0xf4
 178 115 159 102 164 76 c 0
 169 50 200 34 227 34 c 0
 304 34 350 92 350 168 c 0
 350 250 297 285 238 285 c 3
 197 285 158 273 123 252 c 1
 100 270 l 1
 104 562 l 1
 162 556 231.099609375 552 283.900390625 552 c 0
 334.5 552 400.099609375 554 461.700195312 562 c 1
 469.700195312 548 l 1
 430.299804688 500 358 462 268.5 462 c 3
 233.299804688 462 182 465 146 468 c 9
160.508789062 682.451171875 m 1
 197.9375 709.266601562 l 1
 432.491210938 353.548828125 l 1
 395.0625 326.733398438 l 1
 160.508789062 682.451171875 l 1
EndSplineSet
EndChar

StartChar: five_tick.alt
Encoding: 57419 57419 243
Width: 0
VWidth: 0
Flags: W
HStem: -8 42<170.065 300.716> 265 48<163.32 311.74> 367 21G<287.792 334> 462 90<147.698 286>
VStem: 55 107<55.4176 149.251> 100 44<282 468> 288 46<367 463 553 687> 350 102<80.4733 226.166>
LayerCount: 4
Fore
SplineSet
162 79 m 0xfb
 162 45 197 34 227 34 c 0
 304 34 350 80 350 158 c 0
 350 234 297 265 238 265 c 0
 197 265 158 253 123 232 c 1
 100 250 l 1
 104 562 l 1
 162 556 231 552 284 552 c 0
 285 552 285 552 286 552 c 2
 285 687 l 1
 331 687 l 1
 332 553 l 1
 373 554 418 556 462 562 c 1
 470 548 l 1
 440 512 393 482 333 469 c 1
 334 367 l 1
 288 367 l 1
 287 463 l 1
 281 462 275 462 268 462 c 0
 233 462 182 465 146 468 c 1
 144 282 l 1xf7
 169 295 210 313 265 313 c 0
 367 313 452 253 452 156 c 0
 452 57 359 -8 241 -8 c 0
 151 -8 55 34 55 116 c 0
 55 153 79 186 119 186 c 0
 146 186 173 165 173 130 c 0
 173 109 162 97 162 79 c 0xfb
EndSplineSet
Layer: 2
SplineSet
146 468 m 9xf7
 144 282 l 1xf7
 169 295 210 313 265 313 c 0
 367 313 452 253 452 156 c 0
 452 57 359 -8 241 -8 c 0
 151 -8 55 34 55 116 c 0
 55 151 76 179 109 185 c 0
 138 190 166 173 172 140 c 0xfb
 177 109 158 96 163 70 c 0
 168 44 200 34 227 34 c 0
 304 34 350 80 350 158 c 0
 350 234 297 265 238 265 c 3
 197 265 158 253 123 232 c 1
 100 250 l 1
 104 562 l 1
 162 556 231.099609375 552 283.900390625 552 c 0
 334.5 552 400.099609375 554 461.700195312 562 c 1
 469.700195312 548 l 1
 430.299804688 500 358 462 268.5 462 c 3
 233.299804688 462 182 465 146 468 c 9xf7
285 687 m 1
 331 687 l 1
 334 367 l 1
 288 367 l 1
 285 687 l 1
EndSplineSet
LCarets2: 2 0 0
EndChar

StartChar: two_tick
Encoding: 57394 57394 244
Width: 0
VWidth: 0
Flags: W
HStem: -6 80<288.083 355 410 479.053> 0 21G<40 87> 56 54<139.487 237.793> 526 44<168.316 305.001>
VStem: 57 91<385.588 478.966> 333 114<355.588 493.148>
LayerCount: 4
Fore
SplineSet
339 213 m 1x9c
 384 220 l 1
 401 74 l 1
 448 76 492 88 528 115 c 1
 553 89 l 1
 516 28 465 -1 410 -7 c 1
 425 -137 l 1
 380 -144 l 1
 364 -6 l 1x9c
 289 5 211 56 148 56 c 0
 110 56 94 36 80 0 c 1
 40 0 l 1
 49 95 134 202 204 250 c 0
 305 326 333 373 333 428 c 0
 333 497 295 526 239 526 c 0
 183 526 148 497 148 470 c 0
 148 447 177 439 177 396 c 0
 177 367 156 344 121 344 c 0
 82 344 57 370 57 413 c 0
 57 477 127 570 251 570 c 0
 359 570 447 511 447 424 c 0
 447 333 370 300 296 255 c 0
 276 242 183 200 139 110 c 1x7c
 219 110 288 81 355 74 c 1
 339 213 l 1x9c
EndSplineSet
Layer: 2
SplineSet
338.78515625 213.24609375 m 5
 384.307617188 220.146484375 l 5
 425.21484375 -137.24609375 l 5
 379.692382812 -144.146484375 l 5
 338.78515625 213.24609375 l 5
552.767578125 88.9765625 m 5
 511.008789062 20.2939453125 452 -8 390 -8 c 4
 308 -8 218 56 148 56 c 4
 110 56 94 36 80 0 c 5
 40 0 l 5
 49.0247191011 94.7595505618 134 202 204 250 c 4
 305 326 333 373 333 428 c 4
 333 497 295 526 239 526 c 4
 183 526 148 497 148 470 c 4
 148 447 177 439 177 396 c 4
 177 367 156 344 121 344 c 4
 82 344 57 370 57 413 c 4
 57 477 127 570 251 570 c 4
 359 570 447 511 447 424 c 4
 447 333 370 300 296 255 c 4
 276 242 183 200 139 110 c 5
 229 110 306 73 380 73 c 4
 434 73 486.354492188 83.927734375 527.625976562 115.434570312 c 5
 552.767578125 88.9765625 l 5
EndSplineSet
LCarets2: 1 0
EndChar

StartChar: two_tick.alt
Encoding: 57395 57395 245
Width: 0
VWidth: 0
Flags: W
HStem: -6 80<288.029 364 411 479.231> 0 21G<40 87> 56 54<139.487 236.037> 526 44<168.316 305.001>
VStem: 57 91<385.588 478.966> 333 114<355.588 493.148> 366 46<-134 -3.65576 74 216>
LayerCount: 4
Fore
SplineSet
363 216 m 1x9c
 409 216 l 1
 410 74 l 1
 453 78 494 90 528 115 c 1
 553 89 l 1
 516 28 465 -1 411 -7 c 1
 412 -134 l 1
 366 -134 l 1
 365 -6 l 1x9a
 290 4 211 56 148 56 c 0
 110 56 94 36 80 0 c 1
 40 0 l 1
 49 95 134 202 204 250 c 0
 305 326 333 373 333 428 c 0
 333 497 295 526 239 526 c 0
 183 526 148 497 148 470 c 0
 148 447 177 439 177 396 c 0
 177 367 156 344 121 344 c 0
 82 344 57 370 57 413 c 0
 57 477 127 570 251 570 c 0
 359 570 447 511 447 424 c 0
 447 333 370 300 296 255 c 0
 276 242 183 200 139 110 c 1x7c
 223 110 295 78 364 74 c 1
 363 216 l 1x9c
EndSplineSet
Layer: 2
SplineSet
363 216 m 5
 409 216 l 5
 412 -134 l 5
 366 -134 l 5
 363 216 l 5
552.767578125 88.9765625 m 5
 511.008789062 20.2939453125 452 -8 390 -8 c 4
 308 -8 218 56 148 56 c 4
 110 56 94 36 80 0 c 5
 40 0 l 5
 49.0247191011 94.7595505618 134 202 204 250 c 4
 305 326 333 373 333 428 c 4
 333 497 295 526 239 526 c 4
 183 526 148 497 148 470 c 4
 148 447 177 439 177 396 c 4
 177 367 156 344 121 344 c 4
 82 344 57 370 57 413 c 4
 57 477 127 570 251 570 c 4
 359 570 447 511 447 424 c 4
 447 333 370 300 296 255 c 4
 276 242 183 200 139 110 c 5
 229 110 306 73 380 73 c 4
 434 73 486.354492188 83.927734375 527.625976562 115.434570312 c 5
 552.767578125 88.9765625 l 5
EndSplineSet
LCarets2: 2 0 0
EndChar

StartChar: stop
Encoding: 57371 57371 249
Width: 0
VWidth: 30
Flags: W
AnchorPoint: "chain" 0 760 basemark 0
AnchorPoint: "chain" 0 760 mark 0
LayerCount: 4
Fore
SplineSet
78 416 m 1
 217 277 l 1
 78 138 l 1
 111 105 l 1
 250 244 l 1
 389 105 l 1
 422 138 l 1
 283 277 l 1
 422 416 l 1
 389 449 l 1
 250 310 l 1
 111 449 l 1
 78 416 l 1
0 530 m 1
 500 530 l 1
 500 30 l 1
 0 30 l 1
 0 530 l 1
EndSplineSet
LCarets2: 5 0 0 0 0 0
EndChar

StartChar: four_tick
Encoding: 57410 57410 250
Width: 0
VWidth: 0
Flags: W
HStem: 0 40<201 272.816 386.701 423> 166 46<84 286 378 522 568 685>
VStem: 286 92<53.0857 166 212 324> 522 46<11 166 212 370>
LayerCount: 4
Fore
SplineSet
378 166 m 1
 378 96 l 2
 378 52 402 40 423 40 c 1
 423 0 l 1
 201 0 l 1
 201 40 l 1
 221 40 l 2
 249 40 286 54 286 96 c 2
 286 166 l 1
 24 166 l 1
 24 206 l 1
 94 322 135 430 169 562 c 1
 302 562 l 1
 238 432 186 364 84 212 c 1
 286 212 l 1
 286 324 l 1
 378 422 l 1
 378 212 l 1
 522 212 l 1
 522 370 l 1
 568 370 l 1
 568 212 l 1
 685 212 l 1
 685 166 l 1
 568 166 l 1
 568 11 l 1
 522 11 l 1
 522 166 l 1
 378 166 l 1
EndSplineSet
Layer: 2
SplineSet
522 370 m 1
 568 370 l 1
 568 11 l 1
 522 11 l 1
 522 370 l 1
378 166 m 1
 378 96 l 2
 378 52 402 40 423 40 c 1
 423 0 l 1
 201 0 l 1
 201 40 l 1
 221 40 l 2
 249 40 286 54 286 96 c 2
 286 166 l 1
 24 166 l 1
 24 206 l 1
 94 322 135 430 169 562 c 1
 302 562 l 1
 238 432 186 364 84 212 c 1
 286 212 l 1
 286 324 l 1
 378 422 l 1
 378 212 l 1
 685 212 l 1
 685 166 l 1
 378 166 l 1
EndSplineSet
EndChar

StartChar: parenleft_p_parenright
Encoding: 57366 57366 253
Width: 0
VWidth: 0
Flags: W
VStem: -102 50<137.217 361.678> 552 50<138.322 362.783>
LayerCount: 4
Fore
SplineSet
552 250 m 4
 552 352 508 430 448 484 c 5
 470 506 l 5
 552 448 602 348 602 250 c 4
 602 152 552 52 470 -6 c 5
 448 16 l 5
 500 64 552 148 552 250 c 4
-52 250 m 4
 -52 148 -8 70 52 16 c 5
 30 -6 l 5
 -52 52 -102 152 -102 250 c 4
 -102 348 -52 448 30 506 c 5
 52 484 l 5
 0 436 -52 352 -52 250 c 4
EndSplineSet
Refer: 26 43 N 1 0 0 1 0 0 2
EndChar

StartChar: parenleft_m_parenright
Encoding: 57367 57367 254
Width: 0
VWidth: 2000
Flags: W
VStem: -82 50<144.657 354.491> 533 50<145.509 355.343>
LayerCount: 4
Fore
SplineSet
533 250 m 0
 533 342 494 412 440 461 c 1
 462 481 l 1
 536 429 583 338 583 250 c 0
 583 162 536 71 462 19 c 1
 440 39 l 1
 487 82 533 158 533 250 c 0
-32 250 m 0
 -32 158 7 88 61 39 c 1
 39 19 l 1
 -35 71 -82 162 -82 250 c 0
 -82 338 -35 429 39 481 c 1
 61 461 l 1
 14 418 -32 342 -32 250 c 0
EndSplineSet
Refer: 18 45 N 1 0 0 1 0 0 2
EndChar

StartChar: bracketleft_p_bracketright
Encoding: 57382 57382 255
Width: 0
VWidth: 0
Flags: W
HStem: 28 48<-63 9 491 563> 448 48<-63 9 491 563>
VStem: -111 120<28 76 448 496> -111 48<76 448> 491 120<28 76 448 496> 563 48<76 448>
LayerCount: 4
Fore
SplineSet
563 448 m 1xc4
 491 448 l 1
 491 496 l 1
 611 496 l 1
 611 28 l 1
 491 28 l 1
 491 76 l 1xc8
 563 76 l 1
 563 448 l 1xc4
-63 76 m 1xd0
 9 76 l 1
 9 28 l 1
 -111 28 l 1
 -111 496 l 1
 9 496 l 1
 9 448 l 1xe0
 -63 448 l 1
 -63 76 l 1xd0
EndSplineSet
Refer: 26 43 N 1 0 0 1 0 0 2
EndChar

StartChar: bracketleft_m_bracketright
Encoding: 57383 57383 256
Width: 0
VWidth: 2000
Flags: W
HStem: 33 48<-23 49 451 523> 413 48<-23 49 451 523>
VStem: -71 120<33 81 413 461> -71 48<81 413> 451 120<33 81 413 461> 523 48<81 413>
LayerCount: 4
Fore
SplineSet
523 413 m 5xc4
 451 413 l 5
 451 461 l 5
 571 461 l 5
 571 33 l 5
 451 33 l 5
 451 81 l 5xc8
 523 81 l 5
 523 413 l 5xc4
-23 81 m 5xd0
 49 81 l 5
 49 33 l 5
 -71 33 l 5
 -71 461 l 5
 49 461 l 5
 49 413 l 5xe0
 -23 413 l 5
 -23 81 l 5xd0
EndSplineSet
Refer: 18 45 N 1 0 0 1 0 0 2
EndChar

StartChar: six_tick.alt
Encoding: 57427 57427 257
Width: 0
VWidth: 0
Flags: W
HStem: -8 44<184.98 306.233> 270 45<194.868 318.964> 367 21G<359.639 410> 525 42<362.064 491>
VStem: 46 102<122.097 335.454> 348 102<84.162 237.903>
LayerCount: 4
Fore
SplineSet
348 164 m 0
 348 225 322 270 260 270 c 0
 192 270 148 212 148 144 c 0
 148 82 182 36 245 36 c 0
 316 36 348 97 348 164 c 0
257 -8 m 0
 106 -8 46 129 46 222 c 0
 46 376 145 488 297 538 c 1
 245 662 l 1
 287 679 l 1
 341 550 l 1
 387 561 438 567 491 567 c 1
 491 525 l 1
 450 524 404 518 360 504 c 1
 410 384 l 1
 368 367 l 1
 317 489 l 1
 223 449 145 376 145 264 c 1
 172 292 224 315 279 315 c 0
 389 315 450 239 450 161 c 0
 450 68 365 -8 257 -8 c 0
EndSplineSet
Layer: 2
SplineSet
244.84765625 662.170898438 m 1
 287.497070312 679.403320312 l 1
 410.15234375 383.829101562 l 1
 367.502929688 366.596679688 l 1
 244.84765625 662.170898438 l 1
257 -8 m 0
 106 -8 46 129 46 222 c 0
 46 435 236 567 491 567 c 1
 491 525 l 1
 345 523 145 444 145 264 c 1
 172 292 224 315 279 315 c 0
 389 315 450 239 450 161 c 0
 450 68 365 -8 257 -8 c 0
348 164 m 0
 348 225 322 270 260 270 c 0
 192 270 148 212 148 144 c 0
 148 82 182 36 245 36 c 0
 316 36 348 97 348 164 c 0
EndSplineSet
LCarets2: 2 0 0
EndChar

StartChar: five_slash
Encoding: 57416 57416 258
Width: 0
VWidth: 0
Flags: W
HStem: -8 42<220 292.353> 312 46<157.862 250.991> 462 90<146.889 306.478>
VStem: 45 92<70.1129 169.3> 100 44<336 470> 359 93<98.6757 261.765>
LayerCount: 4
Fore
SplineSet
178 -114 m 1xec
 134 -103 l 1
 164 3 l 1
 90 26 45 82 45 131 c 0
 45 173 65 204 104 204 c 0
 133 204 156 182 156 150 c 0
 156 120 137 110 137 85 c 0xf4
 137 64 152 50 175 42 c 1
 251 311 l 1
 251 311 238 312 232 312 c 0
 191 312 154 298 126 272 c 1
 100 286 l 1
 104 562 l 1
 162 556 212 552 260 552 c 0
 283 552 319 553 319 553 c 1
 357 687 l 1
 401 676 l 1
 367 555 l 1
 367 555 417 559 439 562 c 1
 449 548 l 1
 428 514 391 489 344 475 c 1
 310 351 l 1
 388 332 452 272 452 184 c 0
 452 71 357 -8 239 -8 c 0
 229 -8 209 -6 209 -6 c 1
 178 -114 l 1xec
220 34 m 1
 302 34 359 92 359 186 c 0
 359 245 331 280 295 298 c 1
 220 34 l 1
264 358 m 1
 294 465 l 1
 294 465 269 462 246 462 c 0
 214 462 182 466 146 470 c 1
 144 336 l 1xec
 150 333 l 1
 177 346 209 358 253 358 c 0
 257 358 263 358 264 358 c 1
EndSplineSet
Layer: 2
SplineSet
178.385742188 -114.178710938 m 5
 134.083007812 -103.340820312 l 5
 356.831054688 687.100585938 l 5
 401.133789062 676.262695312 l 5
 178.385742188 -114.178710938 l 5
253 358 m 4
 355 358 452 292 452 184 c 4
 452 71 357 -8 239 -8 c 4
 121 -8 45 67 45 131 c 4
 45 173 73 204 112 204 c 4
 141 204 166 183 166 149 c 4
 166 118 145 108 145 82 c 4
 145 55 175 34 224 34 c 4
 296 34 354 94 354 186 c 4
 354 276 289 312 230 312 c 7
 189 312 154 298 126 272 c 5
 100 286 l 13
 104 562 l 5
 162 556 208 552 256 552 c 4
 302 552 368 554 424 562 c 5
 434 548 l 5
 400 492 334 462 242 462 c 7
 210 462 182 466 146 470 c 13
 144 336 l 21
 150 333 l 21
 177 346 209 358 253 358 c 4
EndSplineSet
Layer: 3
SplineSet
178.385742188 -114.178710938 m 1
 134.083007812 -103.340820312 l 1
 356.831054688 687.100585938 l 1
 401.133789062 676.262695312 l 1
 178.385742188 -114.178710938 l 1
253 358 m 0
 355 358 452 292 452 184 c 0
 452 71 357 -8 239 -8 c 0
 121 -8 45 67 45 131 c 0
 45 173 65 204 104 204 c 0
 133 204 156.200195312 182.360351562 156.200195312 149.719726562 c 0
 156.200195312 119.959960938 137.299804688 110.360351562 137.299804688 85.400390625 c 0
 137.299804688 50.48046875 177 34 226 34 c 0
 300 34 359 94 359 186 c 0
 359 276 293 312 232 312 c 3
 191 312 154 298 126 272 c 1
 100 286 l 9
 104 562 l 1
 162 556 212 552 260 552 c 0
 306 552 383 554 439 562 c 1
 449 548 l 1
 415 492 338 462 246 462 c 3
 214 462 182 466 146 470 c 9
 144 336 l 17
 150 333 l 17
 177 346 209 358 253 358 c 0
EndSplineSet
EndChar

StartChar: six_slash
Encoding: 57424 57424 259
Width: 0
VWidth: 0
Flags: W
HStem: -8 44<225.011 307.212> 310 45<189.912 261> 527 43<209.036 320.562>
VStem: 47 87<299 397.031> 360 90<92.8332 267.22>
LayerCount: 4
Fore
SplineSet
188 -114 m 1
 144 -103 l 1
 176 8 l 1
 85 48 47 156 47 268 c 0
 47 462 165 570 288 570 c 0
 310 570 333 565 333 565 c 1
 367 687 l 1
 411 676 l 1
 376 550 l 1
 404 535 423 512 423 480 c 0
 423 452 402 423 363 423 c 0
 355 423 348 425 341 428 c 1
 319 350 l 1
 401 331 450 264 450 181 c 0
 450 65 365 -8 258 -8 c 0
 240 -8 219 -5 219 -5 c 1
 188 -114 l 1
188 52 m 1
 261 310 l 1
 191 310 141 265 141 166 c 0
 141 110 158 71 188 52 c 1
231 37 m 1
 231 37 240 36 244 36 c 0
 317 36 360 100 360 184 c 0
 360 238 341 280 305 299 c 1
 231 37 l 1
273 355 m 1
 311 491 l 1
 309 513 301 527 272 527 c 0
 180 527 137 417 134 299 c 1
 160 329 214 355 273 355 c 1
EndSplineSet
Layer: 2
SplineSet
422.864234529 480.101674864 m 4xf8
 422.864234529 451.635394151 402.470794907 423.208153346 363.485465028 423.208153346 c 4
 336.631509888 423.208153346 314.918144307 442.155769631 312.893554688 473.76171875 c 4xf8
 310.785679848 506.667836751 308 527 272 527 c 4
 180 527 141 417 138 299 c 5
 163 328 216 355 270 355 c 4
 381 355 450 279 450 181 c 4xf4
 450 65 365 -8 258 -8 c 4
 107 -8 47 127 47 268 c 4
 47 462 165 570 288 570 c 4
 355.404296875 570 422.864234529 539 422.864234529 480.101674864 c 4xf8
352 184 m 4xf4
 352 259 319 310 256 310 c 4
 195 310 145 264 145 166 c 4
 145 81 183 36 244 36 c 4
 312 36 352 100 352 184 c 4xf4
188.385742188 -114.178710938 m 5
 144.083007812 -103.340820312 l 5
 366.831054688 687.100585938 l 5
 411.133789062 676.262695312 l 5
 188.385742188 -114.178710938 l 5
EndSplineSet
Layer: 3
SplineSet
422.864234529 480.101674864 m 0xf8
 422.864234529 451.635394151 402.470794907 423.208153346 363.485465028 423.208153346 c 0
 336.631509888 423.208153346 314.918144307 442.155769631 312.893554688 473.76171875 c 0xf8
 310.785679848 506.667836751 308 527 272 527 c 0
 180 527 137 417 134 299 c 1
 159 328 216 355 270 355 c 0
 381 355 450 279 450 181 c 0xf4
 450 65 365 -8 258 -8 c 0
 107 -8 47 127 47 268 c 0
 47 462 165 570 288 570 c 0
 355.404296875 570 422.864234529 539 422.864234529 480.101674864 c 0xf8
360 184 m 0xf4
 360 259 324 310 256 310 c 0
 192 310 141 264 141 166 c 0
 141 81 180 36 244 36 c 0
 317 36 360 100 360 184 c 0xf4
188.385742188 -114.178710938 m 1
 144.083007812 -103.340820312 l 1
 366.831054688 687.100585938 l 1
 411.133789062 676.262695312 l 1
 188.385742188 -114.178710938 l 1
EndSplineSet
EndChar

StartChar: nine_slash
Encoding: 57440 57440 260
Width: 0
VWidth: 0
Flags: W
HStem: -8 42<184.612 289.569> 211 46<243 307.875> 526 44<189.814 281.488>
VStem: 51 90<296.286 466.641> 368 86<159.488 269>
LayerCount: 4
Fore
SplineSet
121 10 m 1
 87 25 64 44 64 83 c 0
 64 109 83 137 119 137 c 0
 132 137 145 132 155 124 c 1
 182 216 l 1
 100 232 51 293 51 379 c 0
 51 483 134 570 247 570 c 0
 266 570 288 566 288 566 c 1
 324 685 l 1
 368 674 l 1
 331 552 l 1
 412 513 454 416 454 296 c 0
 454 96 343 -8 224 -8 c 0
 203 -8 183 -6 164 -3 c 1
 131 -113 l 1
 87 -101 l 1
 121 10 l 1
183 58 m 1
 188 43 203 34 224 34 c 0
 344 34 368 189 368 269 c 1
 336 237 286 211 229 211 c 1
 183 58 l 1
243 257 m 1
 309 257 360 313 360 387 c 0
 360 444 344 483 317 505 c 1
 243 257 l 1
275 524 m 1
 275 524 265 526 254 526 c 0
 180 526 141 466 141 385 c 0
 141 322 160 282 198 266 c 1
 275 524 l 1
EndSplineSet
Layer: 2
SplineSet
131.407226562 -112.560546875 m 1
 87.30078125 -100.951171875 l 1
 323.809570312 685.482421875 l 1
 367.916015625 673.873046875 l 1
 131.407226562 -112.560546875 l 1
68.9267578125 57.560546875 m 0
 58.7177734375 87.2109375 64.44921875 121.177734375 100.586914062 133.62109375 c 0
 131.165039062 144.150390625 162.754882812 128.216796875 174.560546875 93.931640625 c 0
 178.708007812 81.8876953125 178.510742188 70.41796875 182.33984375 59.298828125 c 0
 187.763671875 43.546875 202 34 224 34 c 3
 344 34 368 189 368 269 c 1
 336 237 286 211 230 211 c 0
 120 211 51 277 51 379 c 0xf4
 51 483 134 570 247 570 c 0
 382 570 454 452 454 296 c 0
 454 96 343 -8 224 -8 c 3
 148 -8 83.158203125 16.23046875 68.9267578125 57.560546875 c 0
242 257 m 0
 309 257 360 313 360 387 c 3
 360 480 316 526 254 526 c 0
 180 526 141 466 141 385 c 0
 141 301 176 257 242 257 c 0
EndSplineSet
EndChar

StartChar: three_slash
Encoding: 57400 57400 261
Width: 0
VWidth: 0
Flags: W
HStem: -8 42<176.414 304.29> 365 21G<123.5 156> 528 42<175.343 288.902>
VStem: 78 83<407.431 494.162> 353 99<80.1971 210.512> 359 83<360.454 493.808>
LayerCount: 4
Fore
SplineSet
103.771484375 -104.998046875 m 1xf8
 60.3330078125 -91.095703125 l 1
 104.014562397 30.6480194766 l 1
 76.6152153522 49.9202420487 58.1310812621 76.416467181 58.1310812621 110.173222279 c 0
 58.1310812621 144.217784362 81.8451669223 177.598124299 121.94939809 177.598124299 c 0
 132.882665073 177.598124299 143.885370771 174.018108089 153.050384475 167.314481495 c 1
 158.401772658 182.229196064 187 262 187 262 c 1
 187 301 l 1
 201.217990295 301.561160605 l 1
 281.292907845 524.735876852 l 1
 281.292907845 524.735876852 265 528 245 528 c 0
 190 528 161 503 161 486 c 0
 161 463 193 461 193 417 c 0
 193 390 174 365 138 365 c 0
 109 365 78 390 78 434 c 0
 78 496 150 570 259 570 c 0
 278 570 296.53708228 567.222518211 296.53708228 567.222518211 c 1
 337.676757812 681.881835938 l 1
 381.115234375 667.98046875 l 1
 340.820678083 555.676418954 l 1
 403.716120301 531.651640115 442 480.210221953 442 423 c 0xf4
 442 343 381 308 331 289 c 1
 331 278 l 1
 398 256 452 211 452 142 c 0
 452 53 371 -8 239 -8 c 0
 208.425105344 -8 174.7252982 -2.23924309347 144.78455172 9.30854888359 c 1
 103.771484375 -104.998046875 l 1xf8
168.903640673 76.5303181756 m 1
 169.792534286 46.0696805696 196.702378944 34 232 34 c 0
 303 34 353 79 353 148 c 0xf8
 353 199.956414466 318.902971461 248.28548547 235.261065177 261.473600634 c 1
 168.903640673 76.5303181756 l 1
252.426407488 309.314739364 m 1
 319.898390434 326.597613983 359 369.380829915 359 426 c 0xf4
 359 465.796022694 345.377147152 491.702077779 323.515520672 507.445604711 c 1
 252.426407488 309.314739364 l 1
EndSplineSet
Layer: 2
SplineSet
138.385742188 -114.178710938 m 5
 94.0830078125 -103.340820312 l 5
 316.831054688 687.100585938 l 5
 361.133789062 676.262695312 l 5
 138.385742188 -114.178710938 l 5
121.94939809 177.598124299 m 4
 148.528399149 177.598124299 175.517773493 156.440719508 175.517773493 120.683092599 c 4
 175.517773493 104.527855239 168.880953871 92.5271059704 168.880953871 78.0981661529 c 4
 168.880953871 46.483111266 196.102932729 34 232 34 c 4
 296 34 347 79 347 148 c 4
 347 209 301 265 187 265 c 5
 187 301 l 5
 291 303 350 356 350 422 c 4
 350 492 303 528 243 528 c 4
 189 528 161 503 161 486 c 4
 161 463 193 461 193 417 c 4
 193 390 174 365 138 365 c 4
 109 365 78 390 78 434 c 4
 78 496 150 570 259 570 c 4
 369 570 439 502 439 423 c 4
 439 343 381 308 331 289 c 5
 331 278 l 5
 398 256 452 211 452 142 c 4
 452 53 371 -8 239 -8 c 4
 159.207122277 -8 58.1310812621 31.235380321 58.1310812621 110.173222279 c 4
 58.1310812621 144.217784362 81.8451669223 177.598124299 121.94939809 177.598124299 c 4
EndSplineSet
Layer: 3
SplineSet
103.771484375 -104.998046875 m 5
 60.3330078125 -91.095703125 l 5
 337.676757812 681.881835938 l 5
 381.115234375 667.98046875 l 5
 103.771484375 -104.998046875 l 5
121.94939809 177.598124299 m 4
 148.528399149 177.598124299 175.517773493 156.440719508 175.517773493 120.683092599 c 4
 175.517773493 104.527855239 168.880953871 92.5271059704 168.880953871 78.0981661529 c 4
 168.880953871 46.483111266 196.102932729 34 232 34 c 4
 303 34 353 79 353 148 c 4
 353 209 306 265 187 265 c 5
 187 301 l 5
 294 303 359 353 359 426 c 4
 359 503 308 528 245 528 c 4
 190 528 161 503 161 486 c 4
 161 463 193 461 193 417 c 4
 193 390 174 365 138 365 c 4
 109 365 78 390 78 434 c 4
 78 496 150 570 259 570 c 4
 369 570 442 502 442 423 c 4
 442 343 381 308 331 289 c 5
 331 278 l 5
 398 256 452 211 452 142 c 4
 452 53 371 -8 239 -8 c 4
 159.207122277 -8 58.1310812621 31.235380321 58.1310812621 110.173222279 c 4
 58.1310812621 144.217784362 81.8451669223 177.598124299 121.94939809 177.598124299 c 4
EndSplineSet
EndChar

StartChar: two_slash
Encoding: 57392 57392 262
Width: 0
VWidth: 0
Flags: W
HStem: -8 93<258.508 385.301> 0 21G<40 87> 56 44<133.218 161> 526 44<177.413 275>
VStem: 67 86<385.103 478.966> 370 87<348.099 486.046> 416 36<122.28 158>
LayerCount: 4
Fore
SplineSet
452 158 m 1x9a
 452 72 416 -8 336 -8 c 0x9a
 287 -8 245 22 204 41 c 1
 165 -117 l 1
 121 -108 l 1
 161 55 l 1
 156 56 152 56 148 56 c 0
 110 56 94 36 80 0 c 1
 40 0 l 1
 48 84 133 181 203 229 c 1
 275 525 l 1
 268 526 261 526 253 526 c 0
 195 526 153 497 153 470 c 0
 153 447 182 439 182 396 c 0
 182 367 162 344 128 344 c 0
 91 344 67 370 67 413 c 0
 67 477 137 570 261 570 c 0
 270 570 278 570 286 569 c 1
 316 690 l 1
 360 681 l 1
 331 560 l 1
 405 539 457 485 457 414 c 0x7c
 457 318 370 280 296 235 c 0
 288 230 268 219 244 202 c 1
 217 95 l 1
 254 91 283 85 328 85 c 0
 378 85 402 114 416 164 c 1
 452 158 l 1x9a
260 271 m 1
 328 319 370 350 370 418 c 0x1c
 370 464 349 494 319 511 c 1
 260 271 l 1
186 159 m 1
 166 142 146 122 132 100 c 1x38
 146 100 159 100 171 99 c 1
 186 159 l 1
EndSplineSet
Layer: 2
SplineSet
186.643554688 -120.430664062 m 5
 141.564453125 -113.495117188 l 5
 294.573242188 693.352539062 l 5
 339.65234375 686.416992188 l 5
 186.643554688 -120.430664062 l 5
452 158 m 5
 452 72 416 -8 336 -8 c 4
 264 -8 208 56 148 56 c 4
 110 56 94 36 80 0 c 5
 40 0 l 5
 48 84 134 182 204 230 c 4
 305 306 364 358 364 418 c 4
 364 492 305 526 249 526 c 4
 193 526 158 497 158 470 c 4
 158 447 187 439 187 396 c 4
 187 367 166 344 131 344 c 4
 92 344 67 370 67 413 c 4
 67 477 137 570 261 570 c 4
 369 570 457 506 457 414 c 4
 457 318 370 280 296 235 c 4
 276 222 178 170 132 100 c 5
 222 100 254 90 328 90 c 4
 378 90 402 114 416 164 c 5
 452 158 l 5
EndSplineSet
Layer: 3
SplineSet
165.422851562 -117.048828125 m 5
 120.768554688 -107.763671875 l 5
 315.793945312 689.970703125 l 5
 360.448242188 680.685546875 l 5
 165.422851562 -117.048828125 l 5
452 158 m 5
 452 72 416 -8 336 -8 c 4
 264 -8 208 56 148 56 c 4
 110 56 94 36 80 0 c 5
 40 0 l 5
 48 84 134 182 204 230 c 4
 305 306 370 333 370 418 c 4
 370 492 316 526 253 526 c 4
 195 526 153 497 153 470 c 4
 153 447 182 439 182 396 c 4
 182 367 162 344 128 344 c 4
 91 344 67 370 67 413 c 4
 67 477 137 570 261 570 c 4
 369 570 457 506 457 414 c 4
 457 318 370 280 296 235 c 4
 276 222 178 170 132 100 c 5
 222 100 254 85 328 85 c 4
 378 85 402 114 416 164 c 5
 452 158 l 5
EndSplineSet
EndChar

StartChar: four_slash
Encoding: 57408 57408 263
Width: 0
VWidth: 0
Flags: W
HStem: 0 40<206 277.816 388.029 453> 166 46<78 101 199 291 373 470>
VStem: 291 82<54.0377 166 212 323>
LayerCount: 4
Fore
SplineSet
373 166 m 1
 373 96 l 2
 373 52 414 40 453 40 c 1
 453 0 l 1
 206 0 l 1
 206 40 l 1
 226 40 l 2
 254 40 291 54 291 96 c 2
 291 166 l 1
 160 166 l 1
 -13 -42 l 1
 -49 -14 l 1
 101 166 l 1
 24 166 l 1
 24 206 l 1
 94 322 135 430 169 562 c 1
 294 562 l 1
 230 432 180 364 78 212 c 1
 139 212 l 1
 476 617 l 1
 512 589 l 1
 373 422 l 1
 373 212 l 1
 470 212 l 1
 470 166 l 1
 373 166 l 1
199 212 m 1
 291 212 l 1
 291 323 l 1
 199 212 l 1
EndSplineSet
Layer: 2
SplineSet
-1.064453125 -47.4677734375 m 5
 -37.609375 -20.181640625 l 5
 476.28125 620.389648438 l 5
 512.826171875 593.103515625 l 5
 -1.064453125 -47.4677734375 l 5
373 166 m 5
 373 96 l 6
 373 52 414 40 453 40 c 5
 453 0 l 5
 201 0 l 5
 201 40 l 5
 221 40 l 6
 249 40 286 54 286 96 c 6
 286 166 l 5
 24 166 l 5
 24 206 l 5
 94 322 135 430 169 562 c 5
 302 562 l 5
 238 432 186 364 84 212 c 5
 286 212 l 5
 286 324 l 5
 373 432 l 5
 373 212 l 5
 470 212 l 5
 470 166 l 5
 373 166 l 5
EndSplineSet
Layer: 3
SplineSet
-12.6474609375 -42.03515625 m 1
 -48.7109375 -14.115234375 l 1
 476.28125 617.389648438 l 1
 512.344726562 589.469726562 l 1
 -12.6474609375 -42.03515625 l 1
373 166 m 1
 373 96 l 2
 373 52 414 40 453 40 c 1
 453 0 l 1
 206 0 l 1
 206 40 l 1
 226 40 l 2
 254 40 291 54 291 96 c 2
 291 166 l 1
 24 166 l 1
 24 206 l 1
 94 322 135 430 169 562 c 1
 294 562 l 1
 230 432 180 364 78 212 c 1
 291 212 l 1
 291 324 l 1
 373 432 l 1
 373 212 l 1
 470 212 l 1
 470 166 l 1
 373 166 l 1
EndSplineSet
EndChar

StartChar: seven_slash
Encoding: 57432 57432 264
Width: 0
VWidth: 0
Flags: W
HStem: 476 94<155.319 283.634>
VStem: 56 38<378 440.61> 66 40<526.009 562> 156 124<12.9183 146.861> 402 44<530.216 562>
LayerCount: 4
Fore
SplineSet
-6 269 m 1xb8
 0 314 l 1
 252 271 l 1
 288 322 328 377 364 438 c 1
 320 444 220 476 178 476 c 0
 148 476 104 468 94 378 c 1
 56 378 l 1xd8
 66 562 l 1
 106 562 l 1
 106 538 106 526 120 526 c 0
 138 526 160 570 218 570 c 0
 288 570 298 516 346 516 c 0
 374 516 394 536 402 562 c 1
 446 562 l 1
 421 447 369 354 329 258 c 1
 532 223 l 1
 526 178 l 1
 312 214 l 1
 296 169 284 122 280 70 c 0
 276 16 246 -6 216 -6 c 0
 186 -6 156 18 156 60 c 0
 156 114 185 169 224 229 c 1
 -6 269 l 1xb8
EndSplineSet
Layer: 2
SplineSet
106 562 m 1
 106 538 106 526 120 526 c 3
 138 526 160 570 218 570 c 0
 288 570 298 516 346 516 c 0
 374 516 394 536 402 562 c 1
 446 562 l 1
 406 376 294 250 280 70 c 0
 276 16 246 -6 216 -6 c 0
 186 -6 156 18 156 60 c 0
 156 170 274 284 364 438 c 1
 320 444 220 476 178 476 c 3
 148 476 104.499040833 467.991778569 94 378 c 1
 56 378 l 1
 66 562 l 1
 106 562 l 1
-6.146484375 268.809570312 m 1
 0 314 l 1
 532.146484375 223.190429688 l 1
 526 178 l 1
 -6.146484375 268.809570312 l 1
EndSplineSet
EndChar

StartChar: parenleft_X_parenright
Encoding: 57365 57365 265
Width: 0
VWidth: -30
Flags: W
HStem: 268.55 86.7002<105.5 182.494 317.506 394.5> 380.2 83.5996<211.781 288.219> 482.75 86.7002<105.5 184.093 315.907 394.5>
VStem: -92 50<314.657 524.491> 100.4 86.6992<273.65 354.438 487.713 566.05> 208.2 83.5996<381.177 459.414> 312.9 86.6992<273.65 354.438 487.713 566.05> 543 50<315.509 525.343>
LayerCount: 4
Fore
SplineSet
543 420 m 4
 543 512 504 582 450 631 c 5
 472 651 l 5
 546 599 593 508 593 420 c 4
 593 332 546 241 472 189 c 5
 450 209 l 5
 497 252 543 328 543 420 c 4
-42 420 m 4
 -42 328 -3 258 51 209 c 5
 29 189 l 5
 -45 241 -92 332 -92 420 c 4
 -92 508 -45 599 29 651 c 5
 51 631 l 5
 4 588 -42 512 -42 420 c 4
EndSplineSet
Refer: 241 88 N 1 0 0 1 0 0 2
EndChar

StartChar: bracketleft_X_bracketright
Encoding: 57381 57381 266
Width: 0
VWidth: -30
Flags: W
HStem: 203 48<-23 49 451 523> 268.55 86.7002<105.5 182.494 317.506 394.5> 380.2 83.5996<211.781 288.219> 482.75 86.7002<105.5 184.093 315.907 394.5> 583 48<-23 49 451 523>
VStem: -71 120<203 251 583 631> -71 48<251 583> 100.4 86.6992<273.65 354.438 487.713 566.05> 208.2 83.5996<381.177 459.414> 312.9 86.6992<273.65 354.438 487.713 566.05> 451 120<203 251 583 631> 523 48<251 583>
LayerCount: 4
Fore
SplineSet
523 583 m 1xf9d0
 451 583 l 1
 451 631 l 1
 571 631 l 1
 571 203 l 1
 451 203 l 1
 451 251 l 1xf9e0
 523 251 l 1
 523 583 l 1xf9d0
-23 251 m 1xfbc0
 49 251 l 1
 49 203 l 1
 -71 203 l 1
 -71 631 l 1
 49 631 l 1
 49 583 l 1xfdc0
 -23 583 l 1
 -23 251 l 1xfbc0
EndSplineSet
Refer: 241 88 N 1 0 0 1 0 0 2
EndChar

StartChar: i_two_slash
Encoding: 57616 57616 269
Width: 0
VWidth: 0
Flags: W
HStem: -11 91<220.834 341.238> 60 47<112 138.988> 524 44<199.043 305.489>
VStem: 87 95<386.22 480.258> 378 35<123.487 151> 385 83<354.513 484.048>
LayerCount: 4
Back
SplineSet
122 114 m 5
 203 110 221 87 292 87 c 4
 339 87 362 110 378 158 c 5
 413 151 l 5
 410 66 373 -11 296 -11 c 4
 219 -11 167 60 102 60 c 4
 67 60 51 41 36 6 c 5
 -4 7 l 5
 17 92 118 182 194 224 c 4
 314 297 356 347 356 432 c 4
 356 493 323 524 267 524 c 4
 221 524 187 500 187 471 c 4
 187 453 205 441 205 411 c 4
 205 375 182 350 147 350 c 4
 109 350 87 375 87 411 c 4
 87 485 166 568 277 568 c 4
 386 568 468 497 468 409 c 4
 468 302 368 259 286 219 c 4
 264 208 185 182 122 114 c 5
EndSplineSet
Fore
SplineSet
133 -109 m 1xb8
 89 -96 l 1
 139 53 l 1
 139 53 123 60 102 60 c 0
 67 60 51 41 36 6 c 1
 -4 7 l 1
 18 94 123 181 198 227 c 1
 298 522 l 1
 298 522 284 524 270 524 c 0
 215 524 182 500 182 471 c 0
 182 453 199 441 199 411 c 0
 199 375 177 350 144 350 c 0
 108 350 87 375 87 411 c 0
 87 485 166 568 277 568 c 0
 297 568 313 565 313 565 c 1
 353 682 l 1
 396 669 l 1
 357 554 l 1
 424 529 468 474 468 409 c 0x74
 468 282 321 240 236 196 c 1
 201 92 l 1
 224 86 246 80 282 80 c 0
 329 80 362 110 378 158 c 1
 413 151 l 1
 410 66 373 -11 296 -11 c 0
 252 -11 216 13 181 33 c 1
 133 -109 l 1xb8
259 264 m 1
 347 321 385 359 385 429 c 0
 385 465 368 491 341 507 c 1
 259 264 l 1
156 102 m 1
 176 161 l 1
 154 146 132 128 112 107 c 1
 136 106 156 102 156 102 c 1
EndSplineSet
Layer: 2
SplineSet
132.541015625 -108.9609375 m 5
 88.865234375 -95.818359375 l 5
 352.67578125 681.8828125 l 5
 396.3515625 668.740234375 l 5
 132.541015625 -108.9609375 l 5
112 107 m 5
 193 103 211 80 282 80 c 4
 329 80 362 110 378 158 c 5
 413 151 l 5
 410 66 373 -11 296 -11 c 4
 219 -11 167 60 102 60 c 4
 67 60 51 41 36 6 c 5
 -4 7 l 5
 17 92 119.797675996 178.899943322 194 224 c 4
 329.041816615 306.078205298 385 344 385 429 c 4
 385 493 331 524 270 524 c 4
 215 524 182 500 182 471 c 4
 182 453 199.099609375 441 199.099609375 411 c 4
 199.099609375 375 177.25 350 144 350 c 4
 107.900390625 350 87 375 87 411 c 4
 87 485 166 568 277 568 c 4
 386 568 468 497 468 409 c 4
 468 302 368 259 286 219 c 4
 264 208 175 175 112 107 c 5
EndSplineSet
EndChar

StartChar: i_two_slash.alt
Encoding: 57617 57617 270
Width: 0
VWidth: 0
Flags: W
HStem: -11 98<220.22 349.681> 60 54<122 168.805> 524 44<204.236 330.79>
VStem: 88 99<393.258 481.542> 356 112<344.865 482.849> 378 35<123.487 151>
LayerCount: 4
Fore
SplineSet
122 114 m 1x78
 203 110 221 87 292 87 c 0
 339 87 362 110 378 158 c 1
 413 151 l 1
 410 66 373 -11 296 -11 c 0xb4
 219 -11 167 60 102 60 c 0
 67 60 51 41 36 6 c 1
 -4 7 l 1
 17 92 118 182 194 224 c 0
 216 237 253 262 253 262 c 1
 -80 231 l 1
 -86 276 l 1
 312 314 l 1
 343 349 356 385 356 432 c 0
 356 493 323 524 267 524 c 0
 221 524 187 498 187 472 c 0
 187 455 204 444 204 416 c 0
 204 383 182 360 147 360 c 0
 109 360 88 383 88 416 c 0
 88 484 166 568 277 568 c 0
 386 568 468 497 468 409 c 0
 468 376 458 349 443 326 c 1
 616 343 l 5
 622 298 l 5
 390 275 l 1
 358 253 320 236 286 219 c 0
 264 208 185 182 122 114 c 1x78
EndSplineSet
Layer: 2
SplineSet
-80.0283203125 231.2578125 m 5
 -85.787109375 276.499023438 l 5
 616.317382812 342.873046875 l 5
 622.076171875 297.631835938 l 5
 -80.0283203125 231.2578125 l 5
122 114 m 1
 203 110 221 87 292 87 c 0
 339 87 362 110 378 158 c 1
 413 151 l 1
 410 66 373 -11 296 -11 c 0
 219 -11 167 60 102 60 c 0
 67 60 51 41 36 6 c 1
 -4 7 l 1
 17 92 118 182 194 224 c 0
 314 297 356 347 356 432 c 0
 356 493 323 524 267 524 c 0
 221 524 186.650390625 498.240234375 186.650390625 471.559570312 c 0
 186.650390625 455 204.469726562 443.959960938 204.469726562 416.360351562 c 0
 204.469726562 383.240234375 181.700195312 360.240234375 147.049804688 360.240234375 c 0
 109.4296875 360.240234375 87.650390625 383.240234375 87.650390625 416.360351562 c 0
 87.650390625 484.440429688 166 568 277 568 c 0
 386 568 468 497 468 409 c 0
 468 302 368 259 286 219 c 0
 264 208 185 182 122 114 c 1
EndSplineSet
EndChar

StartChar: i_two_tick
Encoding: 57618 57618 271
Width: 0
VWidth: 0
Flags: W
HStem: -4 81<365 453.391> 60 54<109 201.177> 524 44<203.595 331.516>
VStem: 87 100<386.649 480.258> 356 112<355.533 488.077>
LayerCount: 4
Back
SplineSet
122 114 m 5
 203 110 221 87 292 87 c 4
 339 87 362 110 378 158 c 5
 413 151 l 5
 410 66 373 -11 296 -11 c 4
 219 -11 167 60 102 60 c 4
 67 60 51 41 36 6 c 5
 -4 7 l 5
 17 92 118 182 194 224 c 4
 314 297 356 347 356 432 c 4
 356 493 323 524 267 524 c 4
 221 524 187 500 187 471 c 4
 187 453 205 441 205 411 c 4
 205 375 182 350 147 350 c 4
 109 350 87 375 87 411 c 4
 87 485 166 568 277 568 c 4
 386 568 468 497 468 409 c 4
 468 302 368 259 286 219 c 4
 264 208 185 182 122 114 c 5
EndSplineSet
Fore
SplineSet
108 60 m 0x78
 66 60 51 41 36 6 c 1
 -4 7 l 1
 23 114 118 203 194 245 c 0
 314 318 356 351 356 436 c 0
 356 497 323 524 267 524 c 0
 221 524 187 500 187 471 c 0
 187 453 205 441 205 411 c 0
 205 375 182 350 147 350 c 0
 109 350 87 375 87 411 c 0
 87 485 166 568 277 568 c 0
 386 568 468 503 468 418 c 0
 468 308 360 278 278 238 c 0
 256 227 161 192 109 114 c 1x78
 184 114 254 89 318 80 c 1
 351 217 l 1
 396 208 l 1
 365 77 l 1
 416 78 465 89 505 119 c 1
 530 93 l 1
 488 24 429 -4 367 -4 c 0xb8
 360 -4 346 -3 346 -3 c 1
 313 -141 l 1
 268 -132 l 1
 301 6 l 1
 233 24 160 60 108 60 c 0x78
EndSplineSet
Layer: 2
SplineSet
351.329101562 217.458007812 m 5
 396.465820312 208.372070312 l 5
 312.670898438 -141.458007812 l 5
 267.534179688 -132.372070312 l 5
 351.329101562 217.458007812 l 5
108 60 m 4
 66 60 51 41 36 6 c 5
 -4 7 l 5
 23 114 118 203 194 245 c 4
 314 318 356 351 356 436 c 4
 356 497 323 524 267 524 c 4
 221 524 187 500 187 471 c 4
 187 453 205 441 205 411 c 4
 205 375 182 350 147 350 c 4
 109 350 87 375 87 411 c 4
 87 485 166 568 277 568 c 4
 386 568 468 503 468 418 c 4
 468 308 360 278 278 238 c 4
 256 227 161 192 109 114 c 5
 199 114 283 77 357 77 c 4
 411 77 463.354492188 87.927734375 504.625976562 119.434570312 c 5
 529.767578125 92.9765625 l 5
 488.008789062 24.2939453125 429 -4 367 -4 c 4
 285 -4 178 60 108 60 c 4
EndSplineSet
EndChar

StartChar: i_two_tick.alt
Encoding: 57619 57619 272
Width: 0
VWidth: 0
Flags: W
HStem: -3 80<260.855 344 391 455.342> 60 54<109 201.639> 524 44<203.595 331.516>
VStem: 87 100<386.649 480.258> 346 46<-134 0.0853271 78 206> 356 112<355.533 488.077>
LayerCount: 4
Fore
SplineSet
343 206 m 1xb4
 389 206 l 1
 390 78 l 1
 432 82 472 94 505 119 c 1
 530 93 l 1
 493 33 444 4 391 -3 c 1
 392 -134 l 1
 346 -134 l 1
 345 -3 l 1xb8
 266 7 172 60 108 60 c 0
 66 60 51 41 36 6 c 1
 -4 7 l 1
 23 114 118 203 194 245 c 0
 314 318 356 351 356 436 c 0
 356 497 323 524 267 524 c 0
 221 524 187 500 187 471 c 0
 187 453 205 441 205 411 c 0
 205 375 182 350 147 350 c 0
 109 350 87 375 87 411 c 0
 87 485 166 568 277 568 c 0
 386 568 468 503 468 418 c 0
 468 308 360 278 278 238 c 0
 256 227 161 192 109 114 c 1x74
 194 114 273 81 344 77 c 1
 343 206 l 1xb4
EndSplineSet
Layer: 2
SplineSet
108 60 m 4
 66 60 51 41 36 6 c 5
 -4 7 l 5
 23 114 118 203 194 245 c 4
 314 318 356 351 356 436 c 4
 356 497 323 524 267 524 c 4
 221 524 187 500 187 471 c 4
 187 453 205 441 205 411 c 4
 205 375 182 350 147 350 c 4
 109 350 87 375 87 411 c 4
 87 485 166 568 277 568 c 4
 386 568 468 503 468 418 c 4
 468 308 360 278 278 238 c 4
 256 227 161 192 109 114 c 5
 199 114 283 77 357 77 c 4
 411 77 463.354492188 87.927734375 504.625976562 119.434570312 c 5
 529.767578125 92.9765625 l 5
 488.008789062 24.2939453125 429 -4 367 -4 c 4
 285 -4 178 60 108 60 c 4
343 206 m 5
 389 206 l 5
 392 -134 l 5
 346 -134 l 5
 343 206 l 5
EndSplineSet
EndChar

StartChar: i_two_plus
Encoding: 57620 57620 273
Width: 0
VWidth: 0
Flags: HW
HStem: -11 98<220.22 350.575> 60 54<122 168.805> 112 46<404.195 575 621 818> 524 44<203.595 330.79>
VStem: 87 100<386.649 480.258> 356 112<346.143 482.849> 575 46<-85 112 158 355>
LayerCount: 4
Fore
SplineSet
590 355 m 1
 636 355 l 1
 636 158 l 1
 833 158 l 1
 833 112 l 1
 636 112 l 1
 636 -85 l 1
 590 -85 l 1
 590 112 l 1
 422 112 l 1
 407 44 366 -11 301 -11 c 0
 224 -11 167 60 102 60 c 0
 67 60 51 41 36 6 c 1
 -4 7 l 1
 17 92 118 182 194 224 c 0
 314 297 356 347 356 432 c 0
 356 493 323 524 267 524 c 0
 221 524 187 500 187 471 c 0
 187 453 205 441 205 411 c 0
 205 375 182 350 147 350 c 0
 109 350 87 375 87 411 c 0
 87 485 166 568 277 568 c 0
 386 568 468 497 468 409 c 0
 468 302 368 259 286 219 c 0
 264 208 185 182 122 114 c 1
 203 110 226 87 297 87 c 0
 344 87 374 110 393 158 c 1
 590 158 l 1
 590 355 l 1
EndSplineSet
Layer: 2
SplineSet
122 114 m 5
 203 110 221 87 292 87 c 4
 339 87 362 110 378 158 c 5
 413 151 l 5
 410 66 373 -11 296 -11 c 4
 219 -11 167 60 102 60 c 4
 67 60 51 41 36 6 c 5
 -4 7 l 5
 17 92 118 182 194 224 c 4
 314 297 356 347 356 432 c 4
 356 493 323 524 267 524 c 4
 221 524 187 500 187 471 c 4
 187 453 205 441 205 411 c 4
 205 375 182 350 147 350 c 4
 109 350 87 375 87 411 c 4
 87 485 166 568 277 568 c 4
 386 568 468 497 468 409 c 4
 468 302 368 259 286 219 c 4
 264 208 185 182 122 114 c 5
575 355 m 5
 621 355 l 5
 621 158 l 5
 818 158 l 5
 818 112 l 5
 621 112 l 5
 621 -85 l 5
 575 -85 l 5
 575 112 l 5
 378 112 l 5
 378 158 l 5
 575 158 l 5
 575 355 l 5
EndSplineSet
Layer: 3
SplineSet
122 114 m 5
 203 110 226 87 297 87 c 4
 344 87 374 110 393 158 c 5
 428 151 l 5
 422 66 378 -11 301 -11 c 4
 224 -11 167 60 102 60 c 4
 67 60 51 41 36 6 c 5
 -4 7 l 5
 17 92 118 182 194 224 c 4
 314 297 356 347 356 432 c 4
 356 493 323 524 267 524 c 4
 221 524 187 500 187 471 c 4
 187 453 205 441 205 411 c 4
 205 375 182 350 147 350 c 4
 109 350 87 375 87 411 c 4
 87 485 166 568 277 568 c 4
 386 568 468 497 468 409 c 4
 468 302 368 259 286 219 c 4
 264 208 185 182 122 114 c 5
590 355 m 5
 636 355 l 5
 636 158 l 5
 833 158 l 5
 833 112 l 5
 636 112 l 5
 636 -85 l 5
 590 -85 l 5
 590 112 l 5
 393 112 l 5
 393 158 l 5
 590 158 l 5
 590 355 l 5
EndSplineSet
EndChar

StartChar: i_three_slash
Encoding: 57624 57624 274
Width: 0
VWidth: 0
Flags: W
HStem: -8 46<185.215 270.068> 269 35<191 218> 529 39<231.687 318.992>
VStem: 18 89<69.5085 138.338> 127 96<416.178 501.426> 323 93<92.28 210.116> 398 78<365.993 490.541>
LayerCount: 4
Fore
SplineSet
18 134 m 0xfc
 18 176 47 211 88 211 c 0
 114 211 135 193 135 164 c 0
 135 132 107 120 107 92 c 0
 107 76 117 59 140 49 c 1
 218 263 l 1
 184 269 l 1
 191 304 l 1
 232 305 l 1
 312 528 l 1
 312 528 304 529 296 529 c 0
 247 529 223 512 223 493 c 0
 223 477 239 468 239 443 c 0
 239 409 216 382 182 382 c 0
 150 382 127 404 127 440 c 0
 127 511 208 568 298 568 c 0
 312 568 326 566 326 566 c 1
 368 682 l 1
 411 668 l 1
 371 556 l 1
 435 532 476 479 476 421 c 0xfa
 476 326 387 285 329 275 c 1
 327 264 l 1
 376 236 416 203 416 144 c 0
 416 46 331 -8 227 -8 c 0
 207 -8 188 -6 170 -3 c 1
 134 -105 l 1
 90 -91 l 1
 126 8 l 1
 55 33 18 84 18 134 c 0xfc
185 39 m 1
 185 39 193 38 199 38 c 0
 267 38 323 88 323 165 c 0xfc
 323 202 302 231 261 249 c 1
 185 39 l 1
283 311 m 1
 356 328 398 372 398 434 c 0xfa
 398 470 382 498 356 514 c 1
 283 311 l 1
EndSplineSet
Layer: 2
SplineSet
133.771484375 -104.998046875 m 5
 90.3330078125 -91.095703125 l 5
 367.676757812 681.881835938 l 5
 411.115234375 667.98046875 l 5
 133.771484375 -104.998046875 l 5
18.1155701688 133.87864055 m 4
 18.1155701688 175.807643949 47.342254163 211.337078076 87.5248525281 211.337078076 c 4
 114.413788784 211.337078076 135.08762772 193.365865654 135.08762772 163.745270618 c 4
 135.08762772 131.644705769 107.055657525 120.01301816 107.055657525 92.2774980221 c 4
 107.055657525 65.9435891307 133.732408711 38 199 38 c 4
 267 38 323 88 323 165 c 4
 323 221 275 258 184 269 c 5
 191 304 l 5
 191 304 220.976874675 304.368963731 234 305 c 4
 336 309.94241573 398 359 398 434 c 4
 398 492 357 529 296 529 c 4
 247 529 223 512 223 493 c 4
 223 477 239 468 239 443 c 4
 239 409 216 382 182 382 c 4
 150 382 127 404 127 440 c 4
 127 511 208 568 298 568 c 4
 403 568 476 498 476 421 c 4
 476 326 387 285 329 275 c 5
 327 264 l 5
 376 236 416 203 416 144 c 4
 416 46 331 -8 227 -8 c 4
 90.4741454286 -8 18.1155701688 63.4320047742 18.1155701688 133.87864055 c 4
EndSplineSet
EndChar

StartChar: i_three_slash.alt
Encoding: 57625 57625 275
Width: 0
VWidth: 0
Flags: W
HStem: -8 46<129.156 255.71> 529 39<229.484 344.228>
VStem: 18 97<69.2346 166.919> 127 96<416.178 501.426> 313 103<96.2509 218.303> 375 98<370.02 494.006>
LayerCount: 4
Fore
SplineSet
18 130 m 0xf8
 18 170 43 203 85 203 c 0
 113 203 134 183 134 150 c 0
 134 123 115 112 115 88 c 0
 115 62 145 38 190 38 c 0
 251 38 313 90 313 172 c 0xf8
 313 228.856954483 268.119935397 272.640502152 198.18989043 272.640502152 c 0
 189.442940542 272.640502152 180.121794903 272.088923425 170 271.134680135 c 2
 -86 247 l 1
 -92 292 l 1
 268 326.545454545 l 2
 302.055013512 329.813359882 319.30370415 334.85208016 337.86251929 351.999996902 c 0
 361.774305602 374.09393543 375 405.486203839 375 444 c 0
 375 497 336 529 282 529 c 0
 246 529 223 512 223 493 c 0
 223 477 239 468 239 443 c 0
 239 409 216 382 182 382 c 0
 150 382 127 404 127 440 c 0
 127 511 208 568 298 568 c 0
 403 568 473 498 473 426 c 0xf4
 473 390 462 363 445 343 c 1
 608 359 l 1
 614 314 l 1
 333 287 l 1
 331 276 l 1
 380 247 416 204 416 149 c 0
 416 46 331 -8 227 -8 c 0
 98 -8 18 61 18 130 c 0xf8
EndSplineSet
Layer: 2
SplineSet
-86.0283203125 247.2578125 m 5
 -91.787109375 292.499023438 l 5
 608.317382812 358.873046875 l 5
 614.076171875 313.631835938 l 5
 -86.0283203125 247.2578125 l 5
17.7592423269 130.060564447 m 0
 17.7592423269 169.778191972 42.9752907489 203.48593099 84.5996145048 203.48593099 c 0
 112.62441215 203.48593099 134.19422771 182.96603243 134.19422771 150.260732708 c 0
 134.19422771 123.229524828 115.315329419 111.569629982 115.315329419 87.7855585941 c 0
 115.315329419 61.6064706588 144.87499417 38 190 38 c 0
 251 38 313 90 313 172 c 0
 313 224 279 268 188 279 c 1
 195 314 l 1
 195 314 225 314 238 315 c 0
 321 319 375 367 375 444 c 0
 375 497 336 529 282 529 c 0
 246 529 223 512 223 493 c 0
 223 477 239 468 239 443 c 0
 239 409 216 382 182 382 c 0
 150 382 127 404 127 440 c 0
 127 511 208 568 298 568 c 0
 403 568 473 498 473 426 c 0
 473 329 391 298 333 288 c 1
 331 276 l 1
 380 247 416 204 416 149 c 0
 416 46 331 -8 227 -8 c 0
 98.279518619 -8 17.7592423269 60.5234505904 17.7592423269 130.060564447 c 0
EndSplineSet
EndChar

StartChar: i_four_slash
Encoding: 57632 57632 276
Width: 0
VWidth: 0
Flags: W
HStem: 0 40<165 237.797 349.211 403> 166 46<202 279 376 460>
LayerCount: 4
Back
SplineSet
358 166 m 1
 340 96 l 2
 338 90 338 85 338 80 c 0
 338 49 375 40 409 40 c 1
 403 0 l 1
 156 0 l 1
 162 40 l 1
 178 40 l 2
 206 40 246 54 258 96 c 1
 276 166 l 1
 14 166 l 1
 20 206 l 1
 121 322 187 420 256 552 c 1
 384 552 l 1
 285 422 219 364 76 212 c 1
 289 212 l 1
 318 320 l 1
 426 418 l 1
 371 212 l 1
 468 212 l 1
 460 166 l 1
 358 166 l 1
EndSplineSet
Fore
SplineSet
363 166 m 1
 345 96 l 2
 343 90 343 85 343 80 c 0
 343 49 375 40 409 40 c 1
 403 0 l 1
 159 0 l 1
 165 40 l 1
 181 40 l 2
 209 40 249 54 261 96 c 1
 279 166 l 1
 148 166 l 1
 -54 -5 l 1
 -85 29 l 1
 77 166 l 1
 11 166 l 1
 17 206 l 1
 118 322 184 420 253 552 c 1
 387 552 l 1
 288 422 222 364 79 212 c 1
 131 212 l 1
 542 560 l 1
 573 526 l 1
 427 403 l 1
 376 212 l 1
 468 212 l 1
 460 166 l 1
 363 166 l 1
202 212 m 1
 292 212 l 1
 319 311 l 1
 202 212 l 1
EndSplineSet
Layer: 2
SplineSet
-54.0087890625 -4.705078125 m 5
 -84.67578125 29.0537109375 l 5
 542 559.799804688 l 5
 572.666992188 526.041015625 l 5
 -54.0087890625 -4.705078125 l 5
363 166 m 5
 345 96 l 6
 343 90 343 85 343 80 c 4
 343 49 375 40 409 40 c 5
 403 0 l 5
 159 0 l 5
 165 40 l 5
 181 40 l 6
 209 40 249 54 261 96 c 5
 279 166 l 5
 11 166 l 5
 17 206 l 5
 118 322 184 420 253 552 c 5
 387 552 l 5
 288 422 222 364 79 212 c 5
 292 212 l 5
 321 320 l 5
 431 418 l 5
 376 212 l 5
 468 212 l 5
 460 166 l 5
 363 166 l 5
EndSplineSet
EndChar

StartChar: i_four_slash.alt
Encoding: 57633 57633 277
Width: 0
VWidth: 0
Flags: W
HStem: 0 40<157 231.115 349.211 403> 146 46<75 264 369 453>
LayerCount: 4
Fore
SplineSet
356 146 m 1
 345 96 l 2
 343 90 343 85 343 80 c 0
 343 49 375 40 409 40 c 1
 403 0 l 1
 151 0 l 1
 157 40 l 1
 173 40 l 2
 201 40 244 53 253 96 c 2
 264 146 l 1
 7 146 l 1
 13 186 l 1
 35 212 56 238 76 264 c 1
 -116 245 l 1
 -122 290 l 1
 112 313 l 1
 166 389 212 468 256 552 c 1
 390 552 l 1
 323 464 268 400 195 321 c 1
 319 332 l 1
 434 428 l 1
 410 341 l 1
 608 360 l 1
 614 315 l 1
 397 294 l 1
 369 192 l 1
 461 192 l 1
 453 146 l 1
 356 146 l 1
149 270 m 1
 126 246 102 220 75 192 c 1
 277 192 l 1
 303 285 l 1
 149 270 l 1
EndSplineSet
Layer: 2
SplineSet
-116.028320312 245.2578125 m 5
 -121.787109375 290.499023438 l 5
 608.317382812 359.873046875 l 5
 614.076171875 314.631835938 l 5
 -116.028320312 245.2578125 l 5
356 146 m 1
 345 96 l 2
 343 90 343 85 343 80 c 0
 343 49 375 40 409 40 c 1
 403 0 l 1
 151 0 l 1
 157 40 l 1
 173 40 l 2
 201 40 241 54 253 96 c 1
 264 146 l 1
 7 146 l 1
 13 186 l 1
 114 302 187 420 256 552 c 1
 390 552 l 1
 291 422 218 344 75 192 c 1
 277 192 l 1
 316 330 l 1
 434 428 l 1
 369 192 l 1
 461 192 l 1
 453 146 l 1
 356 146 l 1
EndSplineSet
EndChar

StartChar: i_four_tick
Encoding: 57634 57634 278
Width: 0
VWidth: 0
Flags: W
HStem: 0 40<157 229.797 349.211 403> 166 46<82 271 376 516 573 680>
LayerCount: 4
Fore
SplineSet
563 371 m 1
 610 371 l 1
 573 212 l 1
 688 212 l 1
 680 166 l 1
 563 166 l 1
 527 10 l 1
 480 10 l 1
 516 166 l 1
 363 166 l 1
 345 96 l 2
 343 90 343 85 343 80 c 0
 343 49 375 40 409 40 c 1
 403 0 l 1
 151 0 l 1
 157 40 l 1
 173 40 l 2
 201 40 241 54 253 96 c 1
 271 166 l 1
 14 166 l 1
 20 206 l 1
 121 322 187 420 256 552 c 1
 390 552 l 1
 291 422 225 364 82 212 c 1
 284 212 l 1
 313 320 l 1
 431 418 l 1
 376 212 l 1
 526 212 l 1
 563 371 l 1
EndSplineSet
Layer: 2
SplineSet
363 166 m 5
 345 96 l 6
 343 90 343 85 343 80 c 4
 343 49 375 40 409 40 c 5
 403 0 l 5
 151 0 l 5
 157 40 l 5
 173 40 l 6
 201 40 241 54 253 96 c 5
 271 166 l 5
 14 166 l 5
 20 206 l 5
 121 322 187 420 256 552 c 5
 390 552 l 5
 291 422 225 364 82 212 c 5
 284 212 l 5
 313 320 l 5
 431 418 l 5
 376 212 l 5
 688 212 l 5
 680 166 l 5
 363 166 l 5
563 371 m 5
 610 371 l 5
 527 10 l 5
 480 10 l 5
 563 371 l 5
EndSplineSet
EndChar

StartChar: i_four_plus
Encoding: 57635 57635 279
Width: 0
VWidth: 0
Flags: W
HStem: 0 40<157 229.797 349.211 403> 166 46<82 271 376 595 641 838>
VStem: 595 46<-31 166 212 409>
LayerCount: 4
Fore
SplineSet
595 409 m 1
 641 409 l 1
 641 212 l 1
 838 212 l 1
 838 166 l 1
 641 166 l 1
 641 -31 l 1
 595 -31 l 1
 595 166 l 1
 363 166 l 1
 345 96 l 2
 343 90 343 85 343 80 c 0
 343 49 375 40 409 40 c 1
 403 0 l 1
 151 0 l 1
 157 40 l 1
 173 40 l 2
 201 40 241 54 253 96 c 1
 271 166 l 1
 14 166 l 1
 20 206 l 1
 121 322 187 420 256 552 c 1
 390 552 l 1
 291 422 225 364 82 212 c 1
 284 212 l 1
 313 320 l 1
 431 418 l 1
 376 212 l 1
 595 212 l 1
 595 409 l 1
EndSplineSet
Layer: 2
SplineSet
363 166 m 5
 345 96 l 6
 343 90 343 85 343 80 c 4
 343 49 375 40 409 40 c 5
 403 0 l 5
 151 0 l 5
 157 40 l 5
 173 40 l 6
 201 40 241 54 253 96 c 5
 271 166 l 5
 14 166 l 5
 20 206 l 5
 121 322 187 420 256 552 c 5
 390 552 l 5
 291 422 225 364 82 212 c 5
 284 212 l 5
 313 320 l 5
 431 418 l 5
 376 212 l 5
 468 212 l 5
 460 166 l 5
 363 166 l 5
595 409 m 5
 641 409 l 5
 641 212 l 5
 838 212 l 5
 838 166 l 5
 641 166 l 5
 641 -31 l 5
 595 -31 l 5
 595 166 l 5
 398 166 l 5
 398 212 l 5
 595 212 l 5
 595 409 l 5
EndSplineSet
EndChar

StartChar: i_five_slash
Encoding: 57640 57640 280
Width: 0
VWidth: 0
Flags: HW
HStem: -6 44<180 250.703> 5 40<104.791 117> 309 48<161.443 244> 451 90<197.866 304>
VStem: 13 89<63.9736 161.719> 332 94<124.799 280.156>
LayerCount: 4
Fore
SplineSet
122 -100 m 1
 80 -84 l 1
 117 4 l 1
 46 26 8 79 8 126 c 0
 8 176 34 205 68 205 c 0
 100 205 120 184 120 151 c 0
 120 107 97 99 97 72 c 0
 97 62 111 51 134 44 c 1
 244 308 l 2
 244 308 237 308 234 308 c 0
 187 308 151 294 119 272 c 1
 97 288 l 1
 175 556 l 1
 233 548 286 543 342 541 c 1
 397 673 l 1
 440 657 l 1
 391 540 l 1
 420 540 452 542 486 546 c 1
 495 531 l 1
 461 492 414 465 355 455 c 1
 311 349 l 1
 382 332 431 279 431 202 c 0
 431 72 306 -6 188 -6 c 0
 179 -6 162 -5 162 -5 c 1
 122 -100 l 1
264 356 m 2
 304 451 l 17
 264 451 231 457 191 463 c 1
 155 336 l 1
 185 346 203 356 255 356 c 0
 258 356 264 356 264 356 c 2
289 298 m 1
 180 38 l 1
 265 38 337 112 337 217 c 0
 337 256 321 284 289 298 c 1
EndSplineSet
Layer: 2
SplineSet
188 -6 m 4
 77 -6 12.7998046875 65 12.7998046875 126 c 4
 12.7998046875 176 39.48046875 205 72.599609375 205 c 4
 104.799804688 205 125.120117188 184 125.120117188 151 c 4
 125.120117188 107 101.599609375 99 101.599609375 72 c 4
 101.599609375 57 135 38 181 38 c 4
 260 38 332 113 332 217 c 4
 332 275 297 308 234 308 c 4
 192 308 156 294 124 272 c 5
 102 288 l 13
 180 556 l 5
 254 546 308 540 382 540 c 4
 412 540 445 542 481 546 c 5
 490 531 l 5
 447 481 388 451 304 451 c 4
 264 451 236 457 196 463 c 13
 160 336 l 21
 190 346 208 356 255 356 c 4
 350 356 426 298 426 202 c 4
 426 72 301 -6 188 -6 c 4
122.225585938 -100.319335938 m 5xe4
 79.5732421875 -84.1630859375 l 5
 396.991210938 673.241210938 l 5
 439.643554688 657.084960938 l 5
 122.225585938 -100.319335938 l 5xe4
EndSplineSet
Layer: 3
SplineSet
188 -6 m 4
 72 -6 8 65 8 126 c 4
 8 176 34 205 68 205 c 4
 100 205 120 184 120 151 c 4
 120 107 97 99 97 72 c 4
 97 57 130 38 181 38 c 4
 265 38 337 113 337 217 c 4
 337 275 302 308 234 308 c 4
 187 308 151 294 119 272 c 5
 97 288 l 13
 175 556 l 5
 249 546 313 540 387 540 c 4
 417 540 450 542 486 546 c 5
 495 531 l 5
 452 481 388 451 304 451 c 4
 264 451 231 457 191 463 c 13
 155 336 l 21
 185 346 203 356 255 356 c 4
 355 356 431 298 431 202 c 4
 431 72 306 -6 188 -6 c 4
122 -100 m 5xe4
 80 -84 l 5
 397 673 l 5
 440 657 l 5
 122 -100 l 5xe4
EndSplineSet
EndChar

StartChar: i_five_slash.alt
Encoding: 57641 57641 281
Width: 0
VWidth: 0
Flags: W
HStem: -6 44<126.014 267.333> 258 43<147.344 292.77> 451 89<190.972 393.615>
VStem: 18 103<57.5134 148.303> 322 102<93.7125 230.106>
LayerCount: 4
Back
SplineSet
121.143425828 70.9031265811 m 4
 121.143425828 50.4248976253 144.064453125 38 186 38 c 4
 261 38 322 93 322 183 c 4
 322 229 284 258 225 258 c 4
 186 258 143 249 111 227 c 5
 90 248 l 13
 180 556 l 5
 254 546 303 540 377 540 c 4
 407 540 435 542 471 546 c 5
 480 531 l 5
 450.60654559 482.827394162 360.68305145 451.000752051 261.608348276 451.000752051 c 4
 239.340072686 451.000752051 216.609494757 452.608575786 194 456 c 13
 146 286 l 21
 176 296 194 301 241 301 c 4
 336 301 424 254 424 170 c 4
 424 60 311 -6 198 -6 c 4
 111.649414062 -6 17.951662841 37.1813334993 17.951662841 116.319441345 c 4
 17.951662841 157.38625672 43.2978515625 185.560546875 83.267578125 185.560546875 c 4
 114.028320312 185.560546875 135.48828125 163.413085938 135.48828125 127.237304688 c 4
 135.48828125 101.557617188 121.143425828 87.4591604108 121.143425828 70.9031265811 c 4
EndSplineSet
Fore
SplineSet
121 71 m 0
 121 50 149 38 196 38 c 0
 266 38 322 89 322 173 c 0
 322 225 284 258 225 258 c 0
 186 258 143 249 111 227 c 1
 90 248 l 1
 116 337 l 1
 -116 315 l 1
 -122 360 l 1
 130 384 l 1
 180 556 l 1
 254 546 303 540 377 540 c 0
 407 540 435 542 471 546 c 1
 480 531 l 1
 451 483 361 451 262 451 c 0
 239 451 217 453 194 456 c 1
 175 389 l 1
 608 430 l 1
 614 385 l 1
 162 342 l 1
 146 286 l 1
 176 296 194 301 241 301 c 0
 336 301 424 250 424 160 c 0
 424 56 316 -6 208 -6 c 0
 117 -6 18 37 18 116 c 0
 18 157 43 186 83 186 c 0
 114 186 135 163 135 127 c 0
 135 102 121 87 121 71 c 0
EndSplineSet
Layer: 2
SplineSet
-116.028320312 315.2578125 m 5
 -121.787109375 360.499023438 l 5
 608.317382812 429.873046875 l 5
 614.076171875 384.631835938 l 5
 -116.028320312 315.2578125 l 5
121.143425828 70.9031265811 m 0
 121.143425828 50.4248976253 149.064453125 38 196 38 c 0
 266 38 322 89 322 173 c 0
 322 225 284 258 225 258 c 0
 186 258 143 249 111 227 c 1
 90 248 l 9
 180 556 l 1
 254 546 303 540 377 540 c 0
 407 540 435 542 471 546 c 1
 480 531 l 1
 450.60654559 482.827394162 360.68305145 451.000752051 261.608348276 451.000752051 c 0
 239.340072686 451.000752051 216.609494757 452.608575786 194 456 c 9
 146 286 l 17
 176 296 194 301 241 301 c 0
 336 301 424 250 424 160 c 0
 424 56 316 -6 208 -6 c 0
 116.649414062 -6 17.951662841 37.1813334993 17.951662841 116.319441345 c 0
 17.951662841 157.38625672 43.2978515625 185.560546875 83.267578125 185.560546875 c 0
 114.028320312 185.560546875 135.48828125 163.413085938 135.48828125 127.237304688 c 0
 135.48828125 101.557617188 121.143425828 87.4591604108 121.143425828 70.9031265811 c 0
EndSplineSet
EndChar

StartChar: i_five_tick
Encoding: 57642 57642 282
Width: 0
VWidth: 0
Flags: W
HStem: -6 44<124.811 256.082> 278 43<153.344 295.069>
VStem: 18 103<57.1347 148.303> 322 102<106.019 251.951>
LayerCount: 4
Fore
SplineSet
215 694 m 1
 255 717 l 1
 350 541 l 1
 350 541 377 540 400 540 c 0
 430 540 485 542 521 546 c 1
 530 531 l 1
 512 501 455 477 392 463 c 1
 458 342 l 1
 418 319 l 1
 344 455 l 1
 322 452 301 451 281 451 c 0
 258 451 217 453 194 456 c 1
 152 306 l 1
 182 316 200 321 247 321 c 0
 342 321 424 269 424 180 c 0
 424 65 311 -6 198 -6 c 0
 112 -6 18 37 18 116 c 0
 18 157 43 186 83 186 c 0
 114 186 135 163 135 127 c 0
 135 102 121 87 121 71 c 0
 121 50 144 38 186 38 c 0
 261 38 322 98 322 193 c 0
 322 244 290 278 231 278 c 0
 192 278 149 269 117 247 c 1
 96 268 l 1
 180 556 l 1
 219 551 258 547 296 544 c 1
 215 694 l 1
EndSplineSet
Layer: 2
SplineSet
121.143425828 70.9031265811 m 4
 121.143425828 50.4248976253 144.064453125 38 186 38 c 4
 261 38 322 98 322 193 c 4
 322 244 290 278 231 278 c 4
 192 278 149 269 117 247 c 5
 96 268 l 13
 180 556 l 5
 254 546 326 540 400 540 c 4
 430 540 485 542 521 546 c 5
 530 531 l 5
 500.606445312 482.827148438 374 451.000976562 280.608398438 451.000976562 c 4
 258.33984375 451.000976562 216.609494757 452.608575786 194 456 c 13
 152 306 l 21
 182 316 200 321 247 321 c 4
 342 321 424 269 424 180 c 4
 424 65 311 -6 198 -6 c 4
 111.649414062 -6 17.951662841 37.1813334993 17.951662841 116.319441345 c 4
 17.951662841 157.38625672 43.2978515625 185.560546875 83.267578125 185.560546875 c 4
 114.028320312 185.560546875 135.48828125 163.413085938 135.48828125 127.237304688 c 4
 135.48828125 101.557617188 121.143425828 87.4591604108 121.143425828 70.9031265811 c 4
215.359375 693.677734375 m 5
 254.982421875 717.12890625 l 5
 457.640625 342.322265625 l 5
 418.017578125 318.87109375 l 5
 215.359375 693.677734375 l 5
EndSplineSet
EndChar

StartChar: i_five_tick.alt
Encoding: 57643 57643 283
Width: 0
VWidth: 0
Flags: W
HStem: -6 44<124.811 261.404> 273 43<151.344 296.456> 451 90<195.091 356>
VStem: 18 103<57.1347 148.303> 322 102<99.2028 243.059> 358 46<347 457 541 687>
LayerCount: 4
Back
SplineSet
121.143425828 70.9031265811 m 4
 121.143425828 50.4248976253 144.064453125 38 186 38 c 4
 261 38 322 93 322 183 c 4
 322 229 284 258 225 258 c 4
 186 258 143 249 111 227 c 5
 90 248 l 13
 180 556 l 5
 254 546 326 540 400 540 c 4
 430 540 485 542 521 546 c 5
 530 531 l 5
 500.606445312 482.827148438 374 451.000976562 280.608398438 451.000976562 c 4
 258.33984375 451.000976562 216.609494757 452.608575786 194 456 c 13
 146 286 l 21
 176 296 194 301 241 301 c 4
 336 301 424 254 424 170 c 4
 424 60 311 -6 198 -6 c 4
 111.649414062 -6 17.951662841 37.1813334993 17.951662841 116.319441345 c 4
 17.951662841 157.38625672 43.2978515625 185.560546875 83.267578125 185.560546875 c 4
 114.028320312 185.560546875 135.48828125 163.413085938 135.48828125 127.237304688 c 4
 135.48828125 101.557617188 121.143425828 87.4591604108 121.143425828 70.9031265811 c 4
EndSplineSet
Fore
SplineSet
355 687 m 1xf8
 401 687 l 1
 402 540 l 1
 433 540 486 542 521 546 c 1
 530 531 l 1
 513 503 461 480 403 466 c 1
 404 347 l 1
 358 347 l 1xf4
 357 457 l 1
 331 453 305 451 281 451 c 0
 258 451 217 453 194 456 c 1
 150 301 l 1
 180 311 198 316 245 316 c 0
 340 316 424 264 424 170 c 0
 424 61 311 -6 198 -6 c 0
 112 -6 18 37 18 116 c 0
 18 157 43 186 83 186 c 0
 114 186 135 163 135 127 c 0
 135 102 121 87 121 71 c 0
 121 50 144 38 186 38 c 0
 261 38 322 87 322 183 c 0
 322 245 288 273 229 273 c 0
 190 273 147 264 115 242 c 1
 94 263 l 1
 180 556 l 1
 239 548 297 543 356 541 c 1
 355 687 l 1xf8
EndSplineSet
Layer: 2
SplineSet
121.143425828 70.9031265811 m 4
 121.143425828 50.4248976253 144.064453125 38 186 38 c 4
 261 38 322 87 322 183 c 4
 322 245 288 273 229 273 c 4
 190 273 147 264 115 242 c 5
 94 263 l 13
 180 556 l 5
 254 546 326 540 400 540 c 4
 430 540 485 542 521 546 c 5
 530 531 l 5
 500.606445312 482.827148438 374 451.000976562 280.608398438 451.000976562 c 4
 258.33984375 451.000976562 216.609494757 452.608575786 194 456 c 13
 150 301 l 21
 180 311 198 316 245 316 c 4
 340 316 424 264 424 170 c 4
 424 61 311 -6 198 -6 c 4
 111.649414062 -6 17.951662841 37.1813334993 17.951662841 116.319441345 c 4
 17.951662841 157.38625672 43.2978515625 185.560546875 83.267578125 185.560546875 c 4
 114.028320312 185.560546875 135.48828125 163.413085938 135.48828125 127.237304688 c 4
 135.48828125 101.557617188 121.143425828 87.4591604108 121.143425828 70.9031265811 c 4
355 687 m 5
 401 687 l 5
 404 347 l 5
 358 347 l 5
 355 687 l 5
EndSplineSet
EndChar

StartChar: i_five_plus
Encoding: 57644 57644 284
Width: 0
VWidth: 0
Flags: HW
HStem: -6 44<112.903 242.21> 308 48<161.2 294.954> 500 46<411.543 595 641 821>
VStem: 16 90<62.3309 156.354> 322 104<125.395 281.031> 595 46<312 500 546 732>
LayerCount: 4
Fore
SplineSet
626 312 m 1
 580 312 l 1
 580 500 l 1
 440 500 l 1
 402 466 354 444 289 444 c 0
 257 444 234 450 194 456 c 1
 160 336 l 1
 190 346 208 356 255 356 c 0
 350 356 426 298 426 202 c 0
 426 72 301 -6 188 -6 c 0
 77 -6 16 65 16 126 c 0
 16 176 45 205 81 205 c 0
 116 205 137 184 137 151 c 0
 137 102 106 99 106 72 c 0
 106 57 133 38 176 38 c 0
 251 38 322 114 322 218 c 0
 322 276 288 308 229 308 c 0
 190 308 156 294 124 272 c 1
 102 288 l 1
 180 556 l 1
 254 546 303 540 367 540 c 0
 397 540 425 542 461 546 c 1
 580 546 l 1
 580 732 l 1
 626 732 l 1
 626 546 l 1
 806 546 l 1
 806 500 l 1
 626 500 l 1
 626 312 l 1
EndSplineSet
Layer: 2
SplineSet
188 -6 m 4xee
 77 -6 16 65 16 126 c 4
 16 176 45 205 81 205 c 4
 116 205 137 184 137 151 c 4
 137 102 106 99 106 72 c 4
 106 57 133 38 176 38 c 4
 251 38 322 114 322 218 c 4
 322 276 288 308 229 308 c 4
 190 308 156 294 124 272 c 5
 102 288 l 13
 180 556 l 5
 254 546 303 540 367 540 c 4xee
 397 540 425 542 461 546 c 5xde
 470 531 l 5
 427 481 373 444 289 444 c 4
 257 444 234 450 194 456 c 13
 160 336 l 21
 190 346 208 356 255 356 c 4
 350 356 426 298 426 202 c 4
 426 72 301 -6 188 -6 c 4xee
821 546 m 5xde
 821 500 l 5
 421 500 l 5
 461 546 l 5
 821 546 l 5xde
641 312 m 5
 595 312 l 5
 595 732 l 5
 641 732 l 5
 641 312 l 5
EndSplineSet
Layer: 3
SplineSet
188 -6 m 4xee
 77 -6 16 65 16 126 c 4
 16 176 45 205 81 205 c 4
 116 205 137 184 137 151 c 4
 137 102 106 99 106 72 c 4
 106 57 133 38 176 38 c 4
 251 38 322 114 322 218 c 4
 322 276 288 308 229 308 c 4
 190 308 156 294 124 272 c 5
 102 288 l 13
 180 556 l 5
 254 546 303 540 367 540 c 4xee
 397 540 425 542 461 546 c 5xde
 470 531 l 5
 427 481 373 444 289 444 c 4
 257 444 234 450 194 456 c 13
 160 336 l 21
 190 346 208 356 255 356 c 4
 350 356 426 298 426 202 c 4
 426 72 301 -6 188 -6 c 4xee
806 546 m 5xde
 806 500 l 5
 406 500 l 5
 461 546 l 5
 806 546 l 5xde
626 312 m 5
 580 312 l 5
 580 732 l 5
 626 732 l 5
 626 312 l 5
EndSplineSet
EndChar

StartChar: i_six_slash
Encoding: 57648 57648 285
Width: 0
VWidth: 0
Flags: W
HStem: -8 45<184.16 266.241> 292 44<175.583 255> 527 41<264.526 359.779>
VStem: 34 75<96.2586 216.864> 331 89<112.931 258.374>
LayerCount: 4
Fore
SplineSet
463 472 m 0
 463 436 437 407 399 407 c 0
 386 407 374 410 366 417 c 1
 321 324 l 1
 385 300 420 240 420 177 c 0
 420 65 321 -8 226 -8 c 0
 203 -8 183 -5 165 0 c 1
 120 -93 l 1
 78 -74 l 1
 123 18 l 1
 62 55 34 127 34 205 c 0
 34 420 199 568 328 568 c 0
 348 568 367 565 384 560 c 1
 437 670 l 1
 479 651 l 1
 425 540 l 1
 449 523 463 499 463 472 c 0
298 276 m 1
 184 39 l 1
 184 39 194 37 206 37 c 0
 277 37 331 116 331 202 c 0
 331 233 321 260 298 276 c 1
360 511 m 1
 356 522 344 527 328 527 c 0
 236 527 166 412 135 293 c 1
 165 319 213 336 254 336 c 0
 264 336 276 335 276 335 c 1
 360 511 l 1
255 291 m 1
 255 291 246 292 241 292 c 0
 170 292 109 222 109 131 c 0
 109 101 120 74 142 57 c 1
 255 291 l 1
EndSplineSet
Layer: 2
SplineSet
120.170898438 -92.5986328125 m 1
 78.4228515625 -74.232421875 l 1
 437.045898438 669.520507812 l 1
 478.793945312 651.154296875 l 1
 120.170898438 -92.5986328125 l 1
463.172867975 471.867634341 m 4
 463.172867975 435.595217874 437.417597825 406.518016445 398.939077048 406.518016445 c 4
 371.218315059 406.518016445 351.502792159 423.549314115 351.502792159 449.652449283 c 4
 351.502792159 467.562207752 362.456758985 480.480548311 362.456758985 498.278777158 c 4
 362.456758985 519.282368856 349.00284982 527 328 527 c 4
 236 527 166 412 135 293 c 5
 165 319 213 336 254 336 c 4
 359 336 420 260 420 177 c 4
 420 65 321 -8 226 -8 c 4
 92 -8 34 92 34 205 c 4
 34 420 199 568 328 568 c 4
 401.22543483 568 463.172867975 528.468946502 463.172867975 471.867634341 c 4
331 202 m 4
 331 253 304 292 241 292 c 4
 170 292 109 222 109 131 c 4
 109 79 142 37 206 37 c 4
 277 37 331 116 331 202 c 4
EndSplineSet
EndChar

StartChar: i_six_slash.alt
Encoding: 57649 57649 286
Width: 0
VWidth: 0
Flags: HW
HStem: -8 44<181.393 306.033> 310 45<189.826 316.128> 527 43<212.1 307.539>
VStem: 47 91<299 397.031> 312.894 109.971<435.38 523.108> 353 97<89.3804 263.728>
LayerCount: 4
Fore
SplineSet
328 568 m 0
 403 568 464 531 464 473 c 0
 464 440 440 409 400 409 c 0
 375 409 355 425 355 452 c 0
 355 468 362 483 362 498 c 0
 362 519 349 527 328 527 c 0
 236 527 175 417 144 318 c 1
 174 344 222 361 263 361 c 0
 352 361 403 313 416 244 c 1
 593 261 l 1
 599 216 l 1
 420 198 l 1
 417 69 308 -8 210 -8 c 0
 97 -8 47 68 36 162 c 1
 -146 144 l 1
 -152 189 l 1
 34 207 l 1
 35 421 199 568 328 568 c 0
110 169 m 1
 110 169 109 153 109 144 c 0
 109 79 136 37 196 37 c 0
 262 37 316 111 328 190 c 1
 110 169 l 1
331 236 m 1
 327 283 303 317 250 317 c 0
 197 317 144 279 121 216 c 1
 331 236 l 1
EndSplineSet
Layer: 2
SplineSet
-146.028320312 144.2578125 m 5
 -151.787109375 189.499023438 l 5
 593.317382812 260.873046875 l 5
 599.076171875 215.631835938 l 5
 -146.028320312 144.2578125 l 5
328 568 m 0
 403.293628576 568 463.811756499 530.973223131 463.811756499 472.992456105 c 0
 463.811756499 439.750866474 439.805466629 409.038322909 399.778401157 409.038322909 c 0
 375.201725558 409.038322909 355.1684762 424.810573921 355.1684762 452.004734996 c 0
 355.1684762 467.515219152 362.456758985 482.572535086 362.456758985 498.278777158 c 0
 362.456758985 519.282368856 349.00284982 527 328 527 c 0
 236 527 174.783297282 416.846647269 144 318 c 1
 174 344 222 361 263 361 c 0
 368 361 420 293 420 204 c 0
 420 71 309 -8 210 -8 c 0
 80 -8 34 92 34 205 c 0
 34 420 199 568 328 568 c 0
331 224 m 0
 331 277 307 317 250 317 c 0
 179 317 109 249 109 144 c 0
 109 79 136 37 196 37 c 0
 271 37 331 134 331 224 c 0
EndSplineSet
EndChar

StartChar: i_six_tick
Encoding: 57650 57650 287
Width: 0
VWidth: 0
Flags: HW
LayerCount: 4
Fore
SplineSet
201 40 m 0
 269 40 322 109 322 190 c 0
 322 234 297 272 241 272 c 0
 175 272 114 211 114 133 c 0
 114 81 143 40 201 40 c 0
222 -8 m 0
 90 -8 39 90 39 191 c 0
 39 346 128 449 247 504 c 1
 119 656 l 1
 153 687 l 1
 292 523 l 1
 353 544 419 554 484 554 c 2
 484 554 485 554 486 554 c 1
 486 510 l 1
 428 506 374 499 327 482 c 1
 440 348 l 1
 406 317 l 1
 283 463 l 1
 220 429 172 373 144 281 c 1
 172 302 214 315 256 315 c 0
 362 315 417 238 417 166 c 0
 417 57 319 -8 222 -8 c 0
EndSplineSet
Layer: 2
SplineSet
119 656 m 1
 153 687 l 1
 440 348 l 1
 406 317 l 1
 119 656 l 1
222 -8 m 4
 90 -8 39 90 39 191 c 4
 39 439 266 554 484 554 c 4
 484 554 485 554 486 554 c 6
 486 510 l 5
 325 500 198 458 144 281 c 5
 172 302 214 315 256 315 c 4
 362 315 417 238 417 166 c 4
 417 57 319 -8 222 -8 c 4
201 40 m 0
 269 40 322 109 322 190 c 0
 322 234 297 272 241 272 c 0
 175 272 114 211 114 133 c 0
 114 81 143 40 201 40 c 0
EndSplineSet
EndChar

StartChar: i_six_tick.alt
Encoding: 57651 57651 288
Width: 0
VWidth: 0
Flags: HW
HStem: -8 44<184.98 306.233> 270 45<194.868 318.964> 366.597 21G<359.203 410.152> 525 42<360.649 491>
VStem: 46 102<122.097 332.933> 348 102<84.162 237.903>
LayerCount: 4
Fore
SplineSet
256 653 m 1
 300 666 l 1
 341 537 l 1
 388 548 436 554 484 554 c 2
 484 554 485 554 486 554 c 1
 486 510 l 1
 439 507 396 502 356 491 c 1
 397 361 l 1
 353 348 l 1
 312 476 l 1
 235 445 176 387 144 281 c 1
 172 302 214 315 256 315 c 0
 362 315 417 238 417 166 c 0
 417 57 319 -8 222 -8 c 0
 90 -8 39 90 39 191 c 0
 39 367 153 476 297 524 c 1
 256 653 l 1
201 40 m 0
 269 40 322 109 322 190 c 0
 322 234 297 272 241 272 c 0
 175 272 114 211 114 133 c 0
 114 81 143 40 201 40 c 0
EndSplineSet
Layer: 2
SplineSet
201 40 m 4
 269 40 322 109 322 190 c 4
 322 234 297 272 241 272 c 4
 175 272 114 211 114 133 c 4
 114 81 143 40 201 40 c 4
222 -8 m 4
 90 -8 39 90 39 191 c 4
 39 439 266 554 484 554 c 4
 484 554 485 554 486 554 c 6
 486 510 l 5
 325 500 198 458 144 281 c 5
 172 302 214 315 256 315 c 4
 362 315 417 238 417 166 c 4
 417 57 319 -8 222 -8 c 4
256.291992188 652.844726562 m 5
 300.280273438 666.294921875 l 5
 396.708007812 361.155273438 l 5
 352.719726562 347.705078125 l 5
 256.291992188 652.844726562 l 5
EndSplineSet
EndChar

StartChar: i_seven_slash
Encoding: 57656 57656 289
Width: 0
VWidth: 0
Flags: HW
LayerCount: 4
Fore
SplineSet
-26 269 m 1
 -20 314 l 1
 242 269 l 1
 286 317 334 367 376 420 c 1
 331 429 249 468 203 468 c 0
 173 468 135 465 106 374 c 1
 68 376 l 1
 115 559 l 1
 154 557 l 1
 152 547 151 539 151 533 c 0
 151 525 154 520 162 520 c 0
 179 520 204 559 257 559 c 0
 327 559 324 499 376 499 c 0
 403 499 425 517 438 542 c 1
 481 539 l 1
 437 431 371 344 315 257 c 1
 512 223 l 1
 506 178 l 1
 289 215 l 1
 262 168 238 120 224 67 c 0
 210 15 178 -6 149 -6 c 0
 121 -6 97 14 97 48 c 0
 97 100 144 161 205 229 c 1
 -26 269 l 1
EndSplineSet
Layer: 2
SplineSet
376 420 m 1
 331 429 249 468 203 468 c 0
 173 468 134.749815444 465.177986121 106 374 c 1
 68 376 l 1
 115 559 l 1
 154 557 l 1
 152 547 151 539 151 533 c 0
 151 525 154 520 162 520 c 0
 179 520 204 559 257 559 c 0
 327 559 324 499 376 499 c 0
 403 499 425 517 438 542 c 1
 481 539 l 1
 406 356 269 234 224 67 c 0
 210 15 178 -6 149 -6 c 0
 121 -6 97 14 97 48 c 0
 97 144 259 274 376 420 c 1
-26.146484375 268.809570312 m 1
 -20 314 l 1
 512.146484375 223.190429688 l 1
 506 178 l 1
 -26.146484375 268.809570312 l 1
EndSplineSet
EndChar

StartChar: i_seven_slash.alt
Encoding: 57657 57657 290
Width: 0
VWidth: 0
Flags: HW
HStem: 476 94<155.351 283.634>
VStem: 56 38<378 440.606> 66 40<526.009 562> 156 124<12.9183 143.051> 402 44<536.228 562>
LayerCount: 4
Fore
SplineSet
376 420 m 1
 331 429 249 468 203 468 c 0
 173 468 135 465 106 374 c 1
 68 376 l 1
 115 559 l 1
 154 557 l 1
 152 547 151 539 151 533 c 0
 151 525 154 520 162 520 c 0
 179 520 204 559 257 559 c 0
 327 559 324 499 376 499 c 0
 403 499 425 517 438 542 c 1
 481 539 l 1
 447 456 400 386 355 318 c 1
 616 343 l 1
 622 298 l 1
 323 269 l 1
 281 205 244 140 224 67 c 0
 210 15 178 -6 149 -6 c 0
 121 -6 97 14 97 48 c 0
 97 107 159 180 234 261 c 1
 -80 231 l 1
 -86 276 l 1
 281 311 l 1
 313 346 346 383 376 420 c 1
EndSplineSet
Layer: 2
SplineSet
-80.0283203125 231.2578125 m 5
 -85.787109375 276.499023438 l 5
 616.317382812 342.873046875 l 5
 622.076171875 297.631835938 l 5
 -80.0283203125 231.2578125 l 5
376 420 m 5
 331 429 249 468 203 468 c 4
 173 468 134.749815444 465.177986121 106 374 c 5
 68 376 l 5
 115 559 l 5
 154 557 l 5
 152 547 151 539 151 533 c 4
 151 525 154 520 162 520 c 4
 179 520 204 559 257 559 c 4
 327 559 324 499 376 499 c 4
 403 499 425 517 438 542 c 5
 481 539 l 5
 406 356 269 234 224 67 c 4
 210 15 178 -6 149 -6 c 4
 121 -6 97 14 97 48 c 4
 97 144 259 274 376 420 c 5
EndSplineSet
EndChar

StartChar: i_seven_tick
Encoding: 57658 57658 291
Width: 0
VWidth: 0
Flags: HW
HStem: 484 86<155.416 251.333>
VStem: 56 38<378 440.104> 66 40<526.009 562> 160 120<12.9183 147.963> 402 44<536.228 562>
LayerCount: 4
Fore
SplineSet
168 267 m 1
 129 291 l 1
 258 469 l 1
 240 474 224 477 210 477 c 0
 180 477 135 465 106 374 c 1
 68 376 l 1
 115 559 l 1
 154 557 l 1
 152 547 151 539 151 533 c 0
 151 525 154 520 162 520 c 0
 179 520 204 559 257 559 c 0
 283 559 298 551 311 541 c 1
 426 700 l 1
 467 675 l 1
 345 509 l 1
 353 503 363 499 376 499 c 0
 403 499 425 517 438 542 c 1
 481 539 l 1
 406 356 269 234 224 67 c 0
 210 15 181 -6 152 -6 c 0
 124 -6 103 14 103 48 c 0
 103 144 272 283 383 429 c 1
 362 433 334 444 305 454 c 1
 168 267 l 1
EndSplineSet
Layer: 2
SplineSet
383 429 m 5
 338 438 256 477 210 477 c 4
 180 477 134.749815444 465.177986121 106 374 c 5
 68 376 l 5
 115 559 l 5
 154 557 l 5
 152 547 151 539 151 533 c 4
 151 525 154 520 162 520 c 4
 179 520 204 559 257 559 c 4
 327 559 324 499 376 499 c 4
 403 499 425 517 438 542 c 5
 481 539 l 5
 406 356 269 234 224 67 c 4
 210 15 181 -6 152 -6 c 4
 124 -6 103 14 103 48 c 4
 103 144 272 283 383 429 c 5
167.588867188 266.5703125 m 5x98
 129.220703125 291.306640625 l 5
 426.423828125 699.569335938 l 5
 466.787109375 674.693359375 l 5
 167.588867188 266.5703125 l 5x98
EndSplineSet
EndChar

StartChar: i_nine_slash
Encoding: 57664 57664 292
Width: 0
VWidth: 0
Flags: HW
LayerCount: 4
Fore
SplineSet
28 90 m 0
 28 128 50 158 90 158 c 0
 104 158 116 153 124 144 c 1
 177 242 l 1
 116 265 81 320 81 376 c 0
 81 489 183 568 288 568 c 0
 311 568 332 565 350 559 c 1
 407 662 l 1
 447 641 l 1
 391 539 l 1
 441 504 465 442 465 368 c 0
 465 334 460 298 450 259 c 0
 402 79 288 -8 183 -8 c 0
 153 -8 124 -3 100 6 c 1
 49 -89 l 1
 8 -68 l 1
 60 27 l 1
 40 43 28 64 28 90 c 0
136 70 m 1
 136 48 144 35 181 35 c 0
 281 35 340 174 365 268 c 1
 333 246 287 230 246 230 c 0
 238 230 223 231 223 231 c 1
 136 70 l 1
247 275 m 2
 247 275 253 274 260 274 c 0
 339 274 393 339 393 424 c 0
 393 453 385 479 368 496 c 1
 247 275 l 2
203 288 m 1
 328 518 l 1
 328 518 318 521 300 521 c 0
 221 521 167 446 167 360 c 0
 167 330 178 303 203 288 c 1
EndSplineSet
Layer: 2
SplineSet
48.5478515625 -88.83984375 m 1
 7.8193359375 -68.3134765625 l 1
 406.668945312 661.76171875 l 1
 447.397460938 641.235351562 l 1
 48.5478515625 -88.83984375 l 1
28.3873196423 90.4292386634 m 4
 28.3873196423 127.971045876 50.2353705015 158.211073356 89.6877026523 158.211073356 c 4
 120.452792676 158.211073356 137.717336087 135.668783007 137.717336087 102.330762963 c 4
 137.717336087 90.6052729152 135.533786806 81.6278589644 135.533786806 71.6873348866 c 4
 135.533786806 48.6645461291 143.772092393 35 181 35 c 4
 281 35 340 174 365 268 c 5
 333 246 287 230 246 230 c 4
 143 230 81 301 81 376 c 4
 81 489 183 568 288 568 c 4
 409 568 465 481 465 368 c 4
 465 334 460 298 450 259 c 4
 402 79 288 -8 183 -8 c 4
 101.180190163 -8 28.3873196423 26.4053948157 28.3873196423 90.4292386634 c 4
167 360 m 4
 167 312 195 274 260 274 c 4
 339 274 393 339 393 424 c 4
 393 479 365 521 300 521 c 4
 221 521 167 446 167 360 c 4
EndSplineSet
EndChar

StartChar: i_nine_slash.alt
Encoding: 57665 57665 293
Width: 0
VWidth: 0
Flags: HMW
LayerCount: 4
Fore
SplineSet
28 90 m 0
 28 128 50 158 90 158 c 0
 120 158 138 136 138 102 c 0
 138 91 136 82 136 72 c 0
 136 49 144 35 181 35 c 0
 281 35 333 168 359 248 c 1
 327 226 281 210 240 210 c 0
 156 210 101 260 84 323 c 1
 -109 304 l 1
 -115 349 l 1
 78 368 l 1
 79 490 184 568 288 568 c 0
 395 568 452 499 463 405 c 1
 630 421 l 1
 636 376 l 1
 465 359 l 1
 464 328 459 295 450 259 c 0
 402 79 288 -8 183 -8 c 0
 101 -8 28 26 28 90 c 0
165 331 m 1
 170 283 196 254 254 254 c 0
 315 254 363 290 383 351 c 1
 165 331 l 1
391 398 m 1
 391 398 392 409 392 414 c 0
 392 476 365 521 300 521 c 0
 229 521 175 458 166 376 c 1
 391 398 l 1
EndSplineSet
Layer: 2
SplineSet
-109.028320312 304.2578125 m 5
 -114.787109375 349.499023438 l 5
 630.317382812 420.873046875 l 5
 636.076171875 375.631835938 l 5
 -109.028320312 304.2578125 l 5
28.3873196423 90.4292386634 m 4
 28.3873196423 127.971045876 50.2353705015 158.211073356 89.6877026523 158.211073356 c 4
 120.452792676 158.211073356 137.717336087 135.668783007 137.717336087 102.330762963 c 4
 137.717336087 90.6052729152 135.533786806 81.6278589644 135.533786806 71.6873348866 c 4
 135.533786806 48.6645461291 143.772092393 35 181 35 c 4
 281 35 332.602264853 168.376704365 359 248 c 5
 327 226 281 210 240 210 c 4
 137 210 78 284 78 366 c 4
 78 489 183 568 288 568 c 4
 409 568 465 481 465 368 c 4
 465 334 460 298 450 259 c 4
 402 79 288 -8 183 -8 c 4
 101.180190163 -8 28.3873196423 26.4053948157 28.3873196423 90.4292386634 c 4
164 350 m 4
 164 291 189 254 254 254 c 4
 333 254 392 315 392 414 c 4
 392 476 365 521 300 521 c 4
 221 521 164 444 164 350 c 4
EndSplineSet
EndChar

StartChar: i_nine_tick
Encoding: 57666 57666 294
Width: 0
VWidth: 0
Flags: HW
LayerCount: 4
Fore
SplineSet
180 371 m 0
 180 321 204 288 256 288 c 0
 319 288 385 349 385 427 c 0
 385 480 356 521 298 521 c 0
 223 521 180 445 180 371 c 0
357 277 m 1
 329 258 288 243 246 243 c 0
 139 243 84 319 84 393 c 0
 84 498 173 568 281 568 c 0
 409 568 469 476 469 379 c 0
 469 250 385 125 289 66 c 1
 413 -15 l 1
 389 -51 l 1
 245 42 l 1
 180 12 102 -5 12 -5 c 1
 14 38 l 1
 82 41 141 55 190 78 c 1
 13 193 l 1
 37 229 l 1
 233 102 l 1
 296 144 338 205 357 277 c 1
EndSplineSet
Layer: 2
SplineSet
13 193 m 5
 37 229 l 5
 413 -15 l 5
 389 -51 l 5
 13 193 l 5
357 277 m 5
 329 258 288 243 246 243 c 4
 139 243 84 319 84 393 c 4
 84 498 173 568 281 568 c 4
 409 568 469 476 469 379 c 4
 469 354 466 328 459 302 c 4
 408.50700874 109.907098468 249 -4.796875 12.28125 -4.796875 c 5
 13.8515625 38.1279296875 l 5
 204.419921875 45.015625 321.408621272 141.307868598 357 277 c 5
180 371 m 4
 180 321 204 288 256 288 c 4
 319 288 385 349 385 427 c 4
 385 480 356 521 298 521 c 4
 223 521 180 445 180 371 c 4
EndSplineSet
EndChar
